UbuntuMono-RegularOLD.ufo
<glyph name="exclam" format="2">
  <advance width="560"/>
  <unicode hex="0021"/>
  <outline>
    <contour>
      <point x="246" y="236" type="curve"/>
      <point x="310" y="236" type="line"/>
      <point x="320" y="326"/>
      <point x="328" y="394"/>
      <point x="328" y="505" type="curve" smooth="yes"/>
      <point x="328" y="693" type="line"/>
      <point x="228" y="693" type="line"/>
      <point x="228" y="505" type="line" smooth="yes"/>
      <point x="228" y="394"/>
      <point x="236" y="326"/>
    </contour>
    <contour>
      <point x="278" y="-13" type="curve" smooth="yes"/>
      <point x="319" y="-13"/>
      <point x="353" y="17"/>
      <point x="353" y="63" type="curve" smooth="yes"/>
      <point x="353" y="109"/>
      <point x="319" y="139"/>
      <point x="278" y="139" type="curve" smooth="yes"/>
      <point x="237" y="139"/>
      <point x="203" y="109"/>
      <point x="203" y="63" type="curve" smooth="yes"/>
      <point x="203" y="17"/>
      <point x="237" y="-13"/>
    </contour>
  </outline>
</glyph>
<glyph name="numbersign" format="2">
  <advance width="560"/>
  <unicode hex="0023"/>
  <outline>
    <contour>
      <point x="67" y="0" type="line"/>
      <point x="151" y="0" type="line"/>
      <point x="186" y="183" type="line"/>
      <point x="310" y="183" type="line"/>
      <point x="276" y="0" type="line"/>
      <point x="360" y="0" type="line"/>
      <point x="394" y="183" type="line"/>
      <point x="530" y="183" type="line"/>
      <point x="530" y="258" type="line"/>
      <point x="409" y="258" type="line"/>
      <point x="444" y="436" type="line"/>
      <point x="530" y="436" type="line"/>
      <point x="530" y="510" type="line"/>
      <point x="458" y="510" type="line"/>
      <point x="492" y="693" type="line"/>
      <point x="408" y="693" type="line"/>
      <point x="374" y="510" type="line"/>
      <point x="250" y="510" type="line"/>
      <point x="284" y="693" type="line"/>
      <point x="200" y="693" type="line"/>
      <point x="166" y="510" type="line"/>
      <point x="30" y="510" type="line"/>
      <point x="30" y="436" type="line"/>
      <point x="150" y="436" type="line"/>
      <point x="116" y="258" type="line"/>
      <point x="30" y="258" type="line"/>
      <point x="30" y="183" type="line"/>
      <point x="102" y="183" type="line"/>
    </contour>
    <contour>
      <point x="200" y="258" type="line"/>
      <point x="235" y="436" type="line"/>
      <point x="358" y="436" type="line"/>
      <point x="324" y="258" type="line"/>
    </contour>
  </outline>
</glyph>
<glyph name="ampersand" format="2">
  <advance width="560"/>
  <unicode hex="0026"/>
  <outline>
    <contour>
      <point x="217" y="-9" type="curve" smooth="yes"/>
      <point x="281" y="-9"/>
      <point x="342" y="16"/>
      <point x="390" y="75" type="curve"/>
      <point x="405" y="52"/>
      <point x="420" y="26"/>
      <point x="432" y="0" type="curve"/>
      <point x="530" y="0" type="line"/>
      <point x="504" y="57"/>
      <point x="472" y="108"/>
      <point x="438" y="155" type="curve"/>
      <point x="463" y="209"/>
      <point x="480" y="277"/>
      <point x="489" y="363" type="curve"/>
      <point x="412" y="373" type="line"/>
      <point x="408" y="314"/>
      <point x="399" y="264"/>
      <point x="386" y="223" type="curve"/>
      <point x="358" y="258"/>
      <point x="330" y="288"/>
      <point x="267" y="360" type="curve"/>
      <point x="363" y="420"/>
      <point x="407" y="497"/>
      <point x="407" y="566" type="curve" smooth="yes"/>
      <point x="407" y="660"/>
      <point x="332" y="709"/>
      <point x="253" y="709" type="curve" smooth="yes"/>
      <point x="166" y="709"/>
      <point x="84" y="654"/>
      <point x="84" y="538" type="curve" smooth="yes"/>
      <point x="84" y="480"/>
      <point x="110" y="428"/>
      <point x="149" y="375" type="curve"/>
      <point x="71" y="315"/>
      <point x="35" y="239"/>
      <point x="35" y="169" type="curve" smooth="yes"/>
      <point x="35" y="73"/>
      <point x="104" y="-9"/>
    </contour>
    <contour>
      <point x="226" y="67" type="curve" smooth="yes"/>
      <point x="172" y="67"/>
      <point x="128" y="110"/>
      <point x="128" y="178" type="curve" smooth="yes"/>
      <point x="128" y="225"/>
      <point x="150" y="280"/>
      <point x="193" y="319" type="curve"/>
      <point x="240" y="263"/>
      <point x="296" y="206"/>
      <point x="345" y="140" type="curve"/>
      <point x="310" y="90"/>
      <point x="265" y="67"/>
    </contour>
    <contour>
      <point x="224" y="413" type="curve"/>
      <point x="180" y="470"/>
      <point x="171" y="501"/>
      <point x="171" y="544" type="curve" smooth="yes"/>
      <point x="171" y="605"/>
      <point x="212" y="636"/>
      <point x="251" y="636" type="curve" smooth="yes"/>
      <point x="288" y="636"/>
      <point x="323" y="609"/>
      <point x="323" y="556" type="curve" smooth="yes"/>
      <point x="323" y="512"/>
      <point x="296" y="458"/>
    </contour>
  </outline>
</glyph>
<glyph name="quotesingle" format="2">
  <advance width="560"/>
  <unicode hex="0027"/>
  <outline>
    <contour>
      <point x="251" y="461" type="curve"/>
      <point x="308" y="461" type="line"/>
      <point x="319" y="531"/>
      <point x="328" y="645"/>
      <point x="328" y="710" type="curve" smooth="yes"/>
      <point x="328" y="760" type="line"/>
      <point x="231" y="760" type="line"/>
      <point x="231" y="711" type="line" smooth="yes"/>
      <point x="231" y="645"/>
      <point x="240" y="531"/>
    </contour>
  </outline>
</glyph>
<glyph name="parenright" format="2">
  <advance width="560"/>
  <unicode hex="0029"/>
  <outline>
    <contour>
      <point x="177" y="-187" type="line"/>
      <point x="347" y="-64"/>
      <point x="432" y="113"/>
      <point x="432" y="298" type="curve" smooth="yes"/>
      <point x="432" y="483"/>
      <point x="348" y="660"/>
      <point x="177" y="785" type="curve"/>
      <point x="127" y="718" type="line"/>
      <point x="276" y="590"/>
      <point x="344" y="463"/>
      <point x="344" y="296" type="curve" smooth="yes"/>
      <point x="344" y="131"/>
      <point x="267" y="-12"/>
      <point x="128" y="-120" type="curve"/>
    </contour>
  </outline>
</glyph>
<glyph name="asterisk" format="2">
  <advance width="560"/>
  <unicode hex="002A"/>
  <outline>
    <contour>
      <point x="194" y="281" type="line"/>
      <point x="199" y="287" type="line" smooth="yes"/>
      <point x="233" y="332"/>
      <point x="258" y="388"/>
      <point x="281" y="437" type="curve"/>
      <point x="304" y="388"/>
      <point x="328" y="332"/>
      <point x="360" y="287" type="curve" smooth="yes"/>
      <point x="365" y="280" type="line"/>
      <point x="444" y="337" type="line"/>
      <point x="439" y="343" type="line" smooth="yes"/>
      <point x="409" y="389"/>
      <point x="362" y="430"/>
      <point x="321" y="467" type="curve"/>
      <point x="376" y="473"/>
      <point x="436" y="482"/>
      <point x="489" y="497" type="curve" smooth="yes"/>
      <point x="496" y="500" type="line"/>
      <point x="467" y="591" type="line"/>
      <point x="459" y="588" type="line" smooth="yes"/>
      <point x="408" y="569"/>
      <point x="354" y="543"/>
      <point x="306" y="515" type="curve"/>
      <point x="317" y="569"/>
      <point x="329" y="629"/>
      <point x="329" y="685" type="curve" smooth="yes"/>
      <point x="329" y="693" type="line"/>
      <point x="233" y="693" type="line"/>
      <point x="233" y="685" type="line" smooth="yes"/>
      <point x="233" y="629"/>
      <point x="245" y="569"/>
      <point x="256" y="515" type="curve"/>
      <point x="208" y="542"/>
      <point x="155" y="569"/>
      <point x="102" y="589" type="curve" smooth="yes"/>
      <point x="94" y="592" type="line"/>
      <point x="64" y="501" type="line"/>
      <point x="72" y="498" type="line" smooth="yes"/>
      <point x="124" y="480"/>
      <point x="185" y="474"/>
      <point x="240" y="467" type="curve"/>
      <point x="199" y="430"/>
      <point x="155" y="390"/>
      <point x="122" y="344" type="curve" smooth="yes"/>
      <point x="116" y="337" type="line"/>
    </contour>
  </outline>
</glyph>
<glyph name="plus" format="2">
  <advance width="560"/>
  <unicode hex="002B"/>
  <outline>
    <contour>
      <point x="240" y="48" type="line"/>
      <point x="320" y="48" type="line"/>
      <point x="320" y="255" type="line"/>
      <point x="510" y="255" type="line"/>
      <point x="510" y="334" type="line"/>
      <point x="320" y="334" type="line"/>
      <point x="320" y="540" type="line"/>
      <point x="240" y="540" type="line"/>
      <point x="240" y="334" type="line"/>
      <point x="52" y="334" type="line"/>
      <point x="52" y="255" type="line"/>
      <point x="240" y="255" type="line"/>
    </contour>
  </outline>
</glyph>
<glyph name="comma" format="2">
  <advance width="560"/>
  <unicode hex="002C"/>
  <outline>
    <contour>
      <point x="183" y="-161" type="line"/>
      <point x="325" y="-144"/>
      <point x="393" y="-32"/>
      <point x="393" y="54" type="curve" smooth="yes"/>
      <point x="393" y="110"/>
      <point x="364" y="156"/>
      <point x="309" y="156" type="curve" smooth="yes"/>
      <point x="267" y="156"/>
      <point x="226" y="124"/>
      <point x="226" y="65" type="curve" smooth="yes"/>
      <point x="226" y="34"/>
      <point x="246" y="-6"/>
      <point x="295" y="-10" type="curve"/>
      <point x="273" y="-68"/>
      <point x="221" y="-77"/>
      <point x="167" y="-88" type="curve"/>
    </contour>
  </outline>
</glyph>
<glyph name="hyphen" format="2">
  <advance width="560"/>
  <unicode hex="002D"/>
  <outline>
    <contour>
      <point x="157" y="241" type="line"/>
      <point x="403" y="241" type="line"/>
      <point x="403" y="328" type="line"/>
      <point x="157" y="328" type="line"/>
    </contour>
  </outline>
</glyph>
<glyph name="period" format="2">
  <advance width="560"/>
  <unicode hex="002E"/>
  <outline>
    <contour>
      <point x="281" y="-13" type="curve" smooth="yes"/>
      <point x="330" y="-13"/>
      <point x="363" y="27"/>
      <point x="363" y="72" type="curve" smooth="yes"/>
      <point x="363" y="118"/>
      <point x="330" y="158"/>
      <point x="281" y="158" type="curve" smooth="yes"/>
      <point x="231" y="158"/>
      <point x="198" y="118"/>
      <point x="198" y="72" type="curve" smooth="yes"/>
      <point x="198" y="27"/>
      <point x="231" y="-13"/>
    </contour>
  </outline>
</glyph>
<glyph name="one" format="2">
  <advance width="560"/>
  <unicode hex="0031"/>
  <outline>
    <contour>
      <point x="118" y="0" type="line"/>
      <point x="491" y="0" type="line"/>
      <point x="491" y="78" type="line"/>
      <point x="360" y="78" type="line"/>
      <point x="360" y="693" type="line"/>
      <point x="295" y="693" type="line"/>
      <point x="234" y="624"/>
      <point x="160" y="579"/>
      <point x="84" y="550" type="curve"/>
      <point x="113" y="480" type="line"/>
      <point x="170" y="500"/>
      <point x="236" y="535"/>
      <point x="268" y="564" type="curve"/>
      <point x="268" y="78" type="line"/>
      <point x="118" y="78" type="line"/>
    </contour>
  </outline>
</glyph>
<glyph name="two" format="2">
  <advance width="560"/>
  <unicode hex="0032"/>
  <outline>
    <contour>
      <point x="78" y="0" type="curve"/>
      <point x="498" y="0" type="line"/>
      <point x="498" y="78" type="line"/>
      <point x="179" y="78" type="line"/>
      <point x="179" y="123"/>
      <point x="262" y="209"/>
      <point x="308" y="255" type="curve" smooth="yes"/>
      <point x="389" y="336"/>
      <point x="470" y="421"/>
      <point x="470" y="516" type="curve" smooth="yes"/>
      <point x="470" y="640"/>
      <point x="402" y="709"/>
      <point x="258" y="709" type="curve" smooth="yes"/>
      <point x="161" y="709"/>
      <point x="88" y="654"/>
      <point x="64" y="626" type="curve"/>
      <point x="110" y="561" type="line"/>
      <point x="129" y="578"/>
      <point x="180" y="627"/>
      <point x="258" y="627" type="curve" smooth="yes"/>
      <point x="323" y="627"/>
      <point x="376" y="592"/>
      <point x="376" y="513" type="curve" smooth="yes"/>
      <point x="376" y="440"/>
      <point x="316" y="382"/>
      <point x="250" y="317" type="curve" smooth="yes"/>
      <point x="168" y="237"/>
      <point x="77" y="149"/>
      <point x="77" y="24" type="curve" smooth="yes"/>
      <point x="77" y="16"/>
      <point x="77" y="8"/>
    </contour>
  </outline>
</glyph>
<glyph name="six" format="2">
  <advance width="560"/>
  <unicode hex="0036"/>
  <outline>
    <contour>
      <point x="290" y="-15" type="curve" smooth="yes"/>
      <point x="439" y="-15"/>
      <point x="503" y="110"/>
      <point x="503" y="211" type="curve" smooth="yes"/>
      <point x="503" y="323"/>
      <point x="448" y="426"/>
      <point x="291" y="426" type="curve" smooth="yes"/>
      <point x="244" y="426"/>
      <point x="200" y="413"/>
      <point x="165" y="398" type="curve"/>
      <point x="199" y="559"/>
      <point x="306" y="615"/>
      <point x="463" y="618" type="curve"/>
      <point x="455" y="697" type="line"/>
      <point x="211" y="693"/>
      <point x="60" y="547"/>
      <point x="60" y="278" type="curve" smooth="yes"/>
      <point x="60" y="95"/>
      <point x="138" y="-15"/>
    </contour>
    <contour>
      <point x="289" y="63" type="curve" smooth="yes"/>
      <point x="183" y="63"/>
      <point x="155" y="162"/>
      <point x="155" y="278" type="curve" smooth="yes"/>
      <point x="155" y="293"/>
      <point x="155" y="308"/>
      <point x="156" y="323" type="curve"/>
      <point x="196" y="340"/>
      <point x="234" y="349"/>
      <point x="281" y="349" type="curve" smooth="yes"/>
      <point x="368" y="349"/>
      <point x="409" y="300"/>
      <point x="409" y="209" type="curve" smooth="yes"/>
      <point x="409" y="146"/>
      <point x="377" y="63"/>
    </contour>
  </outline>
</glyph>
<glyph name="seven" format="2">
  <advance width="560"/>
  <unicode hex="0037"/>
  <outline>
    <contour>
      <point x="174" y="0" type="curve"/>
      <point x="269" y="0" type="line"/>
      <point x="286" y="248"/>
      <point x="420" y="513"/>
      <point x="510" y="616" type="curve"/>
      <point x="510" y="693" type="line"/>
      <point x="71" y="693" type="line"/>
      <point x="71" y="613" type="line"/>
      <point x="407" y="613" type="line"/>
      <point x="305" y="492"/>
      <point x="189" y="213"/>
    </contour>
  </outline>
</glyph>
<glyph name="nine" format="2">
  <advance width="560"/>
  <unicode hex="0039"/>
  <outline>
    <contour>
      <point x="96" y="-2" type="line"/>
      <point x="365" y="-1"/>
      <point x="501" y="141"/>
      <point x="501" y="416" type="curve" smooth="yes"/>
      <point x="501" y="598"/>
      <point x="422" y="709"/>
      <point x="270" y="709" type="curve" smooth="yes"/>
      <point x="121" y="709"/>
      <point x="57" y="585"/>
      <point x="57" y="484" type="curve" smooth="yes"/>
      <point x="57" y="372"/>
      <point x="112" y="271"/>
      <point x="269" y="271" type="curve" smooth="yes"/>
      <point x="316" y="271"/>
      <point x="361" y="282"/>
      <point x="396" y="298" type="curve"/>
      <point x="364" y="136"/>
      <point x="260" y="76"/>
      <point x="93" y="76" type="curve"/>
    </contour>
    <contour>
      <point x="279" y="347" type="curve" smooth="yes"/>
      <point x="192" y="347"/>
      <point x="151" y="395"/>
      <point x="151" y="486" type="curve" smooth="yes"/>
      <point x="151" y="549"/>
      <point x="183" y="631"/>
      <point x="271" y="631" type="curve" smooth="yes"/>
      <point x="379" y="631"/>
      <point x="407" y="532"/>
      <point x="407" y="416" type="curve" smooth="yes"/>
      <point x="407" y="401"/>
      <point x="407" y="388"/>
      <point x="405" y="373" type="curve"/>
      <point x="366" y="356"/>
      <point x="326" y="347"/>
    </contour>
  </outline>
</glyph>
<glyph name="less" format="2">
  <advance width="560"/>
  <unicode hex="003C"/>
  <outline>
    <contour>
      <point x="487" y="62" type="line"/>
      <point x="513" y="139" type="line"/>
      <point x="158" y="286" type="line"/>
      <point x="513" y="431" type="line"/>
      <point x="487" y="508" type="line"/>
      <point x="55" y="325" type="line"/>
      <point x="55" y="245" type="line"/>
    </contour>
  </outline>
</glyph>
<glyph name="equal" format="2">
  <advance width="560"/>
  <unicode hex="003D"/>
  <outline>
    <contour>
      <point x="52" y="361" type="line"/>
      <point x="510" y="361" type="line"/>
      <point x="510" y="440" type="line"/>
      <point x="52" y="440" type="line"/>
    </contour>
    <contour>
      <point x="52" y="148" type="line"/>
      <point x="510" y="148" type="line"/>
      <point x="510" y="227" type="line"/>
      <point x="52" y="227" type="line"/>
    </contour>
  </outline>
</glyph>
<glyph name="greater" format="2">
  <advance width="560"/>
  <unicode hex="003E"/>
  <outline>
    <contour>
      <point x="81" y="62" type="line"/>
      <point x="513" y="245" type="line"/>
      <point x="513" y="325" type="line"/>
      <point x="81" y="508" type="line"/>
      <point x="55" y="431" type="line"/>
      <point x="410" y="286" type="line"/>
      <point x="55" y="139" type="line"/>
    </contour>
  </outline>
</glyph>
<glyph name="question" format="2">
  <advance width="560"/>
  <unicode hex="003F"/>
  <outline>
    <contour>
      <point x="207" y="236" type="curve"/>
      <point x="287" y="236" type="line"/>
      <point x="288" y="368"/>
      <point x="459" y="411"/>
      <point x="459" y="544" type="curve" smooth="yes"/>
      <point x="459" y="617"/>
      <point x="421" y="709"/>
      <point x="270" y="709" type="curve" smooth="yes"/>
      <point x="206" y="709"/>
      <point x="148" y="693"/>
      <point x="103" y="669" type="curve"/>
      <point x="129" y="597" type="line"/>
      <point x="171" y="620"/>
      <point x="214" y="631"/>
      <point x="258" y="631" type="curve" smooth="yes"/>
      <point x="327" y="631"/>
      <point x="364" y="592"/>
      <point x="364" y="536" type="curve" smooth="yes"/>
      <point x="364" y="431"/>
      <point x="206" y="388"/>
      <point x="206" y="258" type="curve" smooth="yes"/>
      <point x="206" y="251"/>
      <point x="207" y="243"/>
    </contour>
    <contour>
      <point x="255" y="-13" type="curve" smooth="yes"/>
      <point x="296" y="-13"/>
      <point x="330" y="17"/>
      <point x="330" y="63" type="curve" smooth="yes"/>
      <point x="330" y="109"/>
      <point x="296" y="139"/>
      <point x="255" y="139" type="curve" smooth="yes"/>
      <point x="214" y="139"/>
      <point x="180" y="109"/>
      <point x="180" y="63" type="curve" smooth="yes"/>
      <point x="180" y="17"/>
      <point x="214" y="-13"/>
    </contour>
  </outline>
</glyph>
<glyph name="A" format="2">
  <advance width="560"/>
  <unicode hex="0041"/>
  <anchor x="280" y="0" name="bottom"/>
  <anchor x="504" y="11" name="ogonek"/>
  <anchor x="280" y="776" name="top"/>
  <outline>
    <contour>
      <point x="10" y="0" type="curve"/>
      <point x="104" y="0" type="line"/>
      <point x="144" y="181" type="line"/>
      <point x="411" y="181" type="line"/>
      <point x="452" y="0" type="line"/>
      <point x="550" y="0" type="line"/>
      <point x="498" y="196"/>
      <point x="426" y="472"/>
      <point x="339" y="693" type="curve"/>
      <point x="225" y="693" type="line"/>
      <point x="137" y="472"/>
      <point x="62" y="197"/>
    </contour>
    <contour>
      <point x="166" y="258" type="line"/>
      <point x="202" y="389"/>
      <point x="245" y="520"/>
      <point x="279" y="613" type="curve"/>
      <point x="312" y="524"/>
      <point x="355" y="391"/>
      <point x="390" y="258" type="curve"/>
    </contour>
  </outline>
</glyph>
<glyph name="B" format="2">
  <advance width="560"/>
  <unicode hex="0042"/>
  <anchor x="280" y="0" name="bottom"/>
  <anchor x="280" y="389" name="center"/>
  <anchor x="280" y="776" name="top"/>
  <outline>
    <contour>
      <point x="228" y="-6" type="curve" smooth="yes"/>
      <point x="421" y="-6"/>
      <point x="505" y="65"/>
      <point x="505" y="203" type="curve" smooth="yes"/>
      <point x="505" y="292"/>
      <point x="447" y="348"/>
      <point x="371" y="370" type="curve"/>
      <point x="427" y="391"/>
      <point x="473" y="454"/>
      <point x="473" y="519" type="curve" smooth="yes"/>
      <point x="473" y="655"/>
      <point x="367" y="700"/>
      <point x="228" y="700" type="curve" smooth="yes"/>
      <point x="181" y="700"/>
      <point x="106" y="696"/>
      <point x="60" y="683" type="curve"/>
      <point x="60" y="11" type="line"/>
      <point x="106" y="-1"/>
      <point x="183" y="-6"/>
    </contour>
    <contour>
      <point x="235" y="72" type="curve" smooth="yes"/>
      <point x="189" y="72"/>
      <point x="155" y="75"/>
      <point x="152" y="76" type="curve"/>
      <point x="152" y="324" type="line"/>
      <point x="246" y="324" type="line"/>
      <point x="334" y="324"/>
      <point x="413" y="295"/>
      <point x="413" y="202" type="curve" smooth="yes"/>
      <point x="413" y="99"/>
      <point x="327" y="72"/>
    </contour>
    <contour>
      <point x="152" y="400" type="line"/>
      <point x="152" y="618" type="line"/>
      <point x="165" y="620"/>
      <point x="196" y="622"/>
      <point x="234" y="622" type="curve" smooth="yes"/>
      <point x="311" y="622"/>
      <point x="381" y="592"/>
      <point x="381" y="511" type="curve" smooth="yes"/>
      <point x="381" y="426"/>
      <point x="301" y="400"/>
      <point x="225" y="400" type="curve" smooth="yes"/>
    </contour>
  </outline>
</glyph>
<glyph name="C" format="2">
  <advance width="560"/>
  <unicode hex="0043"/>
  <anchor x="280" y="0" name="bottom"/>
  <anchor x="280" y="776" name="top"/>
  <outline>
    <contour>
      <point x="337" y="-15" type="curve" smooth="yes"/>
      <point x="404" y="-15"/>
      <point x="463" y="-1"/>
      <point x="515" y="29" type="curve"/>
      <point x="491" y="105" type="line"/>
      <point x="440" y="77"/>
      <point x="392" y="67"/>
      <point x="348" y="67" type="curve" smooth="yes"/>
      <point x="231" y="67"/>
      <point x="146" y="157"/>
      <point x="146" y="347" type="curve" smooth="yes"/>
      <point x="146" y="517"/>
      <point x="222" y="627"/>
      <point x="344" y="627" type="curve" smooth="yes"/>
      <point x="386" y="627"/>
      <point x="432" y="614"/>
      <point x="483" y="585" type="curve"/>
      <point x="510" y="661" type="line"/>
      <point x="455" y="694"/>
      <point x="395" y="709"/>
      <point x="340" y="709" type="curve" smooth="yes"/>
      <point x="183" y="709"/>
      <point x="52" y="582"/>
      <point x="52" y="347" type="curve" smooth="yes"/>
      <point x="52" y="100"/>
      <point x="174" y="-15"/>
    </contour>
  </outline>
</glyph>
<glyph name="D" format="2">
  <advance width="560"/>
  <unicode hex="0044"/>
  <anchor x="280" y="0" name="bottom"/>
  <anchor x="280" y="389" name="center"/>
  <anchor x="280" y="776" name="top"/>
  <outline>
    <contour>
      <point x="200" y="-6" type="curve" smooth="yes"/>
      <point x="380" y="-6"/>
      <point x="515" y="91"/>
      <point x="515" y="347" type="curve" smooth="yes"/>
      <point x="515" y="603"/>
      <point x="380" y="700"/>
      <point x="200" y="700" type="curve" smooth="yes"/>
      <point x="155" y="700"/>
      <point x="108" y="694"/>
      <point x="60" y="683" type="curve"/>
      <point x="60" y="11" type="line"/>
      <point x="108" y="0"/>
      <point x="155" y="-6"/>
    </contour>
    <contour>
      <point x="209" y="74" type="curve" smooth="yes"/>
      <point x="192" y="74"/>
      <point x="171" y="75"/>
      <point x="152" y="77" type="curve"/>
      <point x="152" y="617" type="line"/>
      <point x="167" y="619"/>
      <point x="187" y="620"/>
      <point x="206" y="620" type="curve" smooth="yes"/>
      <point x="347" y="620"/>
      <point x="421" y="534"/>
      <point x="421" y="347" type="curve" smooth="yes"/>
      <point x="421" y="152"/>
      <point x="343" y="74"/>
    </contour>
  </outline>
</glyph>
<glyph name="E" format="2">
  <advance width="560"/>
  <unicode hex="0045"/>
  <anchor x="280" y="0" name="bottom"/>
  <anchor x="504" y="11" name="ogonek"/>
  <anchor x="280" y="776" name="top"/>
  <anchor x="22" y="776" name="topleft"/>
  <outline>
    <contour>
      <point x="102" y="0" type="line"/>
      <point x="515" y="0" type="line"/>
      <point x="515" y="78" type="line"/>
      <point x="194" y="78" type="line"/>
      <point x="194" y="324" type="line"/>
      <point x="454" y="324" type="line"/>
      <point x="454" y="402" type="line"/>
      <point x="194" y="402" type="line"/>
      <point x="194" y="615" type="line"/>
      <point x="491" y="615" type="line"/>
      <point x="491" y="693" type="line"/>
      <point x="102" y="693" type="line"/>
    </contour>
  </outline>
</glyph>
<glyph name="G" format="2">
  <advance width="560"/>
  <unicode hex="0047"/>
  <anchor x="280" y="0" name="bottom"/>
  <anchor x="280" y="776" name="top"/>
  <outline>
    <contour>
      <point x="330" y="-15" type="curve" smooth="yes"/>
      <point x="414" y="-15"/>
      <point x="482" y="7"/>
      <point x="510" y="17" type="curve"/>
      <point x="510" y="342" type="line"/>
      <point x="418" y="342" type="line"/>
      <point x="418" y="80" type="line"/>
      <point x="407" y="74"/>
      <point x="384" y="66"/>
      <point x="340" y="66" type="curve" smooth="yes"/>
      <point x="214" y="66"/>
      <point x="146" y="181"/>
      <point x="146" y="347" type="curve" smooth="yes"/>
      <point x="146" y="519"/>
      <point x="227" y="629"/>
      <point x="342" y="629" type="curve" smooth="yes"/>
      <point x="394" y="629"/>
      <point x="442" y="610"/>
      <point x="477" y="584" type="curve"/>
      <point x="507" y="661" type="line"/>
      <point x="489" y="674"/>
      <point x="438" y="709"/>
      <point x="336" y="709" type="curve" smooth="yes"/>
      <point x="179" y="709"/>
      <point x="52" y="579"/>
      <point x="52" y="347" type="curve" smooth="yes"/>
      <point x="52" y="116"/>
      <point x="164" y="-15"/>
    </contour>
  </outline>
</glyph>
<glyph name="I" format="2">
  <advance width="560"/>
  <unicode hex="0049"/>
  <anchor x="280" y="0" name="bottom"/>
  <anchor x="504" y="11" name="ogonek"/>
  <anchor x="280" y="776" name="top"/>
  <anchor x="22" y="776" name="topleft"/>
  <outline>
    <contour>
      <point x="100" y="0" type="line"/>
      <point x="460" y="0" type="line"/>
      <point x="460" y="78" type="line"/>
      <point x="326" y="78" type="line"/>
      <point x="326" y="615" type="line"/>
      <point x="460" y="615" type="line"/>
      <point x="460" y="693" type="line"/>
      <point x="100" y="693" type="line"/>
      <point x="100" y="615" type="line"/>
      <point x="234" y="615" type="line"/>
      <point x="234" y="78" type="line"/>
      <point x="100" y="78" type="line"/>
    </contour>
  </outline>
</glyph>
<glyph name="K" format="2">
  <advance width="560"/>
  <unicode hex="004B"/>
  <anchor x="280" y="0" name="bottom"/>
  <anchor x="280" y="776" name="top"/>
  <outline>
    <contour>
      <point x="72" y="0" type="line"/>
      <point x="164" y="0" type="line"/>
      <point x="164" y="332" type="line"/>
      <point x="269" y="264"/>
      <point x="372" y="139"/>
      <point x="446" y="0" type="curve"/>
      <point x="550" y="0" type="line"/>
      <point x="487" y="150"/>
      <point x="360" y="290"/>
      <point x="264" y="370" type="curve"/>
      <point x="365" y="477"/>
      <point x="454" y="585"/>
      <point x="526" y="693" type="curve"/>
      <point x="420" y="693" type="line"/>
      <point x="353" y="599"/>
      <point x="260" y="484"/>
      <point x="164" y="384" type="curve"/>
      <point x="164" y="693" type="line"/>
      <point x="72" y="693" type="line"/>
    </contour>
  </outline>
</glyph>
<glyph name="M" format="2">
  <advance width="560"/>
  <unicode hex="004D"/>
  <anchor x="280" y="0" name="bottom"/>
  <anchor x="280" y="776" name="top"/>
  <outline>
    <contour>
      <point x="36" y="0" type="curve"/>
      <point x="125" y="0" type="line"/>
      <point x="128" y="161"/>
      <point x="136" y="385"/>
      <point x="138" y="579" type="curve"/>
      <point x="241" y="263" type="line"/>
      <point x="321" y="263" type="line"/>
      <point x="422" y="579" type="line"/>
      <point x="428" y="384"/>
      <point x="431" y="161"/>
      <point x="435" y="0" type="curve"/>
      <point x="524" y="0" type="line"/>
      <point x="514" y="248"/>
      <point x="505" y="477"/>
      <point x="475" y="693" type="curve"/>
      <point x="389" y="693" type="line"/>
      <point x="353" y="578"/>
      <point x="317" y="464"/>
      <point x="281" y="348" type="curve"/>
      <point x="245" y="464"/>
      <point x="208" y="578"/>
      <point x="172" y="693" type="curve"/>
      <point x="87" y="693" type="line"/>
      <point x="59" y="480"/>
      <point x="45" y="228"/>
    </contour>
  </outline>
</glyph>
<glyph name="O" format="2">
  <advance width="560"/>
  <unicode hex="004F"/>
  <anchor x="280" y="0" name="bottom"/>
  <anchor x="280" y="389" name="center"/>
  <anchor x="504" y="11" name="ogonek"/>
  <anchor x="280" y="776" name="top"/>
  <anchor x="22" y="776" name="topleft"/>
  <anchor x="538" y="776" name="topright"/>
  <outline>
    <contour>
      <point x="280" y="-15" type="curve" smooth="yes"/>
      <point x="427" y="-15"/>
      <point x="529" y="99"/>
      <point x="529" y="347" type="curve" smooth="yes"/>
      <point x="529" y="595"/>
      <point x="427" y="709"/>
      <point x="280" y="709" type="curve" smooth="yes"/>
      <point x="132" y="709"/>
      <point x="32" y="595"/>
      <point x="32" y="347" type="curve" smooth="yes"/>
      <point x="32" y="99"/>
      <point x="132" y="-15"/>
    </contour>
    <contour>
      <point x="278" y="65" type="curve" smooth="yes"/>
      <point x="175" y="65"/>
      <point x="127" y="166"/>
      <point x="127" y="347" type="curve" smooth="yes"/>
      <point x="127" y="529"/>
      <point x="175" y="629"/>
      <point x="278" y="629" type="curve" smooth="yes"/>
      <point x="382" y="629"/>
      <point x="435" y="529"/>
      <point x="435" y="347" type="curve" smooth="yes"/>
      <point x="435" y="166"/>
      <point x="382" y="65"/>
    </contour>
  </outline>
</glyph>
<glyph name="P" format="2">
  <advance width="560"/>
  <unicode hex="0050"/>
  <anchor x="280" y="0" name="bottom"/>
  <anchor x="280" y="776" name="top"/>
  <outline>
    <contour>
      <point x="82" y="0" type="line"/>
      <point x="174" y="0" type="line"/>
      <point x="174" y="259" type="line"/>
      <point x="254" y="259" type="line" smooth="yes"/>
      <point x="423" y="259"/>
      <point x="510" y="342"/>
      <point x="510" y="485" type="curve" smooth="yes"/>
      <point x="510" y="613"/>
      <point x="429" y="700"/>
      <point x="263" y="700" type="curve" smooth="yes"/>
      <point x="214" y="700"/>
      <point x="136" y="697"/>
      <point x="82" y="683" type="curve"/>
    </contour>
    <contour>
      <point x="174" y="337" type="line"/>
      <point x="174" y="617" type="line"/>
      <point x="192" y="619"/>
      <point x="232" y="620"/>
      <point x="270" y="620" type="curve" smooth="yes"/>
      <point x="365" y="620"/>
      <point x="416" y="572"/>
      <point x="416" y="482" type="curve" smooth="yes"/>
      <point x="416" y="380"/>
      <point x="361" y="337"/>
      <point x="250" y="337" type="curve" smooth="yes"/>
    </contour>
  </outline>
</glyph>
<glyph name="Q" format="2">
  <advance width="560"/>
  <unicode hex="0051"/>
  <anchor x="280" y="0" name="bottom"/>
  <anchor x="280" y="776" name="top"/>
  <outline>
    <contour>
      <point x="480" y="-185" type="curve"/>
      <point x="502" y="-111" type="line"/>
      <point x="411" y="-99"/>
      <point x="333" y="-71"/>
      <point x="324" y="-12" type="curve"/>
      <point x="447" y="9"/>
      <point x="529" y="124"/>
      <point x="529" y="346" type="curve" smooth="yes"/>
      <point x="529" y="594"/>
      <point x="427" y="708"/>
      <point x="280" y="708" type="curve" smooth="yes"/>
      <point x="132" y="708"/>
      <point x="32" y="594"/>
      <point x="32" y="346" type="curve" smooth="yes"/>
      <point x="32" y="128"/>
      <point x="109" y="13"/>
      <point x="228" y="-11" type="curve"/>
      <point x="251" y="-124"/>
      <point x="357" y="-164"/>
    </contour>
    <contour>
      <point x="278" y="64" type="curve" smooth="yes"/>
      <point x="175" y="64"/>
      <point x="127" y="165"/>
      <point x="127" y="346" type="curve" smooth="yes"/>
      <point x="127" y="528"/>
      <point x="175" y="628"/>
      <point x="278" y="628" type="curve" smooth="yes"/>
      <point x="382" y="628"/>
      <point x="435" y="528"/>
      <point x="435" y="346" type="curve" smooth="yes"/>
      <point x="435" y="165"/>
      <point x="382" y="64"/>
    </contour>
  </outline>
</glyph>
<glyph name="S" format="2">
  <advance width="560"/>
  <unicode hex="0053"/>
  <anchor x="280" y="0" name="bottom"/>
  <anchor x="280" y="776" name="top"/>
  <outline>
    <contour>
      <point x="262" y="-15" type="curve" smooth="yes"/>
      <point x="413" y="-15"/>
      <point x="498" y="54"/>
      <point x="498" y="174" type="curve" smooth="yes"/>
      <point x="498" y="304"/>
      <point x="420" y="344"/>
      <point x="307" y="392" type="curve" smooth="yes"/>
      <point x="230" y="426"/>
      <point x="170" y="452"/>
      <point x="170" y="529" type="curve" smooth="yes"/>
      <point x="170" y="595"/>
      <point x="227" y="629"/>
      <point x="295" y="629" type="curve" smooth="yes"/>
      <point x="358" y="629"/>
      <point x="413" y="607"/>
      <point x="444" y="589" type="curve"/>
      <point x="473" y="666" type="line"/>
      <point x="442" y="688"/>
      <point x="371" y="709"/>
      <point x="295" y="709" type="curve" smooth="yes"/>
      <point x="159" y="709"/>
      <point x="78" y="636"/>
      <point x="78" y="516" type="curve" smooth="yes"/>
      <point x="78" y="407"/>
      <point x="160" y="360"/>
      <point x="250" y="323" type="curve" smooth="yes"/>
      <point x="327" y="292"/>
      <point x="407" y="259"/>
      <point x="407" y="172" type="curve" smooth="yes"/>
      <point x="407" y="102"/>
      <point x="355" y="65"/>
      <point x="262" y="65" type="curve" smooth="yes"/>
      <point x="179" y="65"/>
      <point x="119" y="93"/>
      <point x="90" y="110" type="curve"/>
      <point x="62" y="34" type="line"/>
      <point x="90" y="17"/>
      <point x="162" y="-15"/>
    </contour>
  </outline>
</glyph>
<glyph name="W" format="2">
  <advance width="560"/>
  <unicode hex="0057"/>
  <anchor x="280" y="0" name="bottom"/>
  <anchor x="280" y="776" name="top"/>
  <outline>
    <contour>
      <point x="85" y="0" type="curve"/>
      <point x="171" y="0" type="line"/>
      <point x="207" y="115"/>
      <point x="243" y="230"/>
      <point x="279" y="345" type="curve"/>
      <point x="315" y="230"/>
      <point x="352" y="115"/>
      <point x="388" y="0" type="curve"/>
      <point x="473" y="0" type="line"/>
      <point x="497" y="185"/>
      <point x="514" y="444"/>
      <point x="524" y="693" type="curve"/>
      <point x="435" y="693" type="line"/>
      <point x="430" y="501"/>
      <point x="427" y="307"/>
      <point x="422" y="114" type="curve"/>
      <point x="388" y="220"/>
      <point x="354" y="325"/>
      <point x="319" y="430" type="curve"/>
      <point x="239" y="430" type="line"/>
      <point x="205" y="325"/>
      <point x="171" y="220"/>
      <point x="138" y="114" type="curve"/>
      <point x="133" y="307"/>
      <point x="130" y="501"/>
      <point x="125" y="693" type="curve"/>
      <point x="36" y="693" type="line"/>
      <point x="46" y="446"/>
      <point x="59" y="184"/>
    </contour>
  </outline>
</glyph>
<glyph name="X" format="2">
  <advance width="560"/>
  <unicode hex="0058"/>
  <anchor x="280" y="0" name="bottom"/>
  <anchor x="280" y="776" name="top"/>
  <outline>
    <contour>
      <point x="28" y="0" type="curve"/>
      <point x="128" y="0" type="line"/>
      <point x="172" y="102"/>
      <point x="226" y="220"/>
      <point x="279" y="302" type="curve"/>
      <point x="340" y="211"/>
      <point x="396" y="81"/>
      <point x="430" y="0" type="curve"/>
      <point x="532" y="0" type="line"/>
      <point x="479" y="124"/>
      <point x="410" y="254"/>
      <point x="338" y="370" type="curve"/>
      <point x="522" y="693" type="line"/>
      <point x="422" y="693" type="line"/>
      <point x="277" y="428" type="line"/>
      <point x="141" y="693" type="line"/>
      <point x="39" y="693" type="line"/>
      <point x="220" y="366" type="line"/>
      <point x="146" y="248"/>
      <point x="77" y="110"/>
    </contour>
  </outline>
</glyph>
<glyph name="Y" format="2">
  <advance width="560"/>
  <unicode hex="0059"/>
  <anchor x="280" y="0" name="bottom"/>
  <anchor x="280" y="776" name="top"/>
  <anchor x="22" y="776" name="topleft"/>
  <outline>
    <contour>
      <point x="235" y="0" type="line"/>
      <point x="327" y="0" type="line"/>
      <point x="327" y="260" type="line"/>
      <point x="417" y="412"/>
      <point x="491" y="548"/>
      <point x="547" y="693" type="curve"/>
      <point x="446" y="693" type="line"/>
      <point x="403" y="575"/>
      <point x="351" y="463"/>
      <point x="282" y="337" type="curve"/>
      <point x="218" y="458"/>
      <point x="160" y="569"/>
      <point x="118" y="693" type="curve"/>
      <point x="15" y="693" type="line"/>
      <point x="69" y="547"/>
      <point x="144" y="407"/>
      <point x="235" y="258" type="curve"/>
    </contour>
  </outline>
</glyph>
<glyph name="Z" format="2">
  <advance width="560"/>
  <unicode hex="005A"/>
  <anchor x="280" y="0" name="bottom"/>
  <anchor x="280" y="389" name="center"/>
  <anchor x="280" y="776" name="top"/>
  <outline>
    <contour>
      <point x="60" y="0" type="line"/>
      <point x="510" y="0" type="line"/>
      <point x="510" y="78" type="line"/>
      <point x="166" y="78" type="line"/>
      <point x="252" y="244"/>
      <point x="407" y="489"/>
      <point x="501" y="622" type="curve"/>
      <point x="501" y="693" type="line"/>
      <point x="77" y="693" type="line"/>
      <point x="77" y="615" type="line"/>
      <point x="394" y="615" type="line"/>
      <point x="288" y="463"/>
      <point x="155" y="250"/>
      <point x="60" y="60" type="curve"/>
    </contour>
  </outline>
</glyph>
<glyph name="bracketleft" format="2">
  <advance width="560"/>
  <unicode hex="005B"/>
  <outline>
    <contour>
      <point x="160" y="-185" type="line"/>
      <point x="428" y="-185" type="line"/>
      <point x="428" y="-112" type="line"/>
      <point x="248" y="-112" type="line"/>
      <point x="248" y="710" type="line"/>
      <point x="428" y="710" type="line"/>
      <point x="428" y="783" type="line"/>
      <point x="160" y="783" type="line"/>
    </contour>
  </outline>
</glyph>
<glyph name="bracketright" format="2">
  <advance width="560"/>
  <unicode hex="005D"/>
  <outline>
    <contour>
      <point x="132" y="-185" type="line"/>
      <point x="400" y="-185" type="line"/>
      <point x="400" y="783" type="line"/>
      <point x="132" y="783" type="line"/>
      <point x="132" y="710" type="line"/>
      <point x="312" y="710" type="line"/>
      <point x="312" y="-112" type="line"/>
      <point x="132" y="-112" type="line"/>
    </contour>
  </outline>
</glyph>
<glyph name="underscore" format="2">
  <advance width="560"/>
  <unicode hex="005F"/>
  <outline>
    <contour>
      <point x="9" y="-185" type="line"/>
      <point x="551" y="-185" type="line"/>
      <point x="551" y="-106" type="line"/>
      <point x="9" y="-106" type="line"/>
    </contour>
  </outline>
</glyph>
<glyph name="grave" format="2">
  <advance width="560"/>
  <unicode hex="0060"/>
  <outline>
    <contour>
      <point x="323" y="580" type="line"/>
      <point x="370" y="622" type="line"/>
      <point x="242" y="776" type="line"/>
      <point x="183" y="717" type="line"/>
    </contour>
  </outline>
</glyph>
<glyph name="a" format="2">
  <advance width="560"/>
  <unicode hex="0061"/>
  <anchor x="280" y="0" name="bottom"/>
  <anchor x="504" y="11" name="ogonek"/>
  <anchor x="280" y="582" name="top"/>
  <outline>
    <contour>
      <point x="289" y="-12" type="curve" smooth="yes"/>
      <point x="364" y="-12"/>
      <point x="440" y="1"/>
      <point x="484" y="9" type="curve"/>
      <point x="484" y="334" type="line" smooth="yes"/>
      <point x="484" y="451"/>
      <point x="433" y="532"/>
      <point x="277" y="532" type="curve" smooth="yes"/>
      <point x="209" y="532"/>
      <point x="144" y="521"/>
      <point x="119" y="510" type="curve"/>
      <point x="130" y="433" type="line"/>
      <point x="155" y="442"/>
      <point x="205" y="454"/>
      <point x="269" y="454" type="curve" smooth="yes"/>
      <point x="370" y="454"/>
      <point x="393" y="391"/>
      <point x="393" y="329" type="curve" smooth="yes"/>
      <point x="393" y="304" type="line"/>
      <point x="360" y="311"/>
      <point x="324" y="316"/>
      <point x="286" y="316" type="curve" smooth="yes"/>
      <point x="178" y="316"/>
      <point x="65" y="273"/>
      <point x="65" y="155" type="curve" smooth="yes"/>
      <point x="65" y="20"/>
      <point x="176" y="-12"/>
    </contour>
    <contour>
      <point x="286" y="66" type="curve" smooth="yes"/>
      <point x="208" y="66"/>
      <point x="159" y="88"/>
      <point x="159" y="156" type="curve" smooth="yes"/>
      <point x="159" y="222"/>
      <point x="230" y="241"/>
      <point x="297" y="241" type="curve" smooth="yes"/>
      <point x="334" y="241"/>
      <point x="370" y="235"/>
      <point x="393" y="228" type="curve"/>
      <point x="393" y="74" type="line"/>
      <point x="370" y="69"/>
      <point x="332" y="66"/>
    </contour>
  </outline>
</glyph>
<glyph name="f" format="2">
  <advance width="560"/>
  <unicode hex="0066"/>
  <anchor x="280" y="0" name="bottom"/>
  <anchor x="280" y="869" name="top"/>
  <outline>
    <contour>
      <point x="180" y="0" type="line"/>
      <point x="272" y="0" type="line"/>
      <point x="272" y="442" type="line"/>
      <point x="482" y="442" type="line"/>
      <point x="482" y="520" type="line"/>
      <point x="272" y="520" type="line"/>
      <point x="272" y="566" type="line" smooth="yes"/>
      <point x="272" y="668"/>
      <point x="324" y="697"/>
      <point x="386" y="697" type="curve" smooth="yes"/>
      <point x="437" y="697"/>
      <point x="491" y="683"/>
      <point x="523" y="666" type="curve"/>
      <point x="540" y="746" type="line"/>
      <point x="493" y="763"/>
      <point x="436" y="776"/>
      <point x="382" y="776" type="curve" smooth="yes"/>
      <point x="276" y="776"/>
      <point x="180" y="727"/>
      <point x="180" y="567" type="curve" smooth="yes"/>
      <point x="180" y="520" type="line"/>
      <point x="71" y="520" type="line"/>
      <point x="71" y="442" type="line"/>
      <point x="180" y="442" type="line"/>
    </contour>
  </outline>
</glyph>
<glyph name="h" format="2">
  <advance width="560"/>
  <unicode hex="0068"/>
  <anchor x="280" y="0" name="bottom"/>
  <anchor x="280" y="435" name="center"/>
  <anchor x="280" y="869" name="top"/>
  <outline>
    <contour>
      <point x="80" y="0" type="line"/>
      <point x="172" y="0" type="line"/>
      <point x="172" y="431" type="line"/>
      <point x="188" y="438"/>
      <point x="231" y="449"/>
      <point x="269" y="449" type="curve" smooth="yes"/>
      <point x="362" y="449"/>
      <point x="392" y="402"/>
      <point x="392" y="273" type="curve" smooth="yes"/>
      <point x="392" y="0" type="line"/>
      <point x="484" y="0" type="line"/>
      <point x="484" y="293" type="line" smooth="yes"/>
      <point x="484" y="435"/>
      <point x="436" y="531"/>
      <point x="278" y="531" type="curve" smooth="yes"/>
      <point x="242" y="531"/>
      <point x="203" y="524"/>
      <point x="172" y="512" type="curve"/>
      <point x="172" y="776" type="line"/>
      <point x="80" y="760" type="line"/>
    </contour>
  </outline>
</glyph>
<glyph name="i" format="2">
  <advance width="560"/>
  <unicode hex="0069"/>
  <anchor x="280" y="0" name="bottom"/>
  <outline>
    <contour>
      <point x="380" y="-12" type="curve" smooth="yes"/>
      <point x="436" y="-12"/>
      <point x="487" y="8"/>
      <point x="504" y="17" type="curve"/>
      <point x="491" y="95" type="line"/>
      <point x="469" y="84"/>
      <point x="431" y="71"/>
      <point x="388" y="71" type="curve" smooth="yes"/>
      <point x="332" y="71"/>
      <point x="302" y="97"/>
      <point x="302" y="200" type="curve" smooth="yes"/>
      <point x="302" y="520" type="line"/>
      <point x="60" y="520" type="line"/>
      <point x="60" y="442" type="line"/>
      <point x="211" y="442" type="line"/>
      <point x="211" y="200" type="line"/>
      <point x="211" y="60"/>
      <point x="249" y="-12"/>
    </contour>
    <contour>
      <point x="234" y="600" type="curve" smooth="yes"/>
      <point x="274" y="600"/>
      <point x="306" y="629"/>
      <point x="306" y="675" type="curve" smooth="yes"/>
      <point x="306" y="721"/>
      <point x="274" y="750"/>
      <point x="234" y="750" type="curve" smooth="yes"/>
      <point x="195" y="750"/>
      <point x="162" y="721"/>
      <point x="162" y="675" type="curve" smooth="yes"/>
      <point x="162" y="629"/>
      <point x="195" y="600"/>
    </contour>
  </outline>
</glyph>
<glyph name="n" format="2">
  <advance width="560"/>
  <unicode hex="006E"/>
  <anchor x="280" y="0" name="bottom"/>
  <anchor x="280" y="582" name="top"/>
  <outline>
    <contour>
      <point x="80" y="0" type="line"/>
      <point x="172" y="0" type="line"/>
      <point x="172" y="439" type="line"/>
      <point x="204" y="445"/>
      <point x="239" y="449"/>
      <point x="269" y="449" type="curve" smooth="yes"/>
      <point x="342" y="449"/>
      <point x="392" y="421"/>
      <point x="392" y="288" type="curve" smooth="yes"/>
      <point x="392" y="0" type="line"/>
      <point x="484" y="0" type="line"/>
      <point x="484" y="305" type="line" smooth="yes"/>
      <point x="484" y="463"/>
      <point x="411" y="531"/>
      <point x="273" y="531" type="curve" smooth="yes"/>
      <point x="215" y="531"/>
      <point x="146" y="522"/>
      <point x="80" y="505" type="curve"/>
    </contour>
  </outline>
</glyph>
<glyph name="o" format="2">
  <advance width="560"/>
  <unicode hex="006F"/>
  <anchor x="280" y="0" name="bottom"/>
  <anchor x="280" y="291" name="center"/>
  <anchor x="504" y="11" name="ogonek"/>
  <anchor x="280" y="582" name="top"/>
  <anchor x="538" y="582" name="topright"/>
  <outline>
    <contour>
      <point x="279" y="-12" type="curve" smooth="yes"/>
      <point x="417" y="-12"/>
      <point x="515" y="96"/>
      <point x="515" y="260" type="curve" smooth="yes"/>
      <point x="515" y="424"/>
      <point x="417" y="532"/>
      <point x="279" y="532" type="curve" smooth="yes"/>
      <point x="143" y="532"/>
      <point x="45" y="424"/>
      <point x="45" y="260" type="curve" smooth="yes"/>
      <point x="45" y="96"/>
      <point x="143" y="-12"/>
    </contour>
    <contour>
      <point x="279" y="71" type="curve" smooth="yes"/>
      <point x="195" y="71"/>
      <point x="140" y="143"/>
      <point x="140" y="260" type="curve" smooth="yes"/>
      <point x="140" y="377"/>
      <point x="195" y="450"/>
      <point x="279" y="450" type="curve" smooth="yes"/>
      <point x="365" y="450"/>
      <point x="420" y="377"/>
      <point x="420" y="260" type="curve" smooth="yes"/>
      <point x="420" y="143"/>
      <point x="365" y="71"/>
    </contour>
  </outline>
</glyph>
<glyph name="p" format="2">
  <advance width="560"/>
  <unicode hex="0070"/>
  <anchor x="280" y="0" name="bottom"/>
  <anchor x="280" y="582" name="top"/>
  <outline>
    <contour>
      <point x="80" y="-185" type="line"/>
      <point x="172" y="-185" type="line"/>
      <point x="172" y="20" type="line"/>
      <point x="194" y="4"/>
      <point x="237" y="-12"/>
      <point x="292" y="-12" type="curve" smooth="yes"/>
      <point x="432" y="-12"/>
      <point x="515" y="101"/>
      <point x="515" y="259" type="curve" smooth="yes"/>
      <point x="515" y="427"/>
      <point x="416" y="531"/>
      <point x="267" y="531" type="curve" smooth="yes"/>
      <point x="185" y="531"/>
      <point x="120" y="515"/>
      <point x="80" y="504" type="curve"/>
    </contour>
    <contour>
      <point x="281" y="71" type="curve" smooth="yes"/>
      <point x="239" y="71"/>
      <point x="194" y="91"/>
      <point x="172" y="110" type="curve"/>
      <point x="172" y="438" type="line"/>
      <point x="188" y="444"/>
      <point x="216" y="449"/>
      <point x="267" y="449" type="curve" smooth="yes"/>
      <point x="357" y="449"/>
      <point x="420" y="380"/>
      <point x="420" y="259" type="curve" smooth="yes"/>
      <point x="420" y="152"/>
      <point x="379" y="71"/>
    </contour>
  </outline>
</glyph>
<glyph name="q" format="2">
  <advance width="560"/>
  <unicode hex="0071"/>
  <anchor x="280" y="0" name="bottom"/>
  <anchor x="280" y="582" name="top"/>
  <outline>
    <contour>
      <point x="388" y="-185" type="line"/>
      <point x="480" y="-185" type="line"/>
      <point x="480" y="503" type="line"/>
      <point x="438" y="514"/>
      <point x="374" y="531"/>
      <point x="295" y="531" type="curve" smooth="yes"/>
      <point x="144" y="531"/>
      <point x="45" y="427"/>
      <point x="45" y="259" type="curve" smooth="yes"/>
      <point x="45" y="101"/>
      <point x="130" y="-12"/>
      <point x="269" y="-12" type="curve" smooth="yes"/>
      <point x="321" y="-12"/>
      <point x="365" y="6"/>
      <point x="388" y="20" type="curve"/>
    </contour>
    <contour>
      <point x="280" y="71" type="curve" smooth="yes"/>
      <point x="183" y="71"/>
      <point x="140" y="152"/>
      <point x="140" y="259" type="curve" smooth="yes"/>
      <point x="140" y="380"/>
      <point x="204" y="449"/>
      <point x="295" y="449" type="curve" smooth="yes"/>
      <point x="345" y="449"/>
      <point x="373" y="444"/>
      <point x="389" y="438" type="curve"/>
      <point x="389" y="110" type="line"/>
      <point x="368" y="91"/>
      <point x="324" y="71"/>
    </contour>
  </outline>
</glyph>
<glyph name="s" format="2">
  <advance width="560"/>
  <unicode hex="0073"/>
  <anchor x="280" y="0" name="bottom"/>
  <anchor x="280" y="582" name="top"/>
  <outline>
    <contour>
      <point x="258" y="-12" type="curve" smooth="yes"/>
      <point x="416" y="-12"/>
      <point x="486" y="41"/>
      <point x="486" y="136" type="curve" smooth="yes"/>
      <point x="486" y="236"/>
      <point x="382" y="273"/>
      <point x="293" y="305" type="curve" smooth="yes"/>
      <point x="230" y="327"/>
      <point x="175" y="347"/>
      <point x="175" y="388" type="curve" smooth="yes"/>
      <point x="175" y="433"/>
      <point x="214" y="454"/>
      <point x="296" y="454" type="curve" smooth="yes"/>
      <point x="354" y="454"/>
      <point x="420" y="440"/>
      <point x="444" y="427" type="curve"/>
      <point x="460" y="510" type="line"/>
      <point x="417" y="523"/>
      <point x="352" y="532"/>
      <point x="295" y="532" type="curve" smooth="yes"/>
      <point x="150" y="532"/>
      <point x="84" y="469"/>
      <point x="84" y="385" type="curve" smooth="yes"/>
      <point x="84" y="289"/>
      <point x="175" y="255"/>
      <point x="258" y="226" type="curve" smooth="yes"/>
      <point x="328" y="203"/>
      <point x="393" y="181"/>
      <point x="393" y="130" type="curve" smooth="yes"/>
      <point x="393" y="86"/>
      <point x="351" y="66"/>
      <point x="267" y="66" type="curve" smooth="yes"/>
      <point x="202" y="66"/>
      <point x="144" y="84"/>
      <point x="92" y="108" type="curve"/>
      <point x="74" y="24" type="line"/>
      <point x="128" y="0"/>
      <point x="187" y="-12"/>
    </contour>
  </outline>
</glyph>
<glyph name="u" format="2">
  <advance width="560"/>
  <unicode hex="0075"/>
  <anchor x="280" y="0" name="bottom"/>
  <anchor x="504" y="11" name="ogonek"/>
  <anchor x="280" y="582" name="top"/>
  <anchor x="538" y="582" name="topright"/>
  <outline>
    <contour>
      <point x="283" y="-11" type="curve" smooth="yes"/>
      <point x="372" y="-11"/>
      <point x="440" y="4"/>
      <point x="480" y="15" type="curve"/>
      <point x="480" y="520" type="line"/>
      <point x="388" y="520" type="line"/>
      <point x="388" y="81" type="line"/>
      <point x="377" y="77"/>
      <point x="332" y="71"/>
      <point x="292" y="71" type="curve" smooth="yes"/>
      <point x="203" y="71"/>
      <point x="168" y="120"/>
      <point x="168" y="248" type="curve" smooth="yes"/>
      <point x="168" y="520" type="line"/>
      <point x="76" y="520" type="line"/>
      <point x="76" y="227" type="line" smooth="yes"/>
      <point x="76" y="87"/>
      <point x="127" y="-11"/>
    </contour>
  </outline>
</glyph>
<glyph name="v" format="2">
  <advance width="560"/>
  <unicode hex="0076"/>
  <anchor x="280" y="0" name="bottom"/>
  <anchor x="280" y="582" name="top"/>
  <outline>
    <contour>
      <point x="235" y="0" type="curve"/>
      <point x="319" y="0" type="line"/>
      <point x="388" y="140"/>
      <point x="472" y="327"/>
      <point x="526" y="520" type="curve"/>
      <point x="430" y="520" type="line"/>
      <point x="394" y="390"/>
      <point x="329" y="215"/>
      <point x="279" y="109" type="curve"/>
      <point x="228" y="215"/>
      <point x="170" y="390"/>
      <point x="134" y="520" type="curve"/>
      <point x="34" y="520" type="line"/>
      <point x="88" y="327"/>
      <point x="166" y="140"/>
    </contour>
  </outline>
</glyph>
<glyph name="w" format="2">
  <advance width="560"/>
  <unicode hex="0077"/>
  <anchor x="280" y="0" name="bottom"/>
  <anchor x="280" y="582" name="top"/>
  <outline>
    <contour>
      <point x="104" y="0" type="curve"/>
      <point x="174" y="0" type="line"/>
      <point x="220" y="103"/>
      <point x="239" y="158"/>
      <point x="280" y="276" type="curve"/>
      <point x="321" y="158"/>
      <point x="340" y="103"/>
      <point x="384" y="0" type="curve"/>
      <point x="454" y="0" type="line"/>
      <point x="494" y="171"/>
      <point x="525" y="372"/>
      <point x="539" y="520" type="curve"/>
      <point x="455" y="520" type="line"/>
      <point x="447" y="399"/>
      <point x="431" y="292"/>
      <point x="405" y="127" type="curve"/>
      <point x="362" y="244"/>
      <point x="347" y="295"/>
      <point x="317" y="400" type="curve"/>
      <point x="248" y="400" type="line"/>
      <point x="217" y="295"/>
      <point x="202" y="244"/>
      <point x="155" y="125" type="curve"/>
      <point x="130" y="306"/>
      <point x="116" y="402"/>
      <point x="109" y="520" type="curve"/>
      <point x="21" y="520" type="line"/>
      <point x="35" y="372"/>
      <point x="63" y="183"/>
    </contour>
  </outline>
</glyph>
<glyph name="x" format="2">
  <advance width="560"/>
  <unicode hex="0078"/>
  <anchor x="280" y="0" name="bottom"/>
  <anchor x="280" y="582" name="top"/>
  <outline>
    <contour>
      <point x="32" y="0" type="curve"/>
      <point x="128" y="0" type="line"/>
      <point x="160" y="57"/>
      <point x="227" y="147"/>
      <point x="282" y="214" type="curve"/>
      <point x="335" y="148"/>
      <point x="396" y="60"/>
      <point x="426" y="0" type="curve"/>
      <point x="529" y="0" type="line"/>
      <point x="480" y="92"/>
      <point x="407" y="192"/>
      <point x="340" y="279" type="curve"/>
      <point x="512" y="520" type="line"/>
      <point x="413" y="520" type="line"/>
      <point x="284" y="338" type="line"/>
      <point x="144" y="520" type="line"/>
      <point x="40" y="520" type="line"/>
      <point x="227" y="273" type="line"/>
      <point x="159" y="188"/>
      <point x="82" y="90"/>
    </contour>
  </outline>
</glyph>
<glyph name="y" format="2">
  <advance width="560"/>
  <unicode hex="0079"/>
  <anchor x="280" y="0" name="bottom"/>
  <anchor x="280" y="582" name="top"/>
  <outline>
    <contour>
      <point x="121" y="-188" type="curve" smooth="yes"/>
      <point x="231" y="-188"/>
      <point x="290" y="-136"/>
      <point x="342" y="-16" type="curve" smooth="yes"/>
      <point x="409" y="139"/>
      <point x="468" y="327"/>
      <point x="516" y="520" type="curve"/>
      <point x="420" y="520" type="line"/>
      <point x="381" y="362"/>
      <point x="352" y="239"/>
      <point x="302" y="100" type="curve"/>
      <point x="237" y="235"/>
      <point x="184" y="401"/>
      <point x="155" y="520" type="curve"/>
      <point x="54" y="520" type="line"/>
      <point x="102" y="339"/>
      <point x="179" y="151"/>
      <point x="262" y="-7" type="curve"/>
      <point x="228" y="-80"/>
      <point x="193" y="-110"/>
      <point x="120" y="-110" type="curve" smooth="yes"/>
      <point x="99" y="-110"/>
      <point x="71" y="-104"/>
      <point x="57" y="-97" type="curve"/>
      <point x="40" y="-172" type="line"/>
      <point x="52" y="-178"/>
      <point x="93" y="-188"/>
    </contour>
  </outline>
</glyph>
<glyph name="z" format="2">
  <advance width="560"/>
  <unicode hex="007A"/>
  <anchor x="280" y="0" name="bottom"/>
  <anchor x="280" y="291" name="center"/>
  <anchor x="280" y="582" name="top"/>
  <outline>
    <contour>
      <point x="82" y="0" type="line"/>
      <point x="478" y="0" type="line"/>
      <point x="478" y="78" type="line"/>
      <point x="193" y="78" type="line"/>
      <point x="273" y="214"/>
      <point x="416" y="389"/>
      <point x="470" y="450" type="curve"/>
      <point x="470" y="520" type="line"/>
      <point x="96" y="520" type="line"/>
      <point x="96" y="442" type="line"/>
      <point x="352" y="442" type="line"/>
      <point x="281" y="358"/>
      <point x="144" y="180"/>
      <point x="82" y="62" type="curve"/>
    </contour>
  </outline>
</glyph>
<glyph name="braceleft" format="2">
  <advance width="560"/>
  <unicode hex="007B"/>
  <outline>
    <contour>
      <point x="388" y="-185" type="curve" smooth="yes"/>
      <point x="478" y="-185" type="line"/>
      <point x="478" y="-112" type="line"/>
      <point x="384" y="-112" type="line" smooth="yes"/>
      <point x="321" y="-112"/>
      <point x="297" y="-87"/>
      <point x="297" y="-13" type="curve" smooth="yes"/>
      <point x="297" y="141" type="line" smooth="yes"/>
      <point x="297" y="235"/>
      <point x="262" y="281"/>
      <point x="223" y="299" type="curve"/>
      <point x="261" y="315"/>
      <point x="297" y="357"/>
      <point x="297" y="457" type="curve" smooth="yes"/>
      <point x="297" y="612" type="line" smooth="yes"/>
      <point x="297" y="685"/>
      <point x="321" y="710"/>
      <point x="383" y="710" type="curve" smooth="yes"/>
      <point x="478" y="710" type="line"/>
      <point x="478" y="783" type="line"/>
      <point x="388" y="783" type="line" smooth="yes"/>
      <point x="251" y="783"/>
      <point x="211" y="722"/>
      <point x="211" y="613" type="curve" smooth="yes"/>
      <point x="211" y="432" type="line" smooth="yes"/>
      <point x="211" y="385"/>
      <point x="184" y="335"/>
      <point x="133" y="335" type="curve" smooth="yes"/>
      <point x="88" y="335" type="line"/>
      <point x="88" y="263" type="line"/>
      <point x="134" y="263" type="line" smooth="yes"/>
      <point x="185" y="263"/>
      <point x="211" y="212"/>
      <point x="211" y="166" type="curve" smooth="yes"/>
      <point x="211" y="-15" type="line" smooth="yes"/>
      <point x="211" y="-124"/>
      <point x="251" y="-185"/>
    </contour>
  </outline>
</glyph>
<glyph name="exclamdown" format="2">
  <advance width="560"/>
  <unicode hex="00A1"/>
  <outline>
    <contour>
      <point x="228" y="-185" type="line"/>
      <point x="329" y="-185" type="line"/>
      <point x="329" y="3" type="line" smooth="yes"/>
      <point x="329" y="114"/>
      <point x="321" y="183"/>
      <point x="311" y="272" type="curve"/>
      <point x="248" y="272" type="line"/>
      <point x="237" y="183"/>
      <point x="228" y="114"/>
      <point x="228" y="3" type="curve" smooth="yes"/>
    </contour>
    <contour>
      <point x="279" y="370" type="curve" smooth="yes"/>
      <point x="320" y="370"/>
      <point x="354" y="399"/>
      <point x="354" y="445" type="curve" smooth="yes"/>
      <point x="354" y="491"/>
      <point x="320" y="521"/>
      <point x="279" y="521" type="curve" smooth="yes"/>
      <point x="239" y="521"/>
      <point x="204" y="491"/>
      <point x="204" y="445" type="curve" smooth="yes"/>
      <point x="204" y="399"/>
      <point x="239" y="370"/>
    </contour>
  </outline>
</glyph>
<glyph name="cent" format="2">
  <advance width="560"/>
  <unicode hex="00A2"/>
  <outline>
    <contour>
      <point x="282" y="-109" type="line"/>
      <point x="365" y="-109" type="line"/>
      <point x="365" y="30" type="line"/>
      <point x="416" y="32"/>
      <point x="459" y="39"/>
      <point x="504" y="56" type="curve"/>
      <point x="491" y="132" type="line"/>
      <point x="439" y="114"/>
      <point x="399" y="110"/>
      <point x="351" y="110" type="curve" smooth="yes"/>
      <point x="232" y="110"/>
      <point x="150" y="167"/>
      <point x="150" y="291" type="curve" smooth="yes"/>
      <point x="150" y="421"/>
      <point x="233" y="475"/>
      <point x="342" y="475" type="curve" smooth="yes"/>
      <point x="383" y="475"/>
      <point x="421" y="472"/>
      <point x="470" y="454" type="curve"/>
      <point x="491" y="531" type="line"/>
      <point x="445" y="545"/>
      <point x="405" y="552"/>
      <point x="365" y="554" type="curve"/>
      <point x="365" y="693" type="line"/>
      <point x="282" y="693" type="line"/>
      <point x="282" y="551" type="line"/>
      <point x="150" y="533"/>
      <point x="55" y="449"/>
      <point x="55" y="291" type="curve" smooth="yes"/>
      <point x="55" y="139"/>
      <point x="144" y="52"/>
      <point x="282" y="32" type="curve"/>
    </contour>
  </outline>
</glyph>
<glyph name="currency" format="2">
  <advance width="560"/>
  <unicode hex="00A4"/>
  <outline>
    <contour>
      <point x="100" y="109" type="line"/>
      <point x="174" y="183" type="line"/>
      <point x="205" y="164"/>
      <point x="241" y="155"/>
      <point x="280" y="155" type="curve" smooth="yes"/>
      <point x="318" y="155"/>
      <point x="353" y="164"/>
      <point x="385" y="183" type="curve"/>
      <point x="460" y="109" type="line"/>
      <point x="519" y="167" type="line"/>
      <point x="444" y="241" type="line"/>
      <point x="463" y="270"/>
      <point x="473" y="304"/>
      <point x="473" y="347" type="curve" smooth="yes"/>
      <point x="473" y="388"/>
      <point x="463" y="424"/>
      <point x="444" y="454" type="curve"/>
      <point x="519" y="528" type="line"/>
      <point x="460" y="585" type="line"/>
      <point x="385" y="510" type="line"/>
      <point x="354" y="529"/>
      <point x="319" y="539"/>
      <point x="280" y="539" type="curve" smooth="yes"/>
      <point x="241" y="539"/>
      <point x="205" y="529"/>
      <point x="174" y="510" type="curve"/>
      <point x="100" y="585" type="line"/>
      <point x="43" y="528" type="line"/>
      <point x="115" y="454" type="line"/>
      <point x="96" y="423"/>
      <point x="87" y="388"/>
      <point x="87" y="347" type="curve" smooth="yes"/>
      <point x="87" y="306"/>
      <point x="96" y="270"/>
      <point x="115" y="240" type="curve"/>
      <point x="43" y="167" type="line"/>
    </contour>
    <contour>
      <point x="280" y="223" type="curve" smooth="yes"/>
      <point x="216" y="223"/>
      <point x="162" y="271"/>
      <point x="162" y="347" type="curve" smooth="yes"/>
      <point x="162" y="423"/>
      <point x="216" y="472"/>
      <point x="280" y="472" type="curve" smooth="yes"/>
      <point x="344" y="472"/>
      <point x="398" y="423"/>
      <point x="398" y="347" type="curve" smooth="yes"/>
      <point x="398" y="271"/>
      <point x="344" y="223"/>
    </contour>
  </outline>
</glyph>
<glyph name="yen" format="2">
  <advance width="560"/>
  <unicode hex="00A5"/>
  <outline>
    <contour>
      <point x="235" y="0" type="line"/>
      <point x="327" y="0" type="line"/>
      <point x="327" y="106" type="line"/>
      <point x="488" y="106" type="line"/>
      <point x="488" y="177" type="line"/>
      <point x="327" y="177" type="line"/>
      <point x="327" y="279" type="line"/>
      <point x="488" y="279" type="line"/>
      <point x="488" y="351" type="line"/>
      <point x="351" y="351" type="line"/>
      <point x="423" y="466"/>
      <point x="487" y="582"/>
      <point x="547" y="693" type="curve"/>
      <point x="445" y="693" type="line"/>
      <point x="396" y="589"/>
      <point x="342" y="483"/>
      <point x="283" y="388" type="curve"/>
      <point x="223" y="483"/>
      <point x="165" y="589"/>
      <point x="116" y="693" type="curve"/>
      <point x="15" y="693" type="line"/>
      <point x="71" y="585"/>
      <point x="137" y="467"/>
      <point x="209" y="351" type="curve"/>
      <point x="73" y="351" type="line"/>
      <point x="73" y="279" type="line"/>
      <point x="235" y="279" type="line"/>
      <point x="235" y="177" type="line"/>
      <point x="73" y="177" type="line"/>
      <point x="73" y="106" type="line"/>
      <point x="235" y="106" type="line"/>
    </contour>
  </outline>
</glyph>
<glyph name="brokenbar" format="2">
  <advance width="560"/>
  <unicode hex="00A6"/>
  <outline>
    <contour>
      <point x="237" y="400" type="line"/>
      <point x="324" y="400" type="line"/>
      <point x="324" y="783" type="line"/>
      <point x="237" y="783" type="line"/>
    </contour>
    <contour>
      <point x="237" y="-185" type="line"/>
      <point x="324" y="-185" type="line"/>
      <point x="324" y="198" type="line"/>
      <point x="237" y="198" type="line"/>
    </contour>
  </outline>
</glyph>
<glyph name="section" format="2">
  <advance width="560"/>
  <unicode hex="00A7"/>
  <outline>
    <contour>
      <point x="258" y="-109" type="curve" smooth="yes"/>
      <point x="389" y="-109"/>
      <point x="463" y="-57"/>
      <point x="463" y="43" type="curve" smooth="yes"/>
      <point x="463" y="92"/>
      <point x="436" y="129"/>
      <point x="398" y="157" type="curve"/>
      <point x="437" y="181"/>
      <point x="483" y="234"/>
      <point x="483" y="300" type="curve" smooth="yes"/>
      <point x="483" y="407"/>
      <point x="402" y="444"/>
      <point x="305" y="476" type="curve" smooth="yes"/>
      <point x="230" y="501"/>
      <point x="199" y="521"/>
      <point x="199" y="567" type="curve" smooth="yes"/>
      <point x="199" y="612"/>
      <point x="243" y="633"/>
      <point x="295" y="633" type="curve" smooth="yes"/>
      <point x="364" y="633"/>
      <point x="408" y="616"/>
      <point x="440" y="604" type="curve"/>
      <point x="461" y="681" type="line"/>
      <point x="426" y="692"/>
      <point x="364" y="709"/>
      <point x="296" y="709" type="curve" smooth="yes"/>
      <point x="179" y="709"/>
      <point x="111" y="651"/>
      <point x="111" y="559" type="curve" smooth="yes"/>
      <point x="111" y="514"/>
      <point x="132" y="480"/>
      <point x="165" y="454" type="curve"/>
      <point x="125" y="429"/>
      <point x="76" y="379"/>
      <point x="76" y="309" type="curve" smooth="yes"/>
      <point x="76" y="202"/>
      <point x="157" y="166"/>
      <point x="254" y="133" type="curve" smooth="yes"/>
      <point x="339" y="105"/>
      <point x="372" y="84"/>
      <point x="372" y="37" type="curve" smooth="yes"/>
      <point x="372" y="-11"/>
      <point x="334" y="-32"/>
      <point x="259" y="-32" type="curve" smooth="yes"/>
      <point x="184" y="-32"/>
      <point x="141" y="-18"/>
      <point x="101" y="-1" type="curve"/>
      <point x="78" y="-75" type="line"/>
      <point x="113" y="-92"/>
      <point x="169" y="-109"/>
    </contour>
    <contour>
      <point x="333" y="192" type="curve"/>
      <point x="326" y="194"/>
      <point x="320" y="196"/>
      <point x="314" y="198" type="curve" smooth="yes"/>
      <point x="226" y="227"/>
      <point x="161" y="250"/>
      <point x="161" y="318" type="curve" smooth="yes"/>
      <point x="161" y="358"/>
      <point x="187" y="393"/>
      <point x="226" y="418" type="curve"/>
      <point x="235" y="414"/>
      <point x="244" y="411"/>
      <point x="253" y="408" type="curve" smooth="yes"/>
      <point x="330" y="379"/>
      <point x="398" y="360"/>
      <point x="398" y="291" type="curve" smooth="yes"/>
      <point x="398" y="250"/>
      <point x="372" y="216"/>
    </contour>
  </outline>
</glyph>
<glyph name="copyright" format="2">
  <advance width="560"/>
  <unicode hex="00A9"/>
  <outline>
    <contour>
      <point x="279" y="-12" type="curve" smooth="yes"/>
      <point x="399" y="-12"/>
      <point x="522" y="80"/>
      <point x="522" y="261" type="curve" smooth="yes"/>
      <point x="522" y="441"/>
      <point x="402" y="532"/>
      <point x="281" y="532" type="curve" smooth="yes"/>
      <point x="161" y="532"/>
      <point x="38" y="441"/>
      <point x="38" y="259" type="curve" smooth="yes"/>
      <point x="38" y="80"/>
      <point x="158" y="-12"/>
    </contour>
    <contour>
      <point x="287" y="116" type="curve" smooth="yes"/>
      <point x="311" y="116"/>
      <point x="342" y="122"/>
      <point x="366" y="134" type="curve"/>
      <point x="347" y="194" type="line"/>
      <point x="332" y="187"/>
      <point x="312" y="184"/>
      <point x="299" y="184" type="curve" smooth="yes"/>
      <point x="254" y="184"/>
      <point x="228" y="214"/>
      <point x="228" y="261" type="curve" smooth="yes"/>
      <point x="228" y="298"/>
      <point x="248" y="334"/>
      <point x="295" y="334" type="curve" smooth="yes"/>
      <point x="308" y="334"/>
      <point x="325" y="332"/>
      <point x="342" y="325" type="curve"/>
      <point x="364" y="385" type="line"/>
      <point x="338" y="396"/>
      <point x="311" y="400"/>
      <point x="288" y="400" type="curve" smooth="yes"/>
      <point x="199" y="400"/>
      <point x="159" y="328"/>
      <point x="159" y="256" type="curve" smooth="yes"/>
      <point x="159" y="186"/>
      <point x="200" y="116"/>
    </contour>
    <contour>
      <point x="280" y="48" type="curve" smooth="yes"/>
      <point x="192" y="48"/>
      <point x="103" y="119"/>
      <point x="103" y="261" type="curve" smooth="yes"/>
      <point x="103" y="400"/>
      <point x="192" y="472"/>
      <point x="280" y="472" type="curve" smooth="yes"/>
      <point x="368" y="472"/>
      <point x="457" y="401"/>
      <point x="457" y="259" type="curve" smooth="yes"/>
      <point x="457" y="120"/>
      <point x="370" y="48"/>
    </contour>
  </outline>
</glyph>
<glyph name="ordfeminine" format="2">
  <advance width="560"/>
  <unicode hex="00AA"/>
  <outline>
    <contour>
      <point x="283" y="329" type="curve" smooth="yes"/>
      <point x="338" y="329"/>
      <point x="398" y="336"/>
      <point x="430" y="343" type="curve"/>
      <point x="430" y="567" type="line" smooth="yes"/>
      <point x="430" y="651"/>
      <point x="392" y="706"/>
      <point x="283" y="706" type="curve" smooth="yes"/>
      <point x="240" y="706"/>
      <point x="196" y="698"/>
      <point x="171" y="691" type="curve"/>
      <point x="181" y="628" type="line"/>
      <point x="208" y="637"/>
      <point x="248" y="641"/>
      <point x="279" y="641" type="curve" smooth="yes"/>
      <point x="348" y="641"/>
      <point x="361" y="598"/>
      <point x="361" y="558" type="curve" smooth="yes"/>
      <point x="361" y="556" type="line"/>
      <point x="333" y="559"/>
      <point x="311" y="560"/>
      <point x="292" y="560" type="curve" smooth="yes"/>
      <point x="207" y="560"/>
      <point x="132" y="530"/>
      <point x="132" y="446" type="curve" smooth="yes"/>
      <point x="132" y="362"/>
      <point x="196" y="329"/>
    </contour>
    <contour>
      <point x="290" y="391" type="curve" smooth="yes"/>
      <point x="235" y="391"/>
      <point x="202" y="407"/>
      <point x="202" y="446" type="curve" smooth="yes"/>
      <point x="202" y="491"/>
      <point x="255" y="500"/>
      <point x="300" y="500" type="curve" smooth="yes"/>
      <point x="321" y="500"/>
      <point x="346" y="498"/>
      <point x="361" y="495" type="curve"/>
      <point x="361" y="395" type="line"/>
      <point x="354" y="392"/>
      <point x="319" y="391"/>
    </contour>
  </outline>
</glyph>
<glyph name="guillemotleft" format="2">
  <advance width="560"/>
  <unicode hex="00AB"/>
  <outline>
    <contour>
      <point x="202" y="88" type="line"/>
      <point x="258" y="123" type="line"/>
      <point x="168" y="284" type="line"/>
      <point x="262" y="451" type="line"/>
      <point x="204" y="482" type="line"/>
      <point x="71" y="284" type="line"/>
    </contour>
    <contour>
      <point x="403" y="88" type="line"/>
      <point x="459" y="123" type="line"/>
      <point x="370" y="284" type="line"/>
      <point x="463" y="451" type="line"/>
      <point x="405" y="482" type="line"/>
      <point x="271" y="284" type="line"/>
    </contour>
  </outline>
</glyph>
<glyph name="logicalnot" format="2">
  <advance width="560"/>
  <unicode hex="00AC"/>
  <outline>
    <contour>
      <point x="424" y="48" type="line"/>
      <point x="504" y="48" type="line"/>
      <point x="504" y="389" type="line"/>
      <point x="46" y="389" type="line"/>
      <point x="46" y="310" type="line"/>
      <point x="424" y="310" type="line"/>
    </contour>
  </outline>
</glyph>
<glyph name="registered" format="2">
  <advance width="560"/>
  <unicode hex="00AE"/>
  <outline>
    <contour>
      <point x="279" y="-12" type="curve" smooth="yes"/>
      <point x="399" y="-12"/>
      <point x="522" y="80"/>
      <point x="522" y="261" type="curve" smooth="yes"/>
      <point x="522" y="441"/>
      <point x="402" y="532"/>
      <point x="281" y="532" type="curve" smooth="yes"/>
      <point x="161" y="532"/>
      <point x="38" y="441"/>
      <point x="38" y="259" type="curve" smooth="yes"/>
      <point x="38" y="80"/>
      <point x="158" y="-12"/>
    </contour>
    <contour>
      <point x="280" y="48" type="curve" smooth="yes"/>
      <point x="192" y="48"/>
      <point x="103" y="119"/>
      <point x="103" y="261" type="curve" smooth="yes"/>
      <point x="103" y="400"/>
      <point x="192" y="472"/>
      <point x="280" y="472" type="curve" smooth="yes"/>
      <point x="368" y="472"/>
      <point x="457" y="401"/>
      <point x="457" y="259" type="curve" smooth="yes"/>
      <point x="457" y="120"/>
      <point x="370" y="48"/>
    </contour>
    <contour>
      <point x="186" y="123" type="line"/>
      <point x="246" y="123" type="line"/>
      <point x="246" y="209" type="line"/>
      <point x="287" y="209" type="line"/>
      <point x="301" y="186"/>
      <point x="316" y="159"/>
      <point x="335" y="123" type="curve"/>
      <point x="399" y="123" type="line"/>
      <point x="380" y="161"/>
      <point x="360" y="199"/>
      <point x="342" y="224" type="curve"/>
      <point x="371" y="241"/>
      <point x="386" y="267"/>
      <point x="386" y="304" type="curve" smooth="yes"/>
      <point x="386" y="365"/>
      <point x="346" y="400"/>
      <point x="261" y="400" type="curve" smooth="yes"/>
      <point x="233" y="400"/>
      <point x="206" y="395"/>
      <point x="186" y="390" type="curve"/>
    </contour>
    <contour>
      <point x="246" y="265" type="line"/>
      <point x="246" y="342" type="line"/>
      <point x="253" y="343"/>
      <point x="262" y="344"/>
      <point x="271" y="344" type="curve" smooth="yes"/>
      <point x="297" y="344"/>
      <point x="326" y="337"/>
      <point x="326" y="307" type="curve" smooth="yes"/>
      <point x="326" y="273"/>
      <point x="307" y="265"/>
      <point x="267" y="265" type="curve" smooth="yes"/>
    </contour>
  </outline>
</glyph>
<glyph name="macron" format="2">
  <advance width="560"/>
  <unicode hex="00AF"/>
  <outline>
    <contour>
      <point x="138" y="640" type="line"/>
      <point x="422" y="640" type="line"/>
      <point x="422" y="711" type="line"/>
      <point x="138" y="711" type="line"/>
    </contour>
  </outline>
</glyph>
<glyph name="degree" format="2">
  <advance width="560"/>
  <unicode hex="00B0"/>
  <outline>
    <contour>
      <point x="280" y="498" type="curve" smooth="yes"/>
      <point x="355" y="498"/>
      <point x="420" y="551"/>
      <point x="420" y="637" type="curve" smooth="yes"/>
      <point x="420" y="724"/>
      <point x="355" y="776"/>
      <point x="280" y="776" type="curve" smooth="yes"/>
      <point x="205" y="776"/>
      <point x="140" y="724"/>
      <point x="140" y="637" type="curve" smooth="yes"/>
      <point x="140" y="551"/>
      <point x="205" y="498"/>
    </contour>
    <contour>
      <point x="280" y="561" type="curve" smooth="yes"/>
      <point x="240" y="561"/>
      <point x="207" y="590"/>
      <point x="207" y="637" type="curve" smooth="yes"/>
      <point x="207" y="684"/>
      <point x="240" y="713"/>
      <point x="280" y="713" type="curve" smooth="yes"/>
      <point x="320" y="713"/>
      <point x="353" y="684"/>
      <point x="353" y="637" type="curve" smooth="yes"/>
      <point x="353" y="590"/>
      <point x="320" y="561"/>
    </contour>
  </outline>
</glyph>
<glyph name="plusminus" format="2">
  <advance width="560"/>
  <unicode hex="00B1"/>
  <outline>
    <contour>
      <point x="240" y="139" type="line"/>
      <point x="320" y="139" type="line"/>
      <point x="320" y="340" type="line"/>
      <point x="510" y="340" type="line"/>
      <point x="510" y="419" type="line"/>
      <point x="320" y="419" type="line"/>
      <point x="320" y="620" type="line"/>
      <point x="240" y="620" type="line"/>
      <point x="240" y="419" type="line"/>
      <point x="52" y="419" type="line"/>
      <point x="52" y="340" type="line"/>
      <point x="240" y="340" type="line"/>
    </contour>
    <contour>
      <point x="52" y="0" type="line"/>
      <point x="510" y="0" type="line"/>
      <point x="510" y="80" type="line"/>
      <point x="52" y="80" type="line"/>
    </contour>
  </outline>
</glyph>
<glyph name="twosuperior" format="2">
  <advance width="560"/>
  <unicode hex="00B2"/>
  <outline>
    <contour>
      <point x="155" y="315" type="curve"/>
      <point x="421" y="315" type="line"/>
      <point x="421" y="379" type="line"/>
      <point x="235" y="379" type="line"/>
      <point x="239" y="395"/>
      <point x="265" y="419"/>
      <point x="288" y="438" type="curve" smooth="yes"/>
      <point x="351" y="493"/>
      <point x="405" y="542"/>
      <point x="405" y="598" type="curve" smooth="yes"/>
      <point x="405" y="669"/>
      <point x="362" y="709"/>
      <point x="270" y="709" type="curve" smooth="yes"/>
      <point x="211" y="709"/>
      <point x="162" y="680"/>
      <point x="139" y="656" type="curve"/>
      <point x="175" y="607" type="line"/>
      <point x="189" y="618"/>
      <point x="225" y="646"/>
      <point x="270" y="646" type="curve" smooth="yes"/>
      <point x="309" y="646"/>
      <point x="332" y="631"/>
      <point x="332" y="596" type="curve" smooth="yes"/>
      <point x="332" y="564"/>
      <point x="300" y="533"/>
      <point x="255" y="494" type="curve" smooth="yes"/>
      <point x="200" y="447"/>
      <point x="147" y="403"/>
    </contour>
  </outline>
</glyph>
<glyph name="threesuperior" format="2">
  <advance width="560"/>
  <unicode hex="00B3"/>
  <outline>
    <contour>
      <point x="254" y="307" type="curve" smooth="yes"/>
      <point x="372" y="307"/>
      <point x="419" y="360"/>
      <point x="419" y="427" type="curve" smooth="yes"/>
      <point x="419" y="474"/>
      <point x="390" y="510"/>
      <point x="343" y="524" type="curve"/>
      <point x="380" y="545"/>
      <point x="398" y="571"/>
      <point x="398" y="604" type="curve" smooth="yes"/>
      <point x="398" y="665"/>
      <point x="361" y="709"/>
      <point x="264" y="709" type="curve" smooth="yes"/>
      <point x="220" y="709"/>
      <point x="168" y="690"/>
      <point x="147" y="675" type="curve"/>
      <point x="172" y="620" type="line"/>
      <point x="195" y="631"/>
      <point x="226" y="647"/>
      <point x="262" y="647" type="curve" smooth="yes"/>
      <point x="301" y="647"/>
      <point x="328" y="634"/>
      <point x="328" y="601" type="curve" smooth="yes"/>
      <point x="328" y="560"/>
      <point x="280" y="548"/>
      <point x="242" y="548" type="curve" smooth="yes"/>
      <point x="217" y="548" type="line"/>
      <point x="217" y="491" type="line"/>
      <point x="236" y="491" type="line" smooth="yes"/>
      <point x="293" y="491"/>
      <point x="346" y="473"/>
      <point x="346" y="428" type="curve" smooth="yes"/>
      <point x="346" y="393"/>
      <point x="324" y="370"/>
      <point x="253" y="370" type="curve" smooth="yes"/>
      <point x="218" y="370"/>
      <point x="185" y="379"/>
      <point x="156" y="390" type="curve"/>
      <point x="141" y="330" type="line"/>
      <point x="165" y="318"/>
      <point x="213" y="307"/>
    </contour>
  </outline>
</glyph>
<glyph name="acute" format="2">
  <advance width="560"/>
  <unicode hex="00B4"/>
  <outline>
    <contour>
      <point x="237" y="580" type="line"/>
      <point x="379" y="717" type="line"/>
      <point x="318" y="776" type="line"/>
      <point x="190" y="622" type="line"/>
    </contour>
  </outline>
</glyph>
<glyph name="mu" format="2">
  <advance width="560"/>
  <unicode hex="00B5"/>
  <outline>
    <contour>
      <point x="80" y="-185" type="line"/>
      <point x="172" y="-185" type="line"/>
      <point x="172" y="-82" type="line" smooth="yes"/>
      <point x="172" y="-44"/>
      <point x="172" y="-9"/>
      <point x="168" y="25" type="curve"/>
      <point x="193" y="2"/>
      <point x="223" y="-12"/>
      <point x="283" y="-12" type="curve" smooth="yes"/>
      <point x="372" y="-12"/>
      <point x="440" y="4"/>
      <point x="480" y="15" type="curve"/>
      <point x="480" y="520" type="line"/>
      <point x="388" y="520" type="line"/>
      <point x="388" y="80" type="line"/>
      <point x="377" y="76"/>
      <point x="332" y="71"/>
      <point x="292" y="71" type="curve" smooth="yes"/>
      <point x="203" y="71"/>
      <point x="172" y="120"/>
      <point x="172" y="248" type="curve" smooth="yes"/>
      <point x="172" y="520" type="line"/>
      <point x="80" y="520" type="line"/>
    </contour>
  </outline>
</glyph>
<glyph name="paragraph" format="2">
  <advance width="560"/>
  <unicode hex="00B6"/>
  <outline>
    <contour>
      <point x="248" y="-185" type="line"/>
      <point x="325" y="-185" type="line"/>
      <point x="325" y="622" type="line"/>
      <point x="356" y="625"/>
      <point x="390" y="624"/>
      <point x="422" y="619" type="curve"/>
      <point x="422" y="-185" type="line"/>
      <point x="501" y="-185" type="line"/>
      <point x="501" y="682" type="line"/>
      <point x="447" y="697"/>
      <point x="383" y="700"/>
      <point x="332" y="700" type="curve" smooth="yes"/>
      <point x="147" y="700"/>
      <point x="31" y="625"/>
      <point x="31" y="479" type="curve" smooth="yes"/>
      <point x="31" y="343"/>
      <point x="110" y="277"/>
      <point x="248" y="262" type="curve"/>
    </contour>
  </outline>
</glyph>
<glyph name="cedilla" format="2">
  <advance width="560"/>
  <unicode hex="00B8"/>
  <outline>
    <contour>
      <point x="258" y="-189" type="curve" smooth="yes"/>
      <point x="335" y="-189"/>
      <point x="360" y="-146"/>
      <point x="360" y="-116" type="curve" smooth="yes"/>
      <point x="360" y="-74"/>
      <point x="343" y="-55"/>
      <point x="305" y="-37" type="curve"/>
      <point x="312" y="-21"/>
      <point x="326" y="3"/>
      <point x="334" y="20" type="curve"/>
      <point x="270" y="20" type="line"/>
      <point x="263" y="8"/>
      <point x="239" y="-43"/>
      <point x="228" y="-69" type="curve"/>
      <point x="236" y="-72" type="line" smooth="yes"/>
      <point x="263" y="-80"/>
      <point x="278" y="-91"/>
      <point x="278" y="-106" type="curve" smooth="yes"/>
      <point x="278" y="-120"/>
      <point x="267" y="-129"/>
      <point x="242" y="-129" type="curve" smooth="yes"/>
      <point x="220" y="-129"/>
      <point x="202" y="-124"/>
      <point x="186" y="-119" type="curve"/>
      <point x="175" y="-176" type="line"/>
      <point x="192" y="-183"/>
      <point x="223" y="-189"/>
    </contour>
  </outline>
</glyph>
<glyph name="onesuperior" format="2">
  <advance width="560"/>
  <unicode hex="00B9"/>
  <outline>
    <contour>
      <point x="149" y="315" type="line"/>
      <point x="429" y="315" type="line"/>
      <point x="429" y="379" type="line"/>
      <point x="329" y="379" type="line"/>
      <point x="329" y="701" type="line"/>
      <point x="280" y="701" type="line"/>
      <point x="244" y="666"/>
      <point x="192" y="638"/>
      <point x="141" y="622" type="curve"/>
      <point x="160" y="567" type="line"/>
      <point x="187" y="575"/>
      <point x="230" y="590"/>
      <point x="259" y="609" type="curve"/>
      <point x="259" y="379" type="line"/>
      <point x="149" y="379" type="line"/>
    </contour>
  </outline>
</glyph>
<glyph name="ordmasculine" format="2">
  <advance width="560"/>
  <unicode hex="00BA"/>
  <outline>
    <contour>
      <point x="280" y="328" type="curve" smooth="yes"/>
      <point x="384" y="328"/>
      <point x="460" y="403"/>
      <point x="460" y="519" type="curve" smooth="yes"/>
      <point x="460" y="634"/>
      <point x="384" y="708"/>
      <point x="280" y="708" type="curve" smooth="yes"/>
      <point x="176" y="708"/>
      <point x="100" y="634"/>
      <point x="100" y="519" type="curve" smooth="yes"/>
      <point x="100" y="403"/>
      <point x="176" y="328"/>
    </contour>
    <contour>
      <point x="280" y="395" type="curve" smooth="yes"/>
      <point x="212" y="395"/>
      <point x="174" y="445"/>
      <point x="174" y="519" type="curve" smooth="yes"/>
      <point x="174" y="594"/>
      <point x="213" y="641"/>
      <point x="280" y="641" type="curve" smooth="yes"/>
      <point x="348" y="641"/>
      <point x="386" y="594"/>
      <point x="386" y="519" type="curve" smooth="yes"/>
      <point x="386" y="445"/>
      <point x="348" y="395"/>
    </contour>
  </outline>
</glyph>
<glyph name="guillemotright" format="2">
  <advance width="560"/>
  <unicode hex="00BB"/>
  <outline>
    <contour>
      <point x="153" y="88" type="line"/>
      <point x="287" y="286" type="line"/>
      <point x="155" y="482" type="line"/>
      <point x="99" y="447" type="line"/>
      <point x="189" y="286" type="line"/>
      <point x="95" y="119" type="line"/>
    </contour>
    <contour>
      <point x="355" y="88" type="line"/>
      <point x="489" y="286" type="line"/>
      <point x="357" y="482" type="line"/>
      <point x="301" y="447" type="line"/>
      <point x="391" y="286" type="line"/>
      <point x="297" y="119" type="line"/>
    </contour>
  </outline>
</glyph>
<glyph name="onequarter" format="2">
  <advance width="560"/>
  <unicode hex="00BC"/>
  <outline>
    <contour>
      <point x="28" y="-4" type="line"/>
      <point x="106" y="-4" type="line"/>
      <point x="531" y="689" type="line"/>
      <point x="452" y="689" type="line"/>
    </contour>
    <contour>
      <point x="428" y="0" type="line"/>
      <point x="494" y="0" type="line"/>
      <point x="494" y="54" type="line"/>
      <point x="534" y="54" type="line"/>
      <point x="534" y="110" type="line"/>
      <point x="494" y="110" type="line"/>
      <point x="494" y="280" type="line"/>
      <point x="401" y="280" type="line"/>
      <point x="355" y="221"/>
      <point x="323" y="168"/>
      <point x="283" y="100" type="curve"/>
      <point x="283" y="54" type="line"/>
      <point x="428" y="54" type="line"/>
    </contour>
    <contour>
      <point x="349" y="110" type="line"/>
      <point x="372" y="149"/>
      <point x="396" y="192"/>
      <point x="428" y="232" type="curve"/>
      <point x="428" y="110" type="line"/>
    </contour>
    <contour>
      <point x="118" y="421" type="line"/>
      <point x="184" y="421" type="line"/>
      <point x="184" y="701" type="line"/>
      <point x="139" y="701" type="line"/>
      <point x="103" y="668"/>
      <point x="71" y="650"/>
      <point x="20" y="628" type="curve"/>
      <point x="39" y="575" type="line"/>
      <point x="66" y="584"/>
      <point x="88" y="592"/>
      <point x="118" y="609" type="curve"/>
    </contour>
  </outline>
</glyph>
<glyph name="onehalf" format="2">
  <advance width="560"/>
  <unicode hex="00BD"/>
  <outline>
    <contour>
      <point x="19" y="0" type="line"/>
      <point x="97" y="0" type="line"/>
      <point x="522" y="693" type="line"/>
      <point x="444" y="693" type="line"/>
    </contour>
    <contour>
      <point x="319" y="0" type="curve"/>
      <point x="540" y="0" type="line"/>
      <point x="540" y="56" type="line"/>
      <point x="399" y="56" type="line"/>
      <point x="439" y="93"/>
      <point x="530" y="121"/>
      <point x="530" y="198" type="curve" smooth="yes"/>
      <point x="530" y="246"/>
      <point x="494" y="290"/>
      <point x="424" y="290" type="curve" smooth="yes"/>
      <point x="385" y="290"/>
      <point x="344" y="276"/>
      <point x="318" y="248" type="curve"/>
      <point x="354" y="203" type="line"/>
      <point x="372" y="222"/>
      <point x="398" y="232"/>
      <point x="420" y="232" type="curve" smooth="yes"/>
      <point x="444" y="232"/>
      <point x="464" y="220"/>
      <point x="464" y="195" type="curve" smooth="yes"/>
      <point x="464" y="174"/>
      <point x="452" y="157"/>
      <point x="417" y="136" type="curve"/>
      <point x="392" y="119" type="line"/>
      <point x="354" y="95"/>
      <point x="318" y="74"/>
      <point x="318" y="26" type="curve" smooth="yes"/>
      <point x="318" y="21"/>
      <point x="318" y="4"/>
    </contour>
    <contour>
      <point x="125" y="421" type="line"/>
      <point x="192" y="421" type="line"/>
      <point x="192" y="701" type="line"/>
      <point x="146" y="701" type="line"/>
      <point x="110" y="668"/>
      <point x="78" y="650"/>
      <point x="27" y="628" type="curve"/>
      <point x="46" y="575" type="line"/>
      <point x="73" y="584"/>
      <point x="96" y="592"/>
      <point x="125" y="609" type="curve"/>
    </contour>
  </outline>
</glyph>
<glyph name="threequarters" format="2">
  <advance width="560"/>
  <unicode hex="00BE"/>
  <outline>
    <contour>
      <point x="34" y="0" type="line"/>
      <point x="112" y="0" type="line"/>
      <point x="536" y="693" type="line"/>
      <point x="458" y="693" type="line"/>
    </contour>
    <contour>
      <point x="428" y="0" type="line"/>
      <point x="494" y="0" type="line"/>
      <point x="494" y="54" type="line"/>
      <point x="534" y="54" type="line"/>
      <point x="534" y="110" type="line"/>
      <point x="494" y="110" type="line"/>
      <point x="494" y="280" type="line"/>
      <point x="401" y="280" type="line"/>
      <point x="355" y="221"/>
      <point x="323" y="168"/>
      <point x="283" y="100" type="curve"/>
      <point x="283" y="54" type="line"/>
      <point x="428" y="54" type="line"/>
    </contour>
    <contour>
      <point x="349" y="110" type="line"/>
      <point x="372" y="149"/>
      <point x="396" y="192"/>
      <point x="428" y="232" type="curve"/>
      <point x="428" y="110" type="line"/>
    </contour>
    <contour>
      <point x="116" y="411" type="curve" smooth="yes"/>
      <point x="206" y="411"/>
      <point x="240" y="458"/>
      <point x="240" y="501" type="curve" smooth="yes"/>
      <point x="240" y="534"/>
      <point x="223" y="559"/>
      <point x="192" y="573" type="curve"/>
      <point x="215" y="590"/>
      <point x="226" y="614"/>
      <point x="226" y="636" type="curve" smooth="yes"/>
      <point x="226" y="690"/>
      <point x="177" y="709"/>
      <point x="127" y="709" type="curve" smooth="yes"/>
      <point x="88" y="709"/>
      <point x="48" y="698"/>
      <point x="26" y="684" type="curve"/>
      <point x="47" y="636" type="line"/>
      <point x="65" y="644"/>
      <point x="95" y="653"/>
      <point x="116" y="653" type="curve" smooth="yes"/>
      <point x="138" y="653"/>
      <point x="160" y="648"/>
      <point x="160" y="626" type="curve" smooth="yes"/>
      <point x="160" y="599"/>
      <point x="138" y="594"/>
      <point x="100" y="594" type="curve" smooth="yes"/>
      <point x="75" y="594" type="line"/>
      <point x="75" y="538" type="line"/>
      <point x="88" y="538" type="line" smooth="yes"/>
      <point x="144" y="538"/>
      <point x="174" y="532"/>
      <point x="174" y="501" type="curve" smooth="yes"/>
      <point x="174" y="476"/>
      <point x="144" y="467"/>
      <point x="112" y="467" type="curve" smooth="yes"/>
      <point x="82" y="467"/>
      <point x="56" y="475"/>
      <point x="40" y="482" type="curve"/>
      <point x="24" y="427" type="line"/>
      <point x="50" y="417"/>
      <point x="84" y="411"/>
    </contour>
  </outline>
</glyph>
<glyph name="questiondown" format="2">
  <advance width="560"/>
  <unicode hex="00BF"/>
  <outline>
    <contour>
      <point x="292" y="-190" type="curve" smooth="yes"/>
      <point x="356" y="-190"/>
      <point x="414" y="-174"/>
      <point x="459" y="-150" type="curve"/>
      <point x="433" y="-78" type="line"/>
      <point x="391" y="-101"/>
      <point x="348" y="-112"/>
      <point x="304" y="-112" type="curve" smooth="yes"/>
      <point x="235" y="-112"/>
      <point x="198" y="-74"/>
      <point x="198" y="-18" type="curve" smooth="yes"/>
      <point x="198" y="25"/>
      <point x="223" y="55"/>
      <point x="254" y="85" type="curve" smooth="yes"/>
      <point x="299" y="130"/>
      <point x="356" y="172"/>
      <point x="356" y="250" type="curve"/>
      <point x="356" y="258"/>
      <point x="355" y="264"/>
      <point x="355" y="272" type="curve"/>
      <point x="276" y="272" type="line"/>
      <point x="276" y="211"/>
      <point x="237" y="171"/>
      <point x="198" y="132" type="curve" smooth="yes"/>
      <point x="152" y="88"/>
      <point x="103" y="46"/>
      <point x="103" y="-26" type="curve" smooth="yes"/>
      <point x="103" y="-99"/>
      <point x="141" y="-190"/>
    </contour>
    <contour>
      <point x="307" y="370" type="curve" smooth="yes"/>
      <point x="348" y="370"/>
      <point x="382" y="399"/>
      <point x="382" y="445" type="curve" smooth="yes"/>
      <point x="382" y="491"/>
      <point x="348" y="521"/>
      <point x="307" y="521" type="curve" smooth="yes"/>
      <point x="267" y="521"/>
      <point x="232" y="491"/>
      <point x="232" y="445" type="curve" smooth="yes"/>
      <point x="232" y="399"/>
      <point x="267" y="370"/>
    </contour>
  </outline>
</glyph>
<glyph name="Aring" format="2">
  <advance width="560"/>
  <unicode hex="00C5"/>
  <outline>
    <contour>
      <point x="10" y="0" type="curve"/>
      <point x="104" y="0" type="line"/>
      <point x="144" y="181" type="line"/>
      <point x="411" y="181" type="line"/>
      <point x="452" y="0" type="line"/>
      <point x="550" y="0" type="line"/>
      <point x="501" y="186"/>
      <point x="423" y="482"/>
      <point x="347" y="657" type="curve"/>
      <point x="367" y="674"/>
      <point x="384" y="704"/>
      <point x="384" y="737" type="curve" smooth="yes"/>
      <point x="384" y="800"/>
      <point x="336" y="839"/>
      <point x="281" y="839" type="curve" smooth="yes"/>
      <point x="226" y="839"/>
      <point x="178" y="800"/>
      <point x="178" y="737" type="curve" smooth="yes"/>
      <point x="178" y="703"/>
      <point x="195" y="674"/>
      <point x="216" y="656" type="curve"/>
      <point x="140" y="482"/>
      <point x="59" y="187"/>
    </contour>
    <contour>
      <point x="166" y="258" type="line"/>
      <point x="202" y="389"/>
      <point x="245" y="520"/>
      <point x="279" y="613" type="curve"/>
      <point x="312" y="524"/>
      <point x="355" y="391"/>
      <point x="390" y="258" type="curve"/>
    </contour>
    <contour>
      <point x="281" y="682" type="curve" smooth="yes"/>
      <point x="252" y="682"/>
      <point x="228" y="702"/>
      <point x="228" y="737" type="curve" smooth="yes"/>
      <point x="228" y="772"/>
      <point x="252" y="792"/>
      <point x="281" y="792" type="curve" smooth="yes"/>
      <point x="310" y="792"/>
      <point x="334" y="772"/>
      <point x="334" y="737" type="curve" smooth="yes"/>
      <point x="334" y="702"/>
      <point x="310" y="682"/>
    </contour>
  </outline>
</glyph>
<glyph name="Ccedilla" format="2">
  <advance width="560"/>
  <unicode hex="00C7"/>
  <outline>
    <contour>
      <point x="308" y="-189" type="curve" smooth="yes"/>
      <point x="385" y="-189"/>
      <point x="410" y="-146"/>
      <point x="410" y="-116" type="curve" smooth="yes"/>
      <point x="410" y="-74"/>
      <point x="393" y="-55"/>
      <point x="355" y="-37" type="curve"/>
      <point x="367" y="-13" type="line"/>
      <point x="422" y="-10"/>
      <point x="470" y="3"/>
      <point x="515" y="29" type="curve"/>
      <point x="491" y="105" type="line"/>
      <point x="440" y="77"/>
      <point x="392" y="67"/>
      <point x="348" y="67" type="curve" smooth="yes"/>
      <point x="231" y="67"/>
      <point x="146" y="157"/>
      <point x="146" y="347" type="curve" smooth="yes"/>
      <point x="146" y="517"/>
      <point x="222" y="627"/>
      <point x="344" y="627" type="curve" smooth="yes"/>
      <point x="386" y="627"/>
      <point x="432" y="614"/>
      <point x="483" y="585" type="curve"/>
      <point x="510" y="661" type="line"/>
      <point x="455" y="694"/>
      <point x="395" y="709"/>
      <point x="340" y="709" type="curve" smooth="yes"/>
      <point x="183" y="709"/>
      <point x="52" y="582"/>
      <point x="52" y="347" type="curve" smooth="yes"/>
      <point x="52" y="116"/>
      <point x="157" y="2"/>
      <point x="304" y="-12" type="curve"/>
      <point x="295" y="-31"/>
      <point x="284" y="-54"/>
      <point x="279" y="-69" type="curve"/>
      <point x="287" y="-72" type="line" smooth="yes"/>
      <point x="314" y="-80"/>
      <point x="328" y="-91"/>
      <point x="328" y="-106" type="curve" smooth="yes"/>
      <point x="328" y="-120"/>
      <point x="317" y="-129"/>
      <point x="292" y="-129" type="curve" smooth="yes"/>
      <point x="270" y="-129"/>
      <point x="252" y="-124"/>
      <point x="236" y="-119" type="curve"/>
      <point x="225" y="-176" type="line"/>
      <point x="242" y="-183"/>
      <point x="273" y="-189"/>
    </contour>
  </outline>
</glyph>
<glyph name="Eth" format="2">
  <advance width="560"/>
  <unicode hex="00D0"/>
  <outline>
    <contour>
      <point x="216" y="-6" type="curve" smooth="yes"/>
      <point x="386" y="-6"/>
      <point x="515" y="91"/>
      <point x="515" y="347" type="curve" smooth="yes"/>
      <point x="515" y="603"/>
      <point x="386" y="700"/>
      <point x="216" y="700" type="curve" smooth="yes"/>
      <point x="171" y="700"/>
      <point x="125" y="694"/>
      <point x="80" y="683" type="curve"/>
      <point x="80" y="398" type="line"/>
      <point x="20" y="398" type="line"/>
      <point x="20" y="326" type="line"/>
      <point x="80" y="326" type="line"/>
      <point x="80" y="11" type="line"/>
      <point x="125" y="0"/>
      <point x="171" y="-6"/>
    </contour>
    <contour>
      <point x="224" y="74" type="curve" smooth="yes"/>
      <point x="208" y="74"/>
      <point x="189" y="75"/>
      <point x="172" y="77" type="curve"/>
      <point x="172" y="326" type="line"/>
      <point x="282" y="326" type="line"/>
      <point x="282" y="398" type="line"/>
      <point x="172" y="398" type="line"/>
      <point x="172" y="617" type="line"/>
      <point x="186" y="619"/>
      <point x="204" y="620"/>
      <point x="221" y="620" type="curve" smooth="yes"/>
      <point x="352" y="620"/>
      <point x="421" y="534"/>
      <point x="421" y="347" type="curve" smooth="yes"/>
      <point x="421" y="152"/>
      <point x="349" y="74"/>
    </contour>
  </outline>
</glyph>
<glyph name="Oslash" format="2">
  <advance width="560"/>
  <unicode hex="00D8"/>
  <anchor x="280" y="0" name="bottom"/>
  <anchor x="280" y="776" name="top"/>
  <outline>
    <contour>
      <point x="133" y="-37" type="line"/>
      <point x="159" y="17" type="line"/>
      <point x="194" y="-4"/>
      <point x="235" y="-15"/>
      <point x="280" y="-15" type="curve" smooth="yes"/>
      <point x="427" y="-15"/>
      <point x="529" y="99"/>
      <point x="529" y="347" type="curve" smooth="yes"/>
      <point x="529" y="474"/>
      <point x="501" y="566"/>
      <point x="455" y="626" type="curve"/>
      <point x="488" y="694" type="line"/>
      <point x="419" y="729" type="line"/>
      <point x="395" y="679" type="line"/>
      <point x="361" y="699"/>
      <point x="323" y="709"/>
      <point x="280" y="709" type="curve" smooth="yes"/>
      <point x="132" y="709"/>
      <point x="32" y="595"/>
      <point x="32" y="347" type="curve" smooth="yes"/>
      <point x="32" y="222"/>
      <point x="56" y="131"/>
      <point x="101" y="72" type="curve"/>
      <point x="65" y="-2" type="line"/>
    </contour>
    <contour>
      <point x="278" y="65" type="curve" smooth="yes"/>
      <point x="248" y="65"/>
      <point x="217" y="72"/>
      <point x="195" y="91" type="curve"/>
      <point x="409" y="532" type="line"/>
      <point x="427" y="486"/>
      <point x="435" y="421"/>
      <point x="435" y="347" type="curve" smooth="yes"/>
      <point x="435" y="166"/>
      <point x="382" y="65"/>
    </contour>
    <contour>
      <point x="146" y="166" type="line"/>
      <point x="130" y="212"/>
      <point x="127" y="276"/>
      <point x="127" y="347" type="curve" smooth="yes"/>
      <point x="127" y="529"/>
      <point x="175" y="629"/>
      <point x="278" y="629" type="curve" smooth="yes"/>
      <point x="309" y="629"/>
      <point x="336" y="623"/>
      <point x="358" y="605" type="curve"/>
    </contour>
  </outline>
</glyph>
<glyph name="ae" format="2">
  <advance width="560"/>
  <unicode hex="00E6"/>
  <anchor x="280" y="0" name="bottom"/>
  <anchor x="280" y="582" name="top"/>
  <outline>
    <contour>
      <point x="181" y="-12" type="curve" smooth="yes"/>
      <point x="224" y="-12"/>
      <point x="267" y="2"/>
      <point x="307" y="36" type="curve"/>
      <point x="335" y="6"/>
      <point x="373" y="-12"/>
      <point x="422" y="-12" type="curve" smooth="yes"/>
      <point x="463" y="-12"/>
      <point x="508" y="4"/>
      <point x="521" y="17" type="curve"/>
      <point x="508" y="95" type="line"/>
      <point x="480" y="78"/>
      <point x="455" y="71"/>
      <point x="431" y="71" type="curve" smooth="yes"/>
      <point x="371" y="71"/>
      <point x="327" y="129"/>
      <point x="327" y="235" type="curve"/>
      <point x="534" y="235" type="line"/>
      <point x="535" y="245"/>
      <point x="535" y="260"/>
      <point x="535" y="268" type="curve" smooth="yes"/>
      <point x="535" y="442"/>
      <point x="487" y="532"/>
      <point x="391" y="532" type="curve" smooth="yes"/>
      <point x="353" y="532"/>
      <point x="320" y="505"/>
      <point x="297" y="460" type="curve"/>
      <point x="274" y="505"/>
      <point x="233" y="532"/>
      <point x="168" y="532" type="curve" smooth="yes"/>
      <point x="130" y="532"/>
      <point x="83" y="521"/>
      <point x="69" y="510" type="curve"/>
      <point x="80" y="433" type="line"/>
      <point x="92" y="442"/>
      <point x="128" y="454"/>
      <point x="160" y="454" type="curve" smooth="yes"/>
      <point x="217" y="454"/>
      <point x="243" y="399"/>
      <point x="243" y="329" type="curve" smooth="yes"/>
      <point x="243" y="304" type="line"/>
      <point x="225" y="312"/>
      <point x="202" y="316"/>
      <point x="184" y="316" type="curve" smooth="yes"/>
      <point x="86" y="316"/>
      <point x="35" y="242"/>
      <point x="35" y="148" type="curve" smooth="yes"/>
      <point x="35" y="68"/>
      <point x="83" y="-12"/>
    </contour>
    <contour>
      <point x="189" y="66" type="curve" smooth="yes"/>
      <point x="142" y="66"/>
      <point x="119" y="109"/>
      <point x="119" y="153" type="curve" smooth="yes"/>
      <point x="119" y="207"/>
      <point x="143" y="241"/>
      <point x="193" y="241" type="curve" smooth="yes"/>
      <point x="211" y="241"/>
      <point x="225" y="236"/>
      <point x="240" y="228" type="curve"/>
      <point x="243" y="180"/>
      <point x="252" y="136"/>
      <point x="268" y="99" type="curve"/>
      <point x="248" y="80"/>
      <point x="215" y="66"/>
    </contour>
    <contour>
      <point x="329" y="310" type="line"/>
      <point x="329" y="416"/>
      <point x="362" y="454"/>
      <point x="395" y="454" type="curve" smooth="yes"/>
      <point x="420" y="454"/>
      <point x="451" y="421"/>
      <point x="451" y="310" type="curve"/>
    </contour>
  </outline>
</glyph>
<glyph name="eth" format="2">
  <advance width="560"/>
  <unicode hex="00F0"/>
  <anchor x="280" y="0" name="bottom"/>
  <anchor x="280" y="869" name="top"/>
  <outline>
    <contour>
      <point x="264" y="-12" type="curve" smooth="yes"/>
      <point x="441" y="-12"/>
      <point x="484" y="160"/>
      <point x="484" y="307" type="curve" smooth="yes"/>
      <point x="484" y="440"/>
      <point x="451" y="548"/>
      <point x="408" y="620" type="curve"/>
      <point x="515" y="657" type="line"/>
      <point x="492" y="720" type="line"/>
      <point x="368" y="678" type="line"/>
      <point x="329" y="725"/>
      <point x="289" y="757"/>
      <point x="260" y="776" type="curve"/>
      <point x="208" y="722" type="line"/>
      <point x="242" y="697"/>
      <point x="263" y="675"/>
      <point x="286" y="650" type="curve"/>
      <point x="183" y="614" type="line"/>
      <point x="206" y="551" type="line"/>
      <point x="326" y="592" type="line"/>
      <point x="355" y="547"/>
      <point x="377" y="497"/>
      <point x="385" y="444" type="curve"/>
      <point x="365" y="463"/>
      <point x="318" y="491"/>
      <point x="262" y="491" type="curve" smooth="yes"/>
      <point x="139" y="491"/>
      <point x="62" y="398"/>
      <point x="62" y="228" type="curve" smooth="yes"/>
      <point x="62" y="113"/>
      <point x="129" y="-12"/>
    </contour>
    <contour>
      <point x="264" y="66" type="curve" smooth="yes"/>
      <point x="193" y="66"/>
      <point x="153" y="144"/>
      <point x="153" y="232" type="curve" smooth="yes"/>
      <point x="153" y="338"/>
      <point x="190" y="412"/>
      <point x="274" y="412" type="curve" smooth="yes"/>
      <point x="309" y="412"/>
      <point x="355" y="398"/>
      <point x="392" y="357" type="curve"/>
      <point x="392" y="346"/>
      <point x="393" y="336"/>
      <point x="393" y="304" type="curve" smooth="yes"/>
      <point x="393" y="186"/>
      <point x="366" y="66"/>
    </contour>
  </outline>
</glyph>
<glyph name="divide" format="2">
  <advance width="560"/>
  <unicode hex="00F7"/>
  <outline>
    <contour>
      <point x="52" y="255" type="line"/>
      <point x="510" y="255" type="line"/>
      <point x="510" y="334" type="line"/>
      <point x="52" y="334" type="line"/>
    </contour>
    <contour>
      <point x="280" y="40" type="curve" smooth="yes"/>
      <point x="319" y="40"/>
      <point x="345" y="72"/>
      <point x="345" y="108" type="curve" smooth="yes"/>
      <point x="345" y="144"/>
      <point x="319" y="177"/>
      <point x="280" y="177" type="curve" smooth="yes"/>
      <point x="240" y="177"/>
      <point x="213" y="144"/>
      <point x="213" y="108" type="curve" smooth="yes"/>
      <point x="213" y="72"/>
      <point x="240" y="40"/>
    </contour>
    <contour>
      <point x="280" y="411" type="curve" smooth="yes"/>
      <point x="319" y="411"/>
      <point x="345" y="444"/>
      <point x="345" y="479" type="curve" smooth="yes"/>
      <point x="345" y="516"/>
      <point x="319" y="548"/>
      <point x="280" y="548" type="curve" smooth="yes"/>
      <point x="240" y="548"/>
      <point x="213" y="516"/>
      <point x="213" y="479" type="curve" smooth="yes"/>
      <point x="213" y="444"/>
      <point x="240" y="411"/>
    </contour>
  </outline>
</glyph>
<glyph name="oslash" format="2">
  <advance width="560"/>
  <unicode hex="00F8"/>
  <anchor x="280" y="582" name="top"/>
  <outline>
    <contour>
      <point x="102" y="-36" type="line"/>
      <point x="149" y="28" type="line"/>
      <point x="186" y="2"/>
      <point x="230" y="-12"/>
      <point x="279" y="-12" type="curve" smooth="yes"/>
      <point x="417" y="-12"/>
      <point x="515" y="96"/>
      <point x="515" y="260" type="curve" smooth="yes"/>
      <point x="515" y="335"/>
      <point x="494" y="399"/>
      <point x="458" y="445" type="curve"/>
      <point x="510" y="515" type="line"/>
      <point x="457" y="556" type="line"/>
      <point x="410" y="492" type="line"/>
      <point x="374" y="519"/>
      <point x="329" y="532"/>
      <point x="279" y="532" type="curve" smooth="yes"/>
      <point x="143" y="532"/>
      <point x="45" y="424"/>
      <point x="45" y="260" type="curve" smooth="yes"/>
      <point x="45" y="184"/>
      <point x="66" y="121"/>
      <point x="101" y="74" type="curve"/>
      <point x="50" y="4" type="line"/>
    </contour>
    <contour>
      <point x="279" y="71" type="curve" smooth="yes"/>
      <point x="248" y="71"/>
      <point x="221" y="77"/>
      <point x="199" y="95" type="curve"/>
      <point x="402" y="370" type="line"/>
      <point x="416" y="340"/>
      <point x="420" y="301"/>
      <point x="420" y="260" type="curve" smooth="yes"/>
      <point x="420" y="143"/>
      <point x="365" y="71"/>
    </contour>
    <contour>
      <point x="158" y="151" type="line"/>
      <point x="144" y="180"/>
      <point x="140" y="214"/>
      <point x="140" y="260" type="curve" smooth="yes"/>
      <point x="140" y="377"/>
      <point x="195" y="450"/>
      <point x="279" y="450" type="curve" smooth="yes"/>
      <point x="310" y="450"/>
      <point x="338" y="442"/>
      <point x="360" y="424" type="curve"/>
    </contour>
  </outline>
</glyph>
<glyph name="thorn" format="2">
  <advance width="560"/>
  <unicode hex="00FE"/>
  <anchor x="280" y="0" name="bottom"/>
  <anchor x="280" y="582" name="top"/>
  <outline>
    <contour>
      <point x="80" y="-185" type="line"/>
      <point x="172" y="-185" type="line"/>
      <point x="172" y="20" type="line"/>
      <point x="194" y="4"/>
      <point x="237" y="-12"/>
      <point x="292" y="-12" type="curve" smooth="yes"/>
      <point x="432" y="-12"/>
      <point x="515" y="101"/>
      <point x="515" y="259" type="curve" smooth="yes"/>
      <point x="515" y="431"/>
      <point x="420" y="532"/>
      <point x="295" y="532" type="curve" smooth="yes"/>
      <point x="256" y="532"/>
      <point x="215" y="523"/>
      <point x="172" y="501" type="curve"/>
      <point x="172" y="776" type="line"/>
      <point x="80" y="760" type="line"/>
    </contour>
    <contour>
      <point x="281" y="71" type="curve" smooth="yes"/>
      <point x="239" y="71"/>
      <point x="194" y="91"/>
      <point x="172" y="110" type="curve"/>
      <point x="172" y="411" type="line"/>
      <point x="211" y="437"/>
      <point x="245" y="450"/>
      <point x="283" y="450" type="curve" smooth="yes"/>
      <point x="362" y="450"/>
      <point x="420" y="389"/>
      <point x="420" y="259" type="curve" smooth="yes"/>
      <point x="420" y="152"/>
      <point x="379" y="71"/>
    </contour>
  </outline>
</glyph>
<glyph name="Aogonek" format="2">
  <advance width="560"/>
  <unicode hex="0104"/>
  <outline>
    <contour>
      <point x="489" y="-187" type="curve" smooth="yes"/>
      <point x="516" y="-187"/>
      <point x="540" y="-183"/>
      <point x="556" y="-176" type="curve"/>
      <point x="548" y="-115" type="line"/>
      <point x="533" y="-120"/>
      <point x="516" y="-122"/>
      <point x="507" y="-122" type="curve" smooth="yes"/>
      <point x="480" y="-122"/>
      <point x="467" y="-112"/>
      <point x="467" y="-93" type="curve" smooth="yes"/>
      <point x="467" y="-58"/>
      <point x="522" y="-12"/>
      <point x="549" y="2" type="curve"/>
      <point x="497" y="198"/>
      <point x="426" y="472"/>
      <point x="339" y="693" type="curve"/>
      <point x="225" y="693" type="line"/>
      <point x="137" y="472"/>
      <point x="62" y="197"/>
      <point x="10" y="0" type="curve"/>
      <point x="104" y="0" type="line"/>
      <point x="144" y="181" type="line"/>
      <point x="411" y="181" type="line"/>
      <point x="452" y="0" type="line"/>
      <point x="452" y="0" type="line"/>
      <point x="418" y="-29"/>
      <point x="383" y="-68"/>
      <point x="383" y="-113" type="curve" smooth="yes"/>
      <point x="383" y="-160"/>
      <point x="414" y="-187"/>
    </contour>
    <contour>
      <point x="166" y="258" type="line"/>
      <point x="202" y="389"/>
      <point x="245" y="520"/>
      <point x="279" y="613" type="curve"/>
      <point x="312" y="524"/>
      <point x="355" y="391"/>
      <point x="390" y="258" type="curve"/>
    </contour>
  </outline>
</glyph>
<glyph name="dcroat" format="2">
  <advance width="560"/>
  <unicode hex="0111"/>
  <outline>
    <contour>
      <point x="284" y="-12" type="curve" smooth="yes"/>
      <point x="364" y="-12"/>
      <point x="426" y="3"/>
      <point x="464" y="15" type="curve"/>
      <point x="464" y="614" type="line"/>
      <point x="538" y="614" type="line"/>
      <point x="538" y="683" type="line"/>
      <point x="464" y="683" type="line"/>
      <point x="464" y="776" type="line"/>
      <point x="372" y="760" type="line"/>
      <point x="372" y="683" type="line"/>
      <point x="174" y="683" type="line"/>
      <point x="174" y="614" type="line"/>
      <point x="372" y="614" type="line"/>
      <point x="372" y="501" type="line"/>
      <point x="351" y="515"/>
      <point x="311" y="532"/>
      <point x="259" y="532" type="curve" smooth="yes"/>
      <point x="127" y="532"/>
      <point x="45" y="420"/>
      <point x="45" y="260" type="curve" smooth="yes"/>
      <point x="45" y="92"/>
      <point x="140" y="-12"/>
    </contour>
    <contour>
      <point x="284" y="71" type="curve" smooth="yes"/>
      <point x="199" y="71"/>
      <point x="140" y="139"/>
      <point x="140" y="260" type="curve" smooth="yes"/>
      <point x="140" y="368"/>
      <point x="178" y="450"/>
      <point x="270" y="450" type="curve" smooth="yes"/>
      <point x="311" y="450"/>
      <point x="352" y="429"/>
      <point x="372" y="410" type="curve"/>
      <point x="372" y="81" type="line"/>
      <point x="358" y="76"/>
      <point x="327" y="71"/>
    </contour>
  </outline>
</glyph>
<glyph name="Eogonek" format="2">
  <advance width="560"/>
  <unicode hex="0118"/>
  <anchor x="280" y="776" name="top"/>
  <outline>
    <contour>
      <point x="454" y="-187" type="curve" smooth="yes"/>
      <point x="480" y="-187"/>
      <point x="504" y="-183"/>
      <point x="519" y="-176" type="curve"/>
      <point x="512" y="-115" type="line"/>
      <point x="497" y="-120"/>
      <point x="480" y="-122"/>
      <point x="472" y="-122" type="curve" smooth="yes"/>
      <point x="444" y="-122"/>
      <point x="431" y="-112"/>
      <point x="431" y="-93" type="curve" smooth="yes"/>
      <point x="431" y="-58"/>
      <point x="485" y="-15"/>
      <point x="515" y="2" type="curve"/>
      <point x="515" y="78" type="line"/>
      <point x="194" y="78" type="line"/>
      <point x="194" y="324" type="line"/>
      <point x="454" y="324" type="line"/>
      <point x="454" y="402" type="line"/>
      <point x="194" y="402" type="line"/>
      <point x="194" y="615" type="line"/>
      <point x="491" y="615" type="line"/>
      <point x="491" y="693" type="line"/>
      <point x="102" y="693" type="line"/>
      <point x="102" y="0" type="line"/>
      <point x="419" y="0" type="line"/>
      <point x="399" y="-15"/>
      <point x="347" y="-66"/>
      <point x="347" y="-113" type="curve" smooth="yes"/>
      <point x="347" y="-160"/>
      <point x="379" y="-187"/>
    </contour>
  </outline>
</glyph>
<glyph name="hcircumflex" format="2">
  <advance width="560"/>
  <unicode hex="0125"/>
  <outline>
    <contour>
      <point x="80" y="0" type="line"/>
      <point x="172" y="0" type="line"/>
      <point x="172" y="431" type="line"/>
      <point x="188" y="438"/>
      <point x="231" y="449"/>
      <point x="269" y="449" type="curve" smooth="yes"/>
      <point x="362" y="449"/>
      <point x="392" y="402"/>
      <point x="392" y="273" type="curve" smooth="yes"/>
      <point x="392" y="0" type="line"/>
      <point x="484" y="0" type="line"/>
      <point x="484" y="293" type="line" smooth="yes"/>
      <point x="484" y="435"/>
      <point x="436" y="531"/>
      <point x="278" y="531" type="curve" smooth="yes"/>
      <point x="242" y="531"/>
      <point x="203" y="524"/>
      <point x="172" y="512" type="curve"/>
      <point x="172" y="765" type="line"/>
      <point x="80" y="749" type="line"/>
    </contour>
    <contour>
      <point x="78" y="790" type="line"/>
      <point x="172" y="851" type="line"/>
      <point x="267" y="790" type="line"/>
      <point x="296" y="834" type="line"/>
      <point x="172" y="930" type="line"/>
      <point x="49" y="834" type="line"/>
    </contour>
  </outline>
</glyph>
<glyph name="Hbar" format="2">
  <advance width="560"/>
  <unicode hex="0126"/>
  <outline>
    <contour>
      <point x="80" y="0" type="line"/>
      <point x="172" y="0" type="line"/>
      <point x="172" y="323" type="line"/>
      <point x="388" y="323" type="line"/>
      <point x="388" y="0" type="line"/>
      <point x="480" y="0" type="line"/>
      <point x="480" y="524" type="line"/>
      <point x="540" y="524" type="line"/>
      <point x="540" y="592" type="line"/>
      <point x="480" y="592" type="line"/>
      <point x="480" y="693" type="line"/>
      <point x="388" y="693" type="line"/>
      <point x="388" y="592" type="line"/>
      <point x="172" y="592" type="line"/>
      <point x="172" y="693" type="line"/>
      <point x="80" y="693" type="line"/>
      <point x="80" y="592" type="line"/>
      <point x="20" y="592" type="line"/>
      <point x="20" y="524" type="line"/>
      <point x="80" y="524" type="line"/>
    </contour>
    <contour>
      <point x="172" y="401" type="line"/>
      <point x="172" y="524" type="line"/>
      <point x="388" y="524" type="line"/>
      <point x="388" y="401" type="line"/>
    </contour>
  </outline>
</glyph>
<glyph name="hbar" format="2">
  <advance width="560"/>
  <unicode hex="0127"/>
  <outline>
    <contour>
      <point x="96" y="0" type="line"/>
      <point x="188" y="0" type="line"/>
      <point x="188" y="431" type="line"/>
      <point x="203" y="438"/>
      <point x="245" y="449"/>
      <point x="280" y="449" type="curve" smooth="yes"/>
      <point x="362" y="449"/>
      <point x="392" y="402"/>
      <point x="392" y="273" type="curve" smooth="yes"/>
      <point x="392" y="0" type="line"/>
      <point x="484" y="0" type="line"/>
      <point x="484" y="293" type="line" smooth="yes"/>
      <point x="484" y="435"/>
      <point x="436" y="531"/>
      <point x="289" y="531" type="curve" smooth="yes"/>
      <point x="256" y="531"/>
      <point x="216" y="524"/>
      <point x="188" y="512" type="curve"/>
      <point x="188" y="614" type="line"/>
      <point x="370" y="614" type="line"/>
      <point x="370" y="683" type="line"/>
      <point x="188" y="683" type="line"/>
      <point x="188" y="776" type="line"/>
      <point x="96" y="760" type="line"/>
      <point x="96" y="683" type="line"/>
      <point x="22" y="683" type="line"/>
      <point x="22" y="614" type="line"/>
      <point x="96" y="614" type="line"/>
    </contour>
  </outline>
</glyph>
<glyph name="Iogonek" format="2">
  <advance width="560"/>
  <unicode hex="012E"/>
  <outline>
    <contour>
      <point x="273" y="-187" type="curve" smooth="yes"/>
      <point x="300" y="-187"/>
      <point x="324" y="-183"/>
      <point x="339" y="-176" type="curve"/>
      <point x="332" y="-115" type="line"/>
      <point x="317" y="-120"/>
      <point x="300" y="-122"/>
      <point x="291" y="-122" type="curve" smooth="yes"/>
      <point x="264" y="-122"/>
      <point x="251" y="-112"/>
      <point x="251" y="-93" type="curve" smooth="yes"/>
      <point x="251" y="-63"/>
      <point x="306" y="-16"/>
      <point x="327" y="0" type="curve"/>
      <point x="460" y="0" type="line"/>
      <point x="460" y="78" type="line"/>
      <point x="326" y="78" type="line"/>
      <point x="326" y="615" type="line"/>
      <point x="460" y="615" type="line"/>
      <point x="460" y="693" type="line"/>
      <point x="100" y="693" type="line"/>
      <point x="100" y="615" type="line"/>
      <point x="234" y="615" type="line"/>
      <point x="234" y="78" type="line"/>
      <point x="100" y="78" type="line"/>
      <point x="100" y="0" type="line"/>
      <point x="233" y="0" type="line"/>
      <point x="209" y="-17"/>
      <point x="164" y="-71"/>
      <point x="164" y="-111" type="curve" smooth="yes"/>
      <point x="164" y="-158"/>
      <point x="198" y="-187"/>
    </contour>
  </outline>
</glyph>
<glyph name="iogonek" format="2">
  <advance width="560"/>
  <unicode hex="012F"/>
  <outline>
    <contour>
      <point x="427" y="-187" type="curve" smooth="yes"/>
      <point x="454" y="-187"/>
      <point x="478" y="-183"/>
      <point x="493" y="-176" type="curve"/>
      <point x="486" y="-115" type="line"/>
      <point x="472" y="-120"/>
      <point x="454" y="-122"/>
      <point x="445" y="-122" type="curve" smooth="yes"/>
      <point x="418" y="-122"/>
      <point x="405" y="-112"/>
      <point x="405" y="-93" type="curve" smooth="yes"/>
      <point x="405" y="-68"/>
      <point x="442" y="-24"/>
      <point x="504" y="17" type="curve"/>
      <point x="491" y="95" type="line"/>
      <point x="469" y="84"/>
      <point x="431" y="71"/>
      <point x="388" y="71" type="curve" smooth="yes"/>
      <point x="332" y="71"/>
      <point x="302" y="97"/>
      <point x="302" y="200" type="curve" smooth="yes"/>
      <point x="302" y="520" type="line"/>
      <point x="60" y="520" type="line"/>
      <point x="60" y="442" type="line"/>
      <point x="211" y="442" type="line"/>
      <point x="211" y="200" type="line"/>
      <point x="211" y="60"/>
      <point x="249" y="-12"/>
      <point x="380" y="-12" type="curve"/>
      <point x="361" y="-24"/>
      <point x="317" y="-69"/>
      <point x="317" y="-111" type="curve" smooth="yes"/>
      <point x="317" y="-158"/>
      <point x="352" y="-187"/>
    </contour>
    <contour>
      <point x="234" y="600" type="curve" smooth="yes"/>
      <point x="274" y="600"/>
      <point x="306" y="629"/>
      <point x="306" y="675" type="curve" smooth="yes"/>
      <point x="306" y="721"/>
      <point x="274" y="750"/>
      <point x="234" y="750" type="curve" smooth="yes"/>
      <point x="195" y="750"/>
      <point x="162" y="721"/>
      <point x="162" y="675" type="curve" smooth="yes"/>
      <point x="162" y="629"/>
      <point x="195" y="600"/>
    </contour>
  </outline>
</glyph>
<glyph name="dotlessi" format="2">
  <advance width="560"/>
  <unicode hex="0131"/>
  <anchor x="280" y="0" name="bottom"/>
  <anchor x="504" y="11" name="ogonek"/>
  <anchor x="280" y="582" name="top"/>
  <outline>
    <contour>
      <point x="380" y="-12" type="curve" smooth="yes"/>
      <point x="436" y="-12"/>
      <point x="487" y="8"/>
      <point x="504" y="17" type="curve"/>
      <point x="491" y="95" type="line"/>
      <point x="469" y="84"/>
      <point x="431" y="71"/>
      <point x="388" y="71" type="curve" smooth="yes"/>
      <point x="332" y="71"/>
      <point x="302" y="97"/>
      <point x="302" y="200" type="curve" smooth="yes"/>
      <point x="302" y="520" type="line"/>
      <point x="60" y="520" type="line"/>
      <point x="60" y="442" type="line"/>
      <point x="211" y="442" type="line"/>
      <point x="211" y="200" type="line"/>
      <point x="211" y="60"/>
      <point x="249" y="-12"/>
    </contour>
  </outline>
</glyph>
<glyph name="ij" format="2">
  <advance width="560"/>
  <unicode hex="0133"/>
  <outline>
    <contour>
      <point x="262" y="-187" type="curve" smooth="yes"/>
      <point x="379" y="-187"/>
      <point x="440" y="-123"/>
      <point x="440" y="10" type="curve" smooth="yes"/>
      <point x="440" y="520" type="line"/>
      <point x="348" y="520" type="line"/>
      <point x="348" y="9" type="line" smooth="yes"/>
      <point x="348" y="-67"/>
      <point x="323" y="-108"/>
      <point x="258" y="-108" type="curve" smooth="yes"/>
      <point x="243" y="-108"/>
      <point x="224" y="-104"/>
      <point x="211" y="-100" type="curve"/>
      <point x="199" y="-176" type="line"/>
      <point x="216" y="-183"/>
      <point x="246" y="-187"/>
    </contour>
    <contour>
      <point x="121" y="0" type="line"/>
      <point x="213" y="0" type="line"/>
      <point x="213" y="520" type="line"/>
      <point x="121" y="520" type="line"/>
    </contour>
    <contour>
      <point x="167" y="607" type="curve" smooth="yes"/>
      <point x="204" y="607"/>
      <point x="234" y="634"/>
      <point x="234" y="675" type="curve" smooth="yes"/>
      <point x="234" y="716"/>
      <point x="204" y="743"/>
      <point x="167" y="743" type="curve" smooth="yes"/>
      <point x="130" y="743"/>
      <point x="100" y="716"/>
      <point x="100" y="675" type="curve" smooth="yes"/>
      <point x="100" y="634"/>
      <point x="130" y="607"/>
    </contour>
    <contour>
      <point x="394" y="607" type="curve" smooth="yes"/>
      <point x="431" y="607"/>
      <point x="461" y="634"/>
      <point x="461" y="675" type="curve" smooth="yes"/>
      <point x="461" y="716"/>
      <point x="431" y="743"/>
      <point x="394" y="743" type="curve" smooth="yes"/>
      <point x="357" y="743"/>
      <point x="327" y="716"/>
      <point x="327" y="675" type="curve" smooth="yes"/>
      <point x="327" y="634"/>
      <point x="357" y="607"/>
    </contour>
  </outline>
</glyph>
<glyph name="lacute" format="2">
  <advance width="560"/>
  <unicode hex="013A"/>
  <outline>
    <contour>
      <point x="379" y="-12" type="curve" smooth="yes"/>
      <point x="435" y="-12"/>
      <point x="487" y="8"/>
      <point x="504" y="17" type="curve"/>
      <point x="491" y="95" type="line"/>
      <point x="469" y="84"/>
      <point x="430" y="71"/>
      <point x="386" y="71" type="curve" smooth="yes"/>
      <point x="330" y="71"/>
      <point x="302" y="97"/>
      <point x="302" y="200" type="curve" smooth="yes"/>
      <point x="302" y="759" type="line"/>
      <point x="60" y="759" type="line"/>
      <point x="60" y="681" type="line"/>
      <point x="211" y="681" type="line"/>
      <point x="211" y="200" type="line" smooth="yes"/>
      <point x="211" y="60"/>
      <point x="248" y="-12"/>
    </contour>
    <contour>
      <point x="196" y="796" type="line"/>
      <point x="364" y="857" type="line"/>
      <point x="336" y="930" type="line"/>
      <point x="175" y="851" type="line"/>
    </contour>
  </outline>
</glyph>
<glyph name="Lslash" format="2">
  <advance width="560"/>
  <unicode hex="0141"/>
  <outline>
    <contour>
      <point x="127" y="0" type="line"/>
      <point x="515" y="0" type="line"/>
      <point x="515" y="78" type="line"/>
      <point x="220" y="78" type="line"/>
      <point x="220" y="335" type="line"/>
      <point x="371" y="413" type="line"/>
      <point x="339" y="479" type="line"/>
      <point x="220" y="418" type="line"/>
      <point x="220" y="693" type="line"/>
      <point x="127" y="693" type="line"/>
      <point x="127" y="370" type="line"/>
      <point x="20" y="315" type="line"/>
      <point x="53" y="249" type="line"/>
      <point x="127" y="287" type="line"/>
    </contour>
  </outline>
</glyph>
<glyph name="Eng" format="2">
  <advance width="560"/>
  <unicode hex="014A"/>
  <anchor x="280" y="0" name="bottom"/>
  <anchor x="280" y="776" name="top"/>
  <outline>
    <contour>
      <point x="362" y="-187" type="curve" smooth="yes"/>
      <point x="483" y="-187"/>
      <point x="498" y="-111"/>
      <point x="498" y="0" type="curve" smooth="yes"/>
      <point x="498" y="693" type="line"/>
      <point x="414" y="693" type="line"/>
      <point x="414" y="189" type="line"/>
      <point x="355" y="329"/>
      <point x="239" y="547"/>
      <point x="156" y="693" type="curve"/>
      <point x="62" y="693" type="line"/>
      <point x="62" y="0" type="line"/>
      <point x="146" y="0" type="line"/>
      <point x="146" y="553" type="line"/>
      <point x="242" y="379"/>
      <point x="356" y="155"/>
      <point x="414" y="24" type="curve"/>
      <point x="414" y="-17" type="line"/>
      <point x="414" y="-77"/>
      <point x="401" y="-111"/>
      <point x="352" y="-111" type="curve" smooth="yes"/>
      <point x="342" y="-111"/>
      <point x="320" y="-110"/>
      <point x="309" y="-106" type="curve"/>
      <point x="300" y="-179" type="line"/>
      <point x="315" y="-183"/>
      <point x="343" y="-187"/>
    </contour>
  </outline>
</glyph>
<glyph name="eng" format="2">
  <advance width="560"/>
  <unicode hex="014B"/>
  <anchor x="280" y="0" name="bottom"/>
  <anchor x="280" y="582" name="top"/>
  <outline>
    <contour>
      <point x="336" y="-187" type="curve" smooth="yes"/>
      <point x="456" y="-187"/>
      <point x="484" y="-123"/>
      <point x="484" y="0" type="curve" smooth="yes"/>
      <point x="484" y="305" type="line" smooth="yes"/>
      <point x="484" y="463"/>
      <point x="411" y="531"/>
      <point x="273" y="531" type="curve" smooth="yes"/>
      <point x="215" y="531"/>
      <point x="146" y="522"/>
      <point x="80" y="505" type="curve"/>
      <point x="80" y="0" type="line"/>
      <point x="172" y="0" type="line"/>
      <point x="172" y="439" type="line"/>
      <point x="204" y="445"/>
      <point x="239" y="449"/>
      <point x="269" y="449" type="curve" smooth="yes"/>
      <point x="342" y="449"/>
      <point x="392" y="421"/>
      <point x="392" y="288" type="curve" smooth="yes"/>
      <point x="392" y="-17" type="line" smooth="yes"/>
      <point x="392" y="-77"/>
      <point x="375" y="-111"/>
      <point x="326" y="-111" type="curve" smooth="yes"/>
      <point x="315" y="-111"/>
      <point x="295" y="-110"/>
      <point x="283" y="-106" type="curve"/>
      <point x="274" y="-179" type="line"/>
      <point x="289" y="-183"/>
      <point x="317" y="-187"/>
    </contour>
  </outline>
</glyph>
<glyph name="OE" format="2">
  <advance width="560"/>
  <unicode hex="0152"/>
  <anchor x="280" y="0" name="bottom"/>
  <anchor x="280" y="776" name="top"/>
  <outline>
    <contour>
      <point x="246" y="-7" type="curve" smooth="yes"/>
      <point x="267" y="-7"/>
      <point x="288" y="-4"/>
      <point x="309" y="0" type="curve"/>
      <point x="540" y="0" type="line"/>
      <point x="540" y="78" type="line"/>
      <point x="382" y="78" type="line"/>
      <point x="382" y="324" type="line"/>
      <point x="500" y="324" type="line"/>
      <point x="500" y="402" type="line"/>
      <point x="382" y="402" type="line"/>
      <point x="382" y="615" type="line"/>
      <point x="525" y="615" type="line"/>
      <point x="525" y="693" type="line"/>
      <point x="309" y="693" type="line"/>
      <point x="289" y="697"/>
      <point x="263" y="700"/>
      <point x="248" y="700" type="curve" smooth="yes"/>
      <point x="114" y="700"/>
      <point x="30" y="575"/>
      <point x="30" y="337" type="curve" smooth="yes"/>
      <point x="30" y="99"/>
      <point x="113" y="-7"/>
    </contour>
    <contour>
      <point x="246" y="73" type="curve" smooth="yes"/>
      <point x="164" y="73"/>
      <point x="120" y="165"/>
      <point x="120" y="337" type="curve" smooth="yes"/>
      <point x="120" y="510"/>
      <point x="165" y="620"/>
      <point x="246" y="620" type="curve" smooth="yes"/>
      <point x="260" y="620"/>
      <point x="276" y="619"/>
      <point x="295" y="613" type="curve"/>
      <point x="295" y="81" type="line"/>
      <point x="290" y="80"/>
      <point x="276" y="73"/>
    </contour>
  </outline>
</glyph>
<glyph name="oe" format="2">
  <advance width="560"/>
  <unicode hex="0153"/>
  <anchor x="280" y="0" name="bottom"/>
  <anchor x="280" y="582" name="top"/>
  <outline>
    <contour>
      <point x="176" y="-12" type="curve" smooth="yes"/>
      <point x="239" y="-12"/>
      <point x="268" y="20"/>
      <point x="293" y="88" type="curve"/>
      <point x="323" y="13"/>
      <point x="370" y="-12"/>
      <point x="422" y="-12" type="curve" smooth="yes"/>
      <point x="455" y="-12"/>
      <point x="491" y="-4"/>
      <point x="521" y="17" type="curve"/>
      <point x="508" y="95" type="line"/>
      <point x="475" y="75"/>
      <point x="454" y="71"/>
      <point x="435" y="71" type="curve" smooth="yes"/>
      <point x="368" y="71"/>
      <point x="337" y="152"/>
      <point x="337" y="235" type="curve"/>
      <point x="534" y="235" type="line"/>
      <point x="535" y="249"/>
      <point x="535" y="259"/>
      <point x="535" y="268" type="curve" smooth="yes"/>
      <point x="535" y="444"/>
      <point x="488" y="532"/>
      <point x="400" y="532" type="curve" smooth="yes"/>
      <point x="357" y="532"/>
      <point x="320" y="501"/>
      <point x="293" y="431" type="curve"/>
      <point x="273" y="502"/>
      <point x="231" y="532"/>
      <point x="176" y="532" type="curve" smooth="yes"/>
      <point x="77" y="532"/>
      <point x="35" y="398"/>
      <point x="35" y="262" type="curve" smooth="yes"/>
      <point x="35" y="125"/>
      <point x="78" y="-12"/>
    </contour>
    <contour>
      <point x="189" y="69" type="curve" smooth="yes"/>
      <point x="139" y="69"/>
      <point x="120" y="168"/>
      <point x="120" y="265" type="curve" smooth="yes"/>
      <point x="120" y="360"/>
      <point x="137" y="452"/>
      <point x="183" y="452" type="curve" smooth="yes"/>
      <point x="232" y="452"/>
      <point x="249" y="353"/>
      <point x="249" y="256" type="curve" smooth="yes"/>
      <point x="249" y="161"/>
      <point x="234" y="69"/>
    </contour>
    <contour>
      <point x="339" y="310" type="line"/>
      <point x="339" y="394"/>
      <point x="363" y="454"/>
      <point x="400" y="454" type="curve" smooth="yes"/>
      <point x="430" y="454"/>
      <point x="451" y="398"/>
      <point x="451" y="310" type="curve"/>
    </contour>
  </outline>
</glyph>
<glyph name="scedilla" format="2">
  <advance width="560"/>
  <unicode hex="015F"/>
  <outline>
    <contour>
      <point x="248" y="-189" type="curve" smooth="yes"/>
      <point x="325" y="-189"/>
      <point x="349" y="-146"/>
      <point x="349" y="-116" type="curve" smooth="yes"/>
      <point x="349" y="-74"/>
      <point x="333" y="-55"/>
      <point x="295" y="-37" type="curve"/>
      <point x="299" y="-28"/>
      <point x="304" y="-19"/>
      <point x="308" y="-10" type="curve"/>
      <point x="430" y="0"/>
      <point x="486" y="52"/>
      <point x="486" y="136" type="curve" smooth="yes"/>
      <point x="486" y="232"/>
      <point x="391" y="269"/>
      <point x="306" y="300" type="curve" smooth="yes"/>
      <point x="237" y="325"/>
      <point x="175" y="345"/>
      <point x="175" y="388" type="curve" smooth="yes"/>
      <point x="175" y="433"/>
      <point x="214" y="454"/>
      <point x="296" y="454" type="curve" smooth="yes"/>
      <point x="354" y="454"/>
      <point x="420" y="440"/>
      <point x="444" y="427" type="curve"/>
      <point x="460" y="510" type="line"/>
      <point x="417" y="523"/>
      <point x="352" y="532"/>
      <point x="295" y="532" type="curve" smooth="yes"/>
      <point x="150" y="532"/>
      <point x="84" y="469"/>
      <point x="84" y="385" type="curve" smooth="yes"/>
      <point x="84" y="286"/>
      <point x="181" y="253"/>
      <point x="268" y="223" type="curve" smooth="yes"/>
      <point x="334" y="200"/>
      <point x="393" y="179"/>
      <point x="393" y="130" type="curve" smooth="yes"/>
      <point x="393" y="86"/>
      <point x="351" y="66"/>
      <point x="267" y="66" type="curve" smooth="yes"/>
      <point x="202" y="66"/>
      <point x="144" y="84"/>
      <point x="92" y="108" type="curve"/>
      <point x="74" y="24" type="line"/>
      <point x="124" y="1"/>
      <point x="179" y="-10"/>
      <point x="243" y="-12" type="curve"/>
      <point x="234" y="-31"/>
      <point x="224" y="-54"/>
      <point x="218" y="-69" type="curve"/>
      <point x="253" y="-80"/>
      <point x="268" y="-91"/>
      <point x="268" y="-106" type="curve" smooth="yes"/>
      <point x="268" y="-120"/>
      <point x="256" y="-129"/>
      <point x="232" y="-129" type="curve" smooth="yes"/>
      <point x="209" y="-129"/>
      <point x="192" y="-124"/>
      <point x="176" y="-119" type="curve"/>
      <point x="165" y="-176" type="line"/>
      <point x="181" y="-183"/>
      <point x="213" y="-189"/>
    </contour>
  </outline>
</glyph>
<glyph name="uni0162" format="2">
  <advance width="560"/>
  <unicode hex="0162"/>
  <outline>
    <contour>
      <point x="248" y="-189" type="curve" smooth="yes"/>
      <point x="325" y="-189"/>
      <point x="349" y="-146"/>
      <point x="349" y="-116" type="curve" smooth="yes"/>
      <point x="349" y="-74"/>
      <point x="333" y="-55"/>
      <point x="295" y="-37" type="curve"/>
      <point x="301" y="-25"/>
      <point x="307" y="-12"/>
      <point x="314" y="0" type="curve"/>
      <point x="326" y="0" type="line"/>
      <point x="326" y="615" type="line"/>
      <point x="516" y="615" type="line"/>
      <point x="516" y="693" type="line"/>
      <point x="44" y="693" type="line"/>
      <point x="44" y="615" type="line"/>
      <point x="234" y="615" type="line"/>
      <point x="234" y="0" type="line"/>
      <point x="249" y="0" type="line"/>
      <point x="239" y="-20"/>
      <point x="225" y="-50"/>
      <point x="218" y="-69" type="curve"/>
      <point x="226" y="-72" type="line" smooth="yes"/>
      <point x="253" y="-80"/>
      <point x="268" y="-91"/>
      <point x="268" y="-106" type="curve" smooth="yes"/>
      <point x="268" y="-120"/>
      <point x="256" y="-129"/>
      <point x="232" y="-129" type="curve" smooth="yes"/>
      <point x="209" y="-129"/>
      <point x="192" y="-124"/>
      <point x="176" y="-119" type="curve"/>
      <point x="165" y="-176" type="line"/>
      <point x="181" y="-183"/>
      <point x="213" y="-189"/>
    </contour>
  </outline>
</glyph>
<glyph name="uni0163" format="2">
  <advance width="560"/>
  <unicode hex="0163"/>
  <outline>
    <contour>
      <point x="318" y="-189" type="curve" smooth="yes"/>
      <point x="395" y="-189"/>
      <point x="420" y="-146"/>
      <point x="420" y="-116" type="curve" smooth="yes"/>
      <point x="420" y="-74"/>
      <point x="403" y="-55"/>
      <point x="365" y="-37" type="curve"/>
      <point x="377" y="-12" type="line"/>
      <point x="439" y="-10"/>
      <point x="485" y="8"/>
      <point x="504" y="17" type="curve"/>
      <point x="491" y="95" type="line"/>
      <point x="460" y="81"/>
      <point x="432" y="71"/>
      <point x="379" y="71" type="curve" smooth="yes"/>
      <point x="301" y="71"/>
      <point x="272" y="97"/>
      <point x="272" y="200" type="curve" smooth="yes"/>
      <point x="272" y="442" type="line"/>
      <point x="492" y="442" type="line"/>
      <point x="492" y="520" type="line"/>
      <point x="272" y="520" type="line"/>
      <point x="272" y="681" type="line"/>
      <point x="180" y="665" type="line"/>
      <point x="180" y="520" type="line"/>
      <point x="71" y="520" type="line"/>
      <point x="71" y="442" type="line"/>
      <point x="180" y="442" type="line"/>
      <point x="180" y="200" type="line" smooth="yes"/>
      <point x="180" y="78"/>
      <point x="206" y="7"/>
      <point x="316" y="-9" type="curve"/>
      <point x="306" y="-28"/>
      <point x="295" y="-53"/>
      <point x="289" y="-69" type="curve"/>
      <point x="297" y="-72" type="line" smooth="yes"/>
      <point x="324" y="-80"/>
      <point x="338" y="-91"/>
      <point x="338" y="-106" type="curve" smooth="yes"/>
      <point x="338" y="-120"/>
      <point x="327" y="-129"/>
      <point x="302" y="-129" type="curve" smooth="yes"/>
      <point x="280" y="-129"/>
      <point x="262" y="-124"/>
      <point x="246" y="-119" type="curve"/>
      <point x="235" y="-176" type="line"/>
      <point x="252" y="-183"/>
      <point x="283" y="-189"/>
    </contour>
  </outline>
</glyph>
<glyph name="tbar" format="2">
  <advance width="560"/>
  <unicode hex="0167"/>
  <outline>
    <contour>
      <point x="370" y="-12" type="curve" smooth="yes"/>
      <point x="436" y="-12"/>
      <point x="484" y="8"/>
      <point x="504" y="17" type="curve"/>
      <point x="491" y="95" type="line"/>
      <point x="460" y="81"/>
      <point x="432" y="71"/>
      <point x="379" y="71" type="curve" smooth="yes"/>
      <point x="301" y="71"/>
      <point x="272" y="97"/>
      <point x="272" y="200" type="curve" smooth="yes"/>
      <point x="272" y="236" type="line"/>
      <point x="492" y="236" type="line"/>
      <point x="492" y="306" type="line"/>
      <point x="272" y="306" type="line"/>
      <point x="272" y="442" type="line"/>
      <point x="492" y="442" type="line"/>
      <point x="492" y="520" type="line"/>
      <point x="272" y="520" type="line"/>
      <point x="272" y="681" type="line"/>
      <point x="180" y="665" type="line"/>
      <point x="180" y="520" type="line"/>
      <point x="71" y="520" type="line"/>
      <point x="71" y="442" type="line"/>
      <point x="180" y="442" type="line"/>
      <point x="180" y="306" type="line"/>
      <point x="71" y="306" type="line"/>
      <point x="71" y="236" type="line"/>
      <point x="180" y="236" type="line"/>
      <point x="180" y="200" type="line" smooth="yes"/>
      <point x="180" y="60"/>
      <point x="215" y="-12"/>
    </contour>
  </outline>
</glyph>
<glyph name="Uogonek" format="2">
  <advance width="560"/>
  <unicode hex="0172"/>
  <outline>
    <contour>
      <point x="336" y="-187" type="curve" smooth="yes"/>
      <point x="363" y="-187"/>
      <point x="388" y="-183"/>
      <point x="402" y="-176" type="curve"/>
      <point x="395" y="-115" type="line"/>
      <point x="380" y="-120"/>
      <point x="363" y="-122"/>
      <point x="354" y="-122" type="curve" smooth="yes"/>
      <point x="327" y="-122"/>
      <point x="314" y="-112"/>
      <point x="314" y="-93" type="curve" smooth="yes"/>
      <point x="314" y="-52"/>
      <point x="383" y="-2"/>
      <point x="417" y="19" type="curve" smooth="yes"/>
      <point x="480" y="59"/>
      <point x="506" y="137"/>
      <point x="506" y="239" type="curve" smooth="yes"/>
      <point x="506" y="693" type="line"/>
      <point x="414" y="693" type="line"/>
      <point x="414" y="249" type="line" smooth="yes"/>
      <point x="414" y="108"/>
      <point x="363" y="65"/>
      <point x="280" y="65" type="curve" smooth="yes"/>
      <point x="197" y="65"/>
      <point x="146" y="108"/>
      <point x="146" y="249" type="curve" smooth="yes"/>
      <point x="146" y="693" type="line"/>
      <point x="54" y="693" type="line"/>
      <point x="54" y="239" type="line" smooth="yes"/>
      <point x="54" y="83"/>
      <point x="105" y="-27"/>
      <point x="269" y="-27" type="curve"/>
      <point x="233" y="-63"/>
      <point x="226" y="-80"/>
      <point x="226" y="-111" type="curve" smooth="yes"/>
      <point x="226" y="-158"/>
      <point x="261" y="-187"/>
    </contour>
  </outline>
</glyph>
<glyph name="uogonek" format="2">
  <advance width="560"/>
  <unicode hex="0173"/>
  <outline>
    <contour>
      <point x="414" y="-187" type="curve" smooth="yes"/>
      <point x="441" y="-187"/>
      <point x="465" y="-183"/>
      <point x="480" y="-176" type="curve"/>
      <point x="473" y="-115" type="line"/>
      <point x="458" y="-120"/>
      <point x="441" y="-122"/>
      <point x="432" y="-122" type="curve" smooth="yes"/>
      <point x="405" y="-122"/>
      <point x="392" y="-112"/>
      <point x="392" y="-93" type="curve" smooth="yes"/>
      <point x="392" y="-57"/>
      <point x="463" y="-2"/>
      <point x="480" y="15" type="curve"/>
      <point x="480" y="520" type="line"/>
      <point x="388" y="520" type="line"/>
      <point x="388" y="81" type="line"/>
      <point x="377" y="77"/>
      <point x="332" y="71"/>
      <point x="292" y="71" type="curve" smooth="yes"/>
      <point x="203" y="71"/>
      <point x="168" y="120"/>
      <point x="168" y="248" type="curve" smooth="yes"/>
      <point x="168" y="520" type="line"/>
      <point x="76" y="520" type="line"/>
      <point x="76" y="227" type="line" smooth="yes"/>
      <point x="76" y="87"/>
      <point x="127" y="-11"/>
      <point x="283" y="-11" type="curve" smooth="yes"/>
      <point x="307" y="-11"/>
      <point x="342" y="-8"/>
      <point x="375" y="-4" type="curve"/>
      <point x="349" y="-21"/>
      <point x="304" y="-71"/>
      <point x="304" y="-111" type="curve" smooth="yes"/>
      <point x="304" y="-158"/>
      <point x="339" y="-187"/>
    </contour>
  </outline>
</glyph>
<glyph name="uni0180" format="2">
  <advance width="560"/>
  <unicode hex="0180"/>
  <outline>
    <contour>
      <point x="278" y="-12" type="curve" smooth="yes"/>
      <point x="421" y="-12"/>
      <point x="515" y="92"/>
      <point x="515" y="260" type="curve" smooth="yes"/>
      <point x="515" y="420"/>
      <point x="437" y="532"/>
      <point x="304" y="532" type="curve" smooth="yes"/>
      <point x="253" y="532"/>
      <point x="211" y="514"/>
      <point x="188" y="501" type="curve"/>
      <point x="188" y="614" type="line"/>
      <point x="370" y="614" type="line"/>
      <point x="370" y="683" type="line"/>
      <point x="188" y="683" type="line"/>
      <point x="188" y="776" type="line"/>
      <point x="96" y="760" type="line"/>
      <point x="96" y="683" type="line"/>
      <point x="22" y="683" type="line"/>
      <point x="22" y="614" type="line"/>
      <point x="96" y="614" type="line"/>
      <point x="96" y="15" type="line"/>
      <point x="134" y="3"/>
      <point x="198" y="-12"/>
    </contour>
    <contour>
      <point x="267" y="69" type="curve" smooth="yes"/>
      <point x="243" y="69"/>
      <point x="215" y="73"/>
      <point x="188" y="81" type="curve"/>
      <point x="188" y="410" type="line"/>
      <point x="208" y="429"/>
      <point x="251" y="450"/>
      <point x="292" y="450" type="curve" smooth="yes"/>
      <point x="383" y="450"/>
      <point x="420" y="368"/>
      <point x="420" y="260" type="curve" smooth="yes"/>
      <point x="420" y="134"/>
      <point x="362" y="69"/>
    </contour>
  </outline>
</glyph>
<glyph name="uni0181" format="2">
  <advance width="560"/>
  <unicode hex="0181"/>
  <outline>
    <contour>
      <point x="321" y="-6" type="curve" smooth="yes"/>
      <point x="476" y="-6"/>
      <point x="540" y="65"/>
      <point x="540" y="203" type="curve" smooth="yes"/>
      <point x="540" y="292"/>
      <point x="492" y="349"/>
      <point x="416" y="371" type="curve"/>
      <point x="472" y="392"/>
      <point x="508" y="454"/>
      <point x="508" y="519" type="curve" smooth="yes"/>
      <point x="508" y="655"/>
      <point x="428" y="700"/>
      <point x="320" y="700" type="curve" smooth="yes"/>
      <point x="165" y="699"/>
      <point x="20" y="691"/>
      <point x="20" y="541" type="curve" smooth="yes"/>
      <point x="20" y="522"/>
      <point x="25" y="501"/>
      <point x="28" y="492" type="curve"/>
      <point x="103" y="501" type="line"/>
      <point x="100" y="515"/>
      <point x="99" y="528"/>
      <point x="99" y="538" type="curve" smooth="yes"/>
      <point x="99" y="581"/>
      <point x="121" y="605"/>
      <point x="178" y="612" type="curve"/>
      <point x="178" y="11" type="line"/>
      <point x="217" y="-1"/>
      <point x="281" y="-6"/>
    </contour>
    <contour>
      <point x="323" y="72" type="curve" smooth="yes"/>
      <point x="306" y="72"/>
      <point x="287" y="74"/>
      <point x="270" y="76" type="curve"/>
      <point x="270" y="324" type="line"/>
      <point x="308" y="324" type="line"/>
      <point x="379" y="324"/>
      <point x="448" y="298"/>
      <point x="448" y="202" type="curve" smooth="yes"/>
      <point x="448" y="96"/>
      <point x="390" y="72"/>
    </contour>
    <contour>
      <point x="270" y="400" type="line"/>
      <point x="270" y="618" type="line"/>
      <point x="286" y="622"/>
      <point x="301" y="622"/>
      <point x="315" y="622" type="curve" smooth="yes"/>
      <point x="380" y="622"/>
      <point x="416" y="590"/>
      <point x="416" y="511" type="curve" smooth="yes"/>
      <point x="416" y="421"/>
      <point x="351" y="400"/>
      <point x="297" y="400" type="curve" smooth="yes"/>
    </contour>
  </outline>
</glyph>
<glyph name="uni0182" format="2">
  <advance width="560"/>
  <unicode hex="0182"/>
  <outline>
    <contour>
      <point x="230" y="-6" type="curve" smooth="yes"/>
      <point x="407" y="-6"/>
      <point x="505" y="67"/>
      <point x="505" y="214" type="curve" smooth="yes"/>
      <point x="505" y="373"/>
      <point x="403" y="429"/>
      <point x="226" y="429" type="curve" smooth="yes"/>
      <point x="152" y="429" type="line"/>
      <point x="152" y="615" type="line"/>
      <point x="444" y="615" type="line"/>
      <point x="444" y="693" type="line"/>
      <point x="60" y="693" type="line"/>
      <point x="60" y="11" type="line"/>
      <point x="110" y="-2"/>
      <point x="178" y="-6"/>
    </contour>
    <contour>
      <point x="234" y="72" type="curve" smooth="yes"/>
      <point x="207" y="72"/>
      <point x="190" y="72"/>
      <point x="152" y="76" type="curve"/>
      <point x="152" y="354" type="line"/>
      <point x="222" y="354" type="line" smooth="yes"/>
      <point x="337" y="354"/>
      <point x="413" y="324"/>
      <point x="413" y="213" type="curve" smooth="yes"/>
      <point x="413" y="106"/>
      <point x="335" y="72"/>
    </contour>
  </outline>
</glyph>
<glyph name="uni0183" format="2">
  <advance width="560"/>
  <unicode hex="0183"/>
  <outline>
    <contour>
      <point x="267" y="-12" type="curve" smooth="yes"/>
      <point x="416" y="-12"/>
      <point x="515" y="92"/>
      <point x="515" y="260" type="curve" smooth="yes"/>
      <point x="515" y="420"/>
      <point x="432" y="532"/>
      <point x="292" y="532" type="curve" smooth="yes"/>
      <point x="240" y="532"/>
      <point x="195" y="514"/>
      <point x="172" y="501" type="curve"/>
      <point x="172" y="693" type="line"/>
      <point x="459" y="693" type="line"/>
      <point x="459" y="772" type="line"/>
      <point x="80" y="772" type="line"/>
      <point x="80" y="15" type="line"/>
      <point x="119" y="3"/>
      <point x="185" y="-12"/>
    </contour>
    <contour>
      <point x="255" y="69" type="curve" smooth="yes"/>
      <point x="230" y="69"/>
      <point x="200" y="73"/>
      <point x="172" y="81" type="curve"/>
      <point x="172" y="410" type="line"/>
      <point x="193" y="429"/>
      <point x="239" y="450"/>
      <point x="281" y="450" type="curve" smooth="yes"/>
      <point x="379" y="450"/>
      <point x="420" y="368"/>
      <point x="420" y="260" type="curve" smooth="yes"/>
      <point x="420" y="134"/>
      <point x="357" y="69"/>
    </contour>
  </outline>
</glyph>
<glyph name="uni0186" format="2">
  <advance width="560"/>
  <unicode hex="0186"/>
  <anchor x="280" y="0" name="bottom"/>
  <anchor x="280" y="776" name="top"/>
  <outline>
    <contour>
      <point x="223" y="-15" type="curve" smooth="yes"/>
      <point x="381" y="-15"/>
      <point x="508" y="100"/>
      <point x="508" y="347" type="curve" smooth="yes"/>
      <point x="508" y="599"/>
      <point x="389" y="709"/>
      <point x="231" y="709" type="curve" smooth="yes"/>
      <point x="176" y="709"/>
      <point x="94" y="694"/>
      <point x="49" y="663" type="curve"/>
      <point x="73" y="590" type="line"/>
      <point x="124" y="620"/>
      <point x="174" y="627"/>
      <point x="216" y="627" type="curve" smooth="yes"/>
      <point x="346" y="627"/>
      <point x="414" y="525"/>
      <point x="414" y="347" type="curve" smooth="yes"/>
      <point x="414" y="157"/>
      <point x="335" y="67"/>
      <point x="212" y="67" type="curve" smooth="yes"/>
      <point x="168" y="67"/>
      <point x="122" y="77"/>
      <point x="71" y="105" type="curve"/>
      <point x="47" y="29" type="line"/>
      <point x="100" y="-1"/>
      <point x="156" y="-15"/>
    </contour>
  </outline>
</glyph>
<glyph name="uni0187" format="2">
  <advance width="560"/>
  <unicode hex="0187"/>
  <anchor x="280" y="0" name="bottom"/>
  <anchor x="280" y="776" name="top"/>
  <outline>
    <contour>
      <point x="314" y="-15" type="curve" smooth="yes"/>
      <point x="374" y="-15"/>
      <point x="427" y="-1"/>
      <point x="475" y="29" type="curve"/>
      <point x="451" y="105" type="line"/>
      <point x="407" y="77"/>
      <point x="363" y="67"/>
      <point x="324" y="67" type="curve" smooth="yes"/>
      <point x="221" y="67"/>
      <point x="146" y="157"/>
      <point x="146" y="347" type="curve" smooth="yes"/>
      <point x="146" y="513"/>
      <point x="218" y="627"/>
      <point x="325" y="627" type="curve" smooth="yes"/>
      <point x="360" y="627"/>
      <point x="393" y="617"/>
      <point x="435" y="594" type="curve"/>
      <point x="444" y="633" type="line"/>
      <point x="456" y="675"/>
      <point x="470" y="713"/>
      <point x="504" y="713" type="curve" smooth="yes"/>
      <point x="512" y="713"/>
      <point x="528" y="710"/>
      <point x="535" y="706" type="curve"/>
      <point x="550" y="774" type="line"/>
      <point x="538" y="781"/>
      <point x="514" y="786"/>
      <point x="500" y="786" type="curve" smooth="yes"/>
      <point x="437" y="786"/>
      <point x="407" y="769"/>
      <point x="386" y="697" type="curve"/>
      <point x="363" y="706"/>
      <point x="340" y="709"/>
      <point x="314" y="709" type="curve" smooth="yes"/>
      <point x="178" y="709"/>
      <point x="52" y="575"/>
      <point x="52" y="347" type="curve" smooth="yes"/>
      <point x="52" y="100"/>
      <point x="164" y="-15"/>
    </contour>
  </outline>
</glyph>
<glyph name="uni018D" format="2">
  <advance width="560"/>
  <unicode hex="018D"/>
  <outline>
    <contour>
      <point x="243" y="-185" type="curve" smooth="yes"/>
      <point x="360" y="-185"/>
      <point x="431" y="-147"/>
      <point x="431" y="-68" type="curve" smooth="yes"/>
      <point x="431" y="-11"/>
      <point x="396" y="24"/>
      <point x="351" y="52" type="curve"/>
      <point x="470" y="101"/>
      <point x="515" y="200"/>
      <point x="515" y="295" type="curve" smooth="yes"/>
      <point x="515" y="424"/>
      <point x="444" y="532"/>
      <point x="280" y="532" type="curve" smooth="yes"/>
      <point x="108" y="532"/>
      <point x="44" y="413"/>
      <point x="44" y="302" type="curve" smooth="yes"/>
      <point x="44" y="152"/>
      <point x="139" y="94"/>
      <point x="243" y="26" type="curve" smooth="yes"/>
      <point x="304" y="-13"/>
      <point x="339" y="-38"/>
      <point x="339" y="-74" type="curve" smooth="yes"/>
      <point x="339" y="-108"/>
      <point x="276" y="-111"/>
      <point x="239" y="-111" type="curve" smooth="yes"/>
      <point x="174" y="-111"/>
      <point x="116" y="-91"/>
      <point x="103" y="-84" type="curve"/>
      <point x="86" y="-160" type="line"/>
      <point x="111" y="-169"/>
      <point x="178" y="-185"/>
    </contour>
    <contour>
      <point x="273" y="97" type="curve"/>
      <point x="204" y="138"/>
      <point x="140" y="189"/>
      <point x="140" y="297" type="curve" smooth="yes"/>
      <point x="140" y="382"/>
      <point x="183" y="450"/>
      <point x="279" y="450" type="curve" smooth="yes"/>
      <point x="383" y="450"/>
      <point x="419" y="375"/>
      <point x="419" y="292" type="curve" smooth="yes"/>
      <point x="419" y="215"/>
      <point x="388" y="133"/>
    </contour>
  </outline>
</glyph>
<glyph name="uni018E" format="2">
  <advance width="560"/>
  <unicode hex="018E"/>
  <anchor x="280" y="0" name="bottom"/>
  <anchor x="280" y="776" name="top"/>
  <outline>
    <contour>
      <point x="45" y="0" type="line"/>
      <point x="458" y="0" type="line"/>
      <point x="458" y="693" type="line"/>
      <point x="71" y="693" type="line"/>
      <point x="71" y="615" type="line"/>
      <point x="366" y="615" type="line"/>
      <point x="366" y="402" type="line"/>
      <point x="106" y="402" type="line"/>
      <point x="106" y="324" type="line"/>
      <point x="366" y="324" type="line"/>
      <point x="366" y="78" type="line"/>
      <point x="45" y="78" type="line"/>
    </contour>
  </outline>
</glyph>
<glyph name="uni018F" format="2">
  <advance width="560"/>
  <unicode hex="018F"/>
  <anchor x="280" y="0" name="bottom"/>
  <anchor x="280" y="776" name="top"/>
  <outline>
    <contour>
      <point x="268" y="-15" type="curve" smooth="yes"/>
      <point x="414" y="-15"/>
      <point x="529" y="106"/>
      <point x="529" y="351" type="curve" smooth="yes"/>
      <point x="529" y="557"/>
      <point x="436" y="709"/>
      <point x="239" y="709" type="curve" smooth="yes"/>
      <point x="164" y="709"/>
      <point x="91" y="678"/>
      <point x="75" y="663" type="curve"/>
      <point x="99" y="590" type="line"/>
      <point x="120" y="603"/>
      <point x="172" y="631"/>
      <point x="228" y="631" type="curve" smooth="yes"/>
      <point x="358" y="631"/>
      <point x="426" y="542"/>
      <point x="435" y="370" type="curve"/>
      <point x="31" y="370" type="line"/>
      <point x="30" y="362"/>
      <point x="28" y="343"/>
      <point x="28" y="332" type="curve" smooth="yes"/>
      <point x="28" y="101"/>
      <point x="116" y="-15"/>
    </contour>
    <contour>
      <point x="270" y="63" type="curve" smooth="yes"/>
      <point x="179" y="63"/>
      <point x="120" y="143"/>
      <point x="121" y="292" type="curve"/>
      <point x="432" y="292" type="line"/>
      <point x="426" y="185"/>
      <point x="373" y="63"/>
    </contour>
  </outline>
</glyph>
<glyph name="uni0190" format="2">
  <advance width="560"/>
  <unicode hex="0190"/>
  <anchor x="280" y="0" name="bottom"/>
  <anchor x="280" y="776" name="top"/>
  <outline>
    <contour>
      <point x="314" y="-13" type="curve" smooth="yes"/>
      <point x="414" y="-13"/>
      <point x="493" y="20"/>
      <point x="524" y="36" type="curve"/>
      <point x="496" y="110" type="line"/>
      <point x="464" y="94"/>
      <point x="398" y="65"/>
      <point x="314" y="65" type="curve" smooth="yes"/>
      <point x="207" y="65"/>
      <point x="137" y="101"/>
      <point x="137" y="194" type="curve" smooth="yes"/>
      <point x="137" y="302"/>
      <point x="239" y="327"/>
      <point x="361" y="327" type="curve" smooth="yes"/>
      <point x="408" y="327" type="line"/>
      <point x="408" y="405" type="line"/>
      <point x="371" y="405" type="line" smooth="yes"/>
      <point x="282" y="405"/>
      <point x="168" y="428"/>
      <point x="168" y="524" type="curve" smooth="yes"/>
      <point x="168" y="585"/>
      <point x="224" y="627"/>
      <point x="304" y="627" type="curve" smooth="yes"/>
      <point x="375" y="627"/>
      <point x="439" y="608"/>
      <point x="469" y="591" type="curve"/>
      <point x="500" y="664" type="line"/>
      <point x="465" y="687"/>
      <point x="386" y="706"/>
      <point x="304" y="706" type="curve" smooth="yes"/>
      <point x="171" y="706"/>
      <point x="76" y="650"/>
      <point x="76" y="526" type="curve" smooth="yes"/>
      <point x="76" y="463"/>
      <point x="118" y="400"/>
      <point x="198" y="374" type="curve"/>
      <point x="116" y="353"/>
      <point x="45" y="298"/>
      <point x="45" y="192" type="curve" smooth="yes"/>
      <point x="45" y="44"/>
      <point x="152" y="-13"/>
    </contour>
  </outline>
</glyph>
<glyph name="uni0191" format="2">
  <advance width="560"/>
  <unicode hex="0191"/>
  <outline>
    <contour>
      <point x="60" y="-187" type="curve" smooth="yes"/>
      <point x="176" y="-187"/>
      <point x="204" y="-118"/>
      <point x="204" y="0" type="curve" smooth="yes"/>
      <point x="204" y="321" type="line"/>
      <point x="469" y="321" type="line"/>
      <point x="469" y="399" type="line"/>
      <point x="204" y="399" type="line"/>
      <point x="204" y="615" type="line"/>
      <point x="505" y="615" type="line"/>
      <point x="505" y="693" type="line"/>
      <point x="112" y="693" type="line"/>
      <point x="112" y="-17" type="line" smooth="yes"/>
      <point x="112" y="-77"/>
      <point x="99" y="-111"/>
      <point x="50" y="-111" type="curve" smooth="yes"/>
      <point x="39" y="-111"/>
      <point x="26" y="-111"/>
      <point x="12" y="-108" type="curve"/>
      <point x="3" y="-181" type="line"/>
      <point x="18" y="-185"/>
      <point x="41" y="-187"/>
    </contour>
  </outline>
</glyph>
<glyph name="florin" format="2">
  <advance width="560"/>
  <unicode hex="0192"/>
  <outline>
    <contour>
      <point x="88" y="-190" type="curve" smooth="yes"/>
      <point x="185" y="-190"/>
      <point x="272" y="-139"/>
      <point x="272" y="3" type="curve" smooth="yes"/>
      <point x="272" y="442" type="line"/>
      <point x="482" y="442" type="line"/>
      <point x="482" y="520" type="line"/>
      <point x="272" y="520" type="line"/>
      <point x="272" y="566" type="line" smooth="yes"/>
      <point x="272" y="668"/>
      <point x="324" y="697"/>
      <point x="386" y="697" type="curve" smooth="yes"/>
      <point x="437" y="697"/>
      <point x="491" y="683"/>
      <point x="523" y="666" type="curve"/>
      <point x="540" y="746" type="line"/>
      <point x="493" y="763"/>
      <point x="436" y="776"/>
      <point x="382" y="776" type="curve" smooth="yes"/>
      <point x="276" y="776"/>
      <point x="180" y="727"/>
      <point x="180" y="567" type="curve" smooth="yes"/>
      <point x="180" y="520" type="line"/>
      <point x="71" y="520" type="line"/>
      <point x="71" y="442" type="line"/>
      <point x="180" y="442" type="line"/>
      <point x="180" y="4" type="line" smooth="yes"/>
      <point x="180" y="-84"/>
      <point x="136" y="-110"/>
      <point x="77" y="-110" type="curve" smooth="yes"/>
      <point x="59" y="-110"/>
      <point x="43" y="-106"/>
      <point x="28" y="-101" type="curve"/>
      <point x="8" y="-180" type="line"/>
      <point x="28" y="-185"/>
      <point x="47" y="-190"/>
    </contour>
  </outline>
</glyph>
<glyph name="uni0194" format="2">
  <advance width="560"/>
  <unicode hex="0194"/>
  <anchor x="280" y="0" name="bottom"/>
  <anchor x="280" y="776" name="top"/>
  <outline>
    <contour>
      <point x="280" y="-184" type="curve" smooth="yes"/>
      <point x="390" y="-184"/>
      <point x="421" y="-105"/>
      <point x="421" y="-46" type="curve" smooth="yes"/>
      <point x="421" y="-21"/>
      <point x="407" y="19"/>
      <point x="391" y="52" type="curve" smooth="yes"/>
      <point x="329" y="172" type="line"/>
      <point x="419" y="368"/>
      <point x="510" y="600"/>
      <point x="547" y="693" type="curve"/>
      <point x="451" y="693" type="line"/>
      <point x="424" y="622"/>
      <point x="346" y="412"/>
      <point x="282" y="250" type="curve"/>
      <point x="203" y="448"/>
      <point x="160" y="560"/>
      <point x="111" y="693" type="curve"/>
      <point x="15" y="693" type="line"/>
      <point x="77" y="525"/>
      <point x="150" y="343"/>
      <point x="232" y="174" type="curve"/>
      <point x="169" y="52" type="line" smooth="yes"/>
      <point x="148" y="10"/>
      <point x="139" y="-21"/>
      <point x="139" y="-46" type="curve" smooth="yes"/>
      <point x="139" y="-105"/>
      <point x="170" y="-184"/>
    </contour>
    <contour>
      <point x="280" y="-108" type="curve" smooth="yes"/>
      <point x="241" y="-108"/>
      <point x="221" y="-77"/>
      <point x="221" y="-41" type="curve" smooth="yes"/>
      <point x="221" y="-20"/>
      <point x="228" y="0"/>
      <point x="279" y="95" type="curve"/>
      <point x="332" y="1"/>
      <point x="339" y="-20"/>
      <point x="339" y="-41" type="curve" smooth="yes"/>
      <point x="339" y="-77"/>
      <point x="319" y="-108"/>
    </contour>
  </outline>
</glyph>
<glyph name="uni0195" format="2">
  <advance width="560"/>
  <unicode hex="0195"/>
  <outline>
    <contour>
      <point x="372" y="-11" type="curve" smooth="yes"/>
      <point x="491" y="-11"/>
      <point x="517" y="77"/>
      <point x="517" y="195" type="curve" smooth="yes"/>
      <point x="517" y="520" type="line"/>
      <point x="429" y="520" type="line"/>
      <point x="429" y="208" type="line" smooth="yes"/>
      <point x="429" y="91"/>
      <point x="410" y="73"/>
      <point x="374" y="73" type="curve" smooth="yes"/>
      <point x="338" y="73"/>
      <point x="317" y="92"/>
      <point x="317" y="209" type="curve" smooth="yes"/>
      <point x="317" y="365" type="line"/>
      <point x="317" y="494"/>
      <point x="253" y="531"/>
      <point x="194" y="531" type="curve" smooth="yes"/>
      <point x="171" y="531"/>
      <point x="144" y="523"/>
      <point x="128" y="510" type="curve"/>
      <point x="128" y="776" type="line"/>
      <point x="40" y="760" type="line"/>
      <point x="40" y="0" type="line"/>
      <point x="128" y="0" type="line"/>
      <point x="128" y="432" type="line"/>
      <point x="139" y="440"/>
      <point x="159" y="449"/>
      <point x="176" y="449" type="curve" smooth="yes"/>
      <point x="200" y="449"/>
      <point x="228" y="436"/>
      <point x="228" y="351" type="curve" smooth="yes"/>
      <point x="228" y="196" type="line" smooth="yes"/>
      <point x="228" y="78"/>
      <point x="253" y="-11"/>
    </contour>
  </outline>
</glyph>
<glyph name="uni0196" format="2">
  <advance width="560"/>
  <unicode hex="0196"/>
  <anchor x="280" y="0" name="bottom"/>
  <anchor x="280" y="776" name="top"/>
  <outline>
    <contour>
      <point x="391" y="-15" type="curve" smooth="yes"/>
      <point x="439" y="-15"/>
      <point x="493" y="-1"/>
      <point x="511" y="12" type="curve"/>
      <point x="493" y="90" type="line"/>
      <point x="476" y="81"/>
      <point x="444" y="67"/>
      <point x="405" y="67" type="curve" smooth="yes"/>
      <point x="333" y="67"/>
      <point x="302" y="94"/>
      <point x="302" y="185" type="curve" smooth="yes"/>
      <point x="302" y="615" type="line"/>
      <point x="456" y="615" type="line"/>
      <point x="456" y="693" type="line"/>
      <point x="76" y="693" type="line"/>
      <point x="76" y="615" type="line"/>
      <point x="211" y="615" type="line"/>
      <point x="211" y="189" type="line"/>
      <point x="211" y="46"/>
      <point x="254" y="-15"/>
    </contour>
  </outline>
</glyph>
<glyph name="uni0198" format="2">
  <advance width="560"/>
  <unicode hex="0198"/>
  <anchor x="280" y="0" name="bottom"/>
  <anchor x="280" y="776" name="top"/>
  <outline>
    <contour>
      <point x="72" y="0" type="line"/>
      <point x="164" y="0" type="line"/>
      <point x="164" y="332" type="line"/>
      <point x="269" y="264"/>
      <point x="372" y="139"/>
      <point x="446" y="0" type="curve"/>
      <point x="550" y="0" type="line"/>
      <point x="487" y="150"/>
      <point x="357" y="295"/>
      <point x="261" y="373" type="curve"/>
      <point x="379" y="532" type="line" smooth="yes"/>
      <point x="422" y="591"/>
      <point x="444" y="625"/>
      <point x="472" y="625" type="curve" smooth="yes"/>
      <point x="486" y="625"/>
      <point x="506" y="616"/>
      <point x="528" y="595" type="curve"/>
      <point x="568" y="659" type="line"/>
      <point x="538" y="691"/>
      <point x="500" y="707"/>
      <point x="465" y="707" type="curve" smooth="yes"/>
      <point x="423" y="707"/>
      <point x="381" y="680"/>
      <point x="340" y="624" type="curve" smooth="yes"/>
      <point x="164" y="384" type="line"/>
      <point x="164" y="693" type="line"/>
      <point x="72" y="693" type="line"/>
    </contour>
  </outline>
</glyph>
<glyph name="uni0199" format="2">
  <advance width="560"/>
  <unicode hex="0199"/>
  <anchor x="280" y="0" name="bottom"/>
  <anchor x="280" y="582" name="top"/>
  <outline>
    <contour>
      <point x="80" y="0" type="line"/>
      <point x="172" y="0" type="line"/>
      <point x="172" y="250" type="line"/>
      <point x="248" y="200"/>
      <point x="370" y="93"/>
      <point x="426" y="0" type="curve"/>
      <point x="535" y="0" type="line"/>
      <point x="482" y="93"/>
      <point x="346" y="226"/>
      <point x="267" y="286" type="curve"/>
      <point x="353" y="360"/>
      <point x="451" y="444"/>
      <point x="515" y="520" type="curve"/>
      <point x="407" y="520" type="line"/>
      <point x="342" y="444"/>
      <point x="254" y="374"/>
      <point x="172" y="302" type="curve"/>
      <point x="172" y="606" type="line" smooth="yes"/>
      <point x="172" y="666"/>
      <point x="189" y="700"/>
      <point x="239" y="700" type="curve" smooth="yes"/>
      <point x="249" y="700"/>
      <point x="270" y="699"/>
      <point x="281" y="696" type="curve"/>
      <point x="290" y="768" type="line"/>
      <point x="276" y="772"/>
      <point x="248" y="776"/>
      <point x="228" y="776" type="curve" smooth="yes"/>
      <point x="108" y="776"/>
      <point x="80" y="712"/>
      <point x="80" y="589" type="curve" smooth="yes"/>
    </contour>
  </outline>
</glyph>
<glyph name="uni019A" format="2">
  <advance width="560"/>
  <unicode hex="019A"/>
  <outline>
    <contour>
      <point x="379" y="-12" type="curve" smooth="yes"/>
      <point x="435" y="-12"/>
      <point x="487" y="8"/>
      <point x="504" y="17" type="curve"/>
      <point x="491" y="95" type="line"/>
      <point x="469" y="84"/>
      <point x="430" y="71"/>
      <point x="386" y="71" type="curve" smooth="yes"/>
      <point x="330" y="71"/>
      <point x="302" y="97"/>
      <point x="302" y="200" type="curve" smooth="yes"/>
      <point x="302" y="367" type="line"/>
      <point x="450" y="367" type="line"/>
      <point x="450" y="437" type="line"/>
      <point x="302" y="437" type="line"/>
      <point x="302" y="771" type="line"/>
      <point x="60" y="771" type="line"/>
      <point x="60" y="692" type="line"/>
      <point x="211" y="692" type="line"/>
      <point x="211" y="437" type="line"/>
      <point x="60" y="437" type="line"/>
      <point x="60" y="367" type="line"/>
      <point x="211" y="367" type="line"/>
      <point x="211" y="200" type="line" smooth="yes"/>
      <point x="211" y="60"/>
      <point x="248" y="-12"/>
    </contour>
  </outline>
</glyph>
<glyph name="uni019B" format="2">
  <advance width="560"/>
  <unicode hex="019B"/>
  <anchor x="280" y="0" name="bottom"/>
  <anchor x="280" y="869" name="top"/>
  <outline>
    <contour>
      <point x="32" y="0" type="curve"/>
      <point x="124" y="0" type="line"/>
      <point x="152" y="109"/>
      <point x="212" y="286"/>
      <point x="289" y="426" type="curve"/>
      <point x="340" y="291"/>
      <point x="388" y="134"/>
      <point x="420" y="0" type="curve"/>
      <point x="524" y="0" type="line"/>
      <point x="478" y="168"/>
      <point x="402" y="390"/>
      <point x="309" y="608" type="curve"/>
      <point x="430" y="650" type="line"/>
      <point x="407" y="712" type="line"/>
      <point x="282" y="670" type="line"/>
      <point x="251" y="734"/>
      <point x="208" y="776"/>
      <point x="131" y="776" type="curve" smooth="yes"/>
      <point x="99" y="776"/>
      <point x="72" y="772"/>
      <point x="65" y="768" type="curve"/>
      <point x="78" y="694" type="line"/>
      <point x="85" y="697"/>
      <point x="99" y="700"/>
      <point x="118" y="700" type="curve" smooth="yes"/>
      <point x="155" y="700"/>
      <point x="177" y="680"/>
      <point x="198" y="641" type="curve"/>
      <point x="99" y="606" type="line"/>
      <point x="121" y="543" type="line"/>
      <point x="226" y="579" type="line"/>
      <point x="233" y="562"/>
      <point x="241" y="544"/>
      <point x="248" y="528" type="curve"/>
      <point x="159" y="363"/>
      <point x="71" y="149"/>
    </contour>
  </outline>
</glyph>
<glyph name="uni019D" format="2">
  <advance width="560"/>
  <unicode hex="019D"/>
  <anchor x="280" y="0" name="bottom"/>
  <anchor x="280" y="776" name="top"/>
  <outline>
    <contour>
      <point x="2" y="-187" type="curve" smooth="yes"/>
      <point x="118" y="-187"/>
      <point x="146" y="-118"/>
      <point x="146" y="0" type="curve" smooth="yes"/>
      <point x="146" y="553" type="line"/>
      <point x="246" y="366"/>
      <point x="370" y="139"/>
      <point x="414" y="0" type="curve"/>
      <point x="498" y="0" type="line"/>
      <point x="498" y="693" type="line"/>
      <point x="414" y="693" type="line"/>
      <point x="414" y="190" type="line"/>
      <point x="352" y="338"/>
      <point x="250" y="524"/>
      <point x="156" y="693" type="curve"/>
      <point x="62" y="693" type="line"/>
      <point x="62" y="-17" type="line" smooth="yes"/>
      <point x="62" y="-77"/>
      <point x="49" y="-111"/>
      <point x="0" y="-111" type="curve" smooth="yes"/>
      <point x="-11" y="-111"/>
      <point x="-24" y="-111"/>
      <point x="-38" y="-108" type="curve"/>
      <point x="-55" y="-181" type="line"/>
      <point x="-40" y="-185"/>
      <point x="-17" y="-187"/>
    </contour>
  </outline>
</glyph>
<glyph name="uni019E" format="2">
  <advance width="560"/>
  <unicode hex="019E"/>
  <outline>
    <contour>
      <point x="392" y="-185" type="line"/>
      <point x="484" y="-185" type="line"/>
      <point x="484" y="305" type="line" smooth="yes"/>
      <point x="484" y="463"/>
      <point x="411" y="531"/>
      <point x="273" y="531" type="curve" smooth="yes"/>
      <point x="215" y="531"/>
      <point x="146" y="522"/>
      <point x="80" y="505" type="curve"/>
      <point x="80" y="0" type="line"/>
      <point x="172" y="0" type="line"/>
      <point x="172" y="444" type="line"/>
      <point x="204" y="449"/>
      <point x="239" y="454"/>
      <point x="269" y="454" type="curve" smooth="yes"/>
      <point x="342" y="454"/>
      <point x="392" y="426"/>
      <point x="392" y="292" type="curve" smooth="yes"/>
    </contour>
  </outline>
</glyph>
<glyph name="uni019F" format="2">
  <advance width="560"/>
  <unicode hex="019F"/>
  <outline>
    <contour>
      <point x="280" y="-15" type="curve" smooth="yes"/>
      <point x="427" y="-15"/>
      <point x="529" y="99"/>
      <point x="529" y="347" type="curve" smooth="yes"/>
      <point x="529" y="595"/>
      <point x="427" y="709"/>
      <point x="280" y="709" type="curve" smooth="yes"/>
      <point x="132" y="709"/>
      <point x="32" y="595"/>
      <point x="32" y="347" type="curve" smooth="yes"/>
      <point x="32" y="99"/>
      <point x="132" y="-15"/>
    </contour>
    <contour>
      <point x="278" y="65" type="curve" smooth="yes"/>
      <point x="181" y="65"/>
      <point x="133" y="153"/>
      <point x="127" y="314" type="curve"/>
      <point x="433" y="314" type="line"/>
      <point x="426" y="153"/>
      <point x="375" y="65"/>
    </contour>
    <contour>
      <point x="127" y="385" type="line"/>
      <point x="133" y="542"/>
      <point x="183" y="629"/>
      <point x="278" y="629" type="curve" smooth="yes"/>
      <point x="374" y="629"/>
      <point x="426" y="542"/>
      <point x="433" y="385" type="curve"/>
    </contour>
  </outline>
</glyph>
<glyph name="uni01A4" format="2">
  <advance width="560"/>
  <unicode hex="01A4"/>
  <outline>
    <contour>
      <point x="178" y="0" type="line"/>
      <point x="270" y="0" type="line"/>
      <point x="270" y="259" type="line"/>
      <point x="321" y="259" type="line" smooth="yes"/>
      <point x="456" y="259"/>
      <point x="525" y="342"/>
      <point x="525" y="485" type="curve" smooth="yes"/>
      <point x="525" y="613"/>
      <point x="463" y="700"/>
      <point x="320" y="700" type="curve" smooth="yes"/>
      <point x="177" y="700"/>
      <point x="20" y="697"/>
      <point x="20" y="541" type="curve" smooth="yes"/>
      <point x="20" y="522"/>
      <point x="25" y="501"/>
      <point x="28" y="492" type="curve"/>
      <point x="103" y="501" type="line"/>
      <point x="100" y="515"/>
      <point x="99" y="528"/>
      <point x="99" y="538" type="curve" smooth="yes"/>
      <point x="99" y="581"/>
      <point x="121" y="605"/>
      <point x="178" y="612" type="curve"/>
    </contour>
    <contour>
      <point x="270" y="337" type="line"/>
      <point x="270" y="617" type="line"/>
      <point x="282" y="619"/>
      <point x="310" y="620"/>
      <point x="337" y="620" type="curve" smooth="yes"/>
      <point x="399" y="620"/>
      <point x="431" y="572"/>
      <point x="431" y="482" type="curve" smooth="yes"/>
      <point x="431" y="380"/>
      <point x="394" y="337"/>
      <point x="317" y="337" type="curve" smooth="yes"/>
    </contour>
  </outline>
</glyph>
<glyph name="uni01A5" format="2">
  <advance width="560"/>
  <unicode hex="01A5"/>
  <anchor x="280" y="0" name="bottom"/>
  <anchor x="280" y="582" name="top"/>
  <outline>
    <contour>
      <point x="80" y="-185" type="line"/>
      <point x="172" y="-185" type="line"/>
      <point x="172" y="20" type="line"/>
      <point x="194" y="4"/>
      <point x="237" y="-12"/>
      <point x="292" y="-12" type="curve" smooth="yes"/>
      <point x="432" y="-12"/>
      <point x="515" y="101"/>
      <point x="515" y="259" type="curve" smooth="yes"/>
      <point x="515" y="426"/>
      <point x="414" y="531"/>
      <point x="276" y="531" type="curve" smooth="yes"/>
      <point x="242" y="531"/>
      <point x="207" y="524"/>
      <point x="172" y="511" type="curve"/>
      <point x="172" y="606" type="line" smooth="yes"/>
      <point x="172" y="666"/>
      <point x="189" y="700"/>
      <point x="239" y="700" type="curve" smooth="yes"/>
      <point x="249" y="700"/>
      <point x="270" y="699"/>
      <point x="281" y="696" type="curve"/>
      <point x="290" y="768" type="line"/>
      <point x="276" y="772"/>
      <point x="248" y="776"/>
      <point x="228" y="776" type="curve" smooth="yes"/>
      <point x="108" y="776"/>
      <point x="80" y="712"/>
      <point x="80" y="589" type="curve" smooth="yes"/>
    </contour>
    <contour>
      <point x="281" y="71" type="curve" smooth="yes"/>
      <point x="239" y="71"/>
      <point x="194" y="91"/>
      <point x="172" y="110" type="curve"/>
      <point x="172" y="432" type="line"/>
      <point x="188" y="437"/>
      <point x="224" y="449"/>
      <point x="267" y="449" type="curve" smooth="yes"/>
      <point x="357" y="449"/>
      <point x="420" y="380"/>
      <point x="420" y="259" type="curve" smooth="yes"/>
      <point x="420" y="152"/>
      <point x="379" y="71"/>
    </contour>
  </outline>
</glyph>
<glyph name="uni01A6" format="2">
  <advance width="560"/>
  <unicode hex="01A6"/>
  <outline>
    <contour>
      <point x="446" y="-109" type="curve"/>
      <point x="550" y="-109" type="line"/>
      <point x="501" y="24"/>
      <point x="420" y="183"/>
      <point x="358" y="293" type="curve"/>
      <point x="433" y="328"/>
      <point x="483" y="396"/>
      <point x="483" y="482" type="curve" smooth="yes"/>
      <point x="483" y="626"/>
      <point x="396" y="700"/>
      <point x="231" y="700" type="curve" smooth="yes"/>
      <point x="209" y="700"/>
      <point x="183" y="699"/>
      <point x="155" y="697" type="curve"/>
      <point x="155" y="776" type="line"/>
      <point x="62" y="776" type="line"/>
      <point x="62" y="0" type="line"/>
      <point x="155" y="0" type="line"/>
      <point x="155" y="273" type="line"/>
      <point x="233" y="273" type="line" smooth="yes"/>
      <point x="239" y="273"/>
      <point x="259" y="273"/>
      <point x="268" y="274" type="curve"/>
      <point x="329" y="170"/>
      <point x="400" y="21"/>
    </contour>
    <contour>
      <point x="155" y="349" type="line"/>
      <point x="155" y="617" type="line"/>
      <point x="168" y="619"/>
      <point x="204" y="620"/>
      <point x="239" y="620" type="curve" smooth="yes"/>
      <point x="319" y="620"/>
      <point x="389" y="594"/>
      <point x="389" y="486" type="curve" smooth="yes"/>
      <point x="389" y="374"/>
      <point x="320" y="349"/>
      <point x="214" y="349" type="curve" smooth="yes"/>
    </contour>
  </outline>
</glyph>
<glyph name="uni01A7" format="2">
  <advance width="560"/>
  <unicode hex="01A7"/>
  <outline>
    <contour>
      <point x="299" y="-15" type="curve" smooth="yes"/>
      <point x="399" y="-15"/>
      <point x="472" y="17"/>
      <point x="500" y="34" type="curve"/>
      <point x="472" y="110" type="line"/>
      <point x="442" y="93"/>
      <point x="382" y="65"/>
      <point x="299" y="65" type="curve" smooth="yes"/>
      <point x="206" y="65"/>
      <point x="155" y="102"/>
      <point x="155" y="172" type="curve" smooth="yes"/>
      <point x="155" y="259"/>
      <point x="234" y="292"/>
      <point x="311" y="323" type="curve" smooth="yes"/>
      <point x="401" y="360"/>
      <point x="483" y="407"/>
      <point x="483" y="516" type="curve" smooth="yes"/>
      <point x="483" y="636"/>
      <point x="402" y="709"/>
      <point x="267" y="709" type="curve" smooth="yes"/>
      <point x="190" y="709"/>
      <point x="119" y="688"/>
      <point x="88" y="666" type="curve"/>
      <point x="118" y="589" type="line"/>
      <point x="148" y="607"/>
      <point x="203" y="629"/>
      <point x="267" y="629" type="curve" smooth="yes"/>
      <point x="334" y="629"/>
      <point x="391" y="595"/>
      <point x="391" y="529" type="curve" smooth="yes"/>
      <point x="391" y="452"/>
      <point x="332" y="426"/>
      <point x="254" y="392" type="curve" smooth="yes"/>
      <point x="141" y="344"/>
      <point x="62" y="304"/>
      <point x="62" y="174" type="curve" smooth="yes"/>
      <point x="62" y="54"/>
      <point x="148" y="-15"/>
    </contour>
  </outline>
</glyph>
<glyph name="uni01A8" format="2">
  <advance width="560"/>
  <unicode hex="01A8"/>
  <outline>
    <contour>
      <point x="301" y="-12" type="curve" smooth="yes"/>
      <point x="372" y="-12"/>
      <point x="431" y="0"/>
      <point x="485" y="24" type="curve"/>
      <point x="467" y="108" type="line"/>
      <point x="416" y="84"/>
      <point x="357" y="66"/>
      <point x="293" y="66" type="curve" smooth="yes"/>
      <point x="208" y="66"/>
      <point x="166" y="86"/>
      <point x="166" y="130" type="curve" smooth="yes"/>
      <point x="166" y="178"/>
      <point x="222" y="199"/>
      <point x="286" y="222" type="curve" smooth="yes"/>
      <point x="373" y="251"/>
      <point x="475" y="283"/>
      <point x="475" y="385" type="curve" smooth="yes"/>
      <point x="475" y="469"/>
      <point x="409" y="532"/>
      <point x="265" y="532" type="curve" smooth="yes"/>
      <point x="207" y="532"/>
      <point x="142" y="523"/>
      <point x="99" y="510" type="curve"/>
      <point x="115" y="427" type="line"/>
      <point x="139" y="440"/>
      <point x="205" y="454"/>
      <point x="263" y="454" type="curve" smooth="yes"/>
      <point x="345" y="454"/>
      <point x="384" y="433"/>
      <point x="384" y="388" type="curve" smooth="yes"/>
      <point x="384" y="345"/>
      <point x="324" y="325"/>
      <point x="255" y="301" type="curve" smooth="yes"/>
      <point x="170" y="270"/>
      <point x="73" y="233"/>
      <point x="73" y="136" type="curve" smooth="yes"/>
      <point x="73" y="41"/>
      <point x="144" y="-12"/>
    </contour>
  </outline>
</glyph>
<glyph name="uni01AD" format="2">
  <advance width="560"/>
  <unicode hex="01AD"/>
  <anchor x="280" y="0" name="bottom"/>
  <anchor x="280" y="582" name="top"/>
  <outline>
    <contour>
      <point x="370" y="-12" type="curve" smooth="yes"/>
      <point x="440" y="-12"/>
      <point x="484" y="8"/>
      <point x="504" y="17" type="curve"/>
      <point x="491" y="95" type="line"/>
      <point x="461" y="81"/>
      <point x="432" y="71"/>
      <point x="379" y="71" type="curve" smooth="yes"/>
      <point x="301" y="71"/>
      <point x="272" y="97"/>
      <point x="272" y="200" type="curve" smooth="yes"/>
      <point x="272" y="442" type="line"/>
      <point x="482" y="442" type="line"/>
      <point x="482" y="520" type="line"/>
      <point x="272" y="520" type="line"/>
      <point x="272" y="571" type="line"/>
      <point x="272" y="647"/>
      <point x="300" y="697"/>
      <point x="398" y="697" type="curve" smooth="yes"/>
      <point x="447" y="697"/>
      <point x="480" y="687"/>
      <point x="498" y="679" type="curve"/>
      <point x="515" y="759" type="line"/>
      <point x="497" y="766"/>
      <point x="454" y="776"/>
      <point x="391" y="776" type="curve" smooth="yes"/>
      <point x="237" y="776"/>
      <point x="180" y="700"/>
      <point x="180" y="567" type="curve" smooth="yes"/>
      <point x="180" y="520" type="line"/>
      <point x="71" y="520" type="line"/>
      <point x="71" y="442" type="line"/>
      <point x="180" y="442" type="line"/>
      <point x="180" y="200" type="line" smooth="yes"/>
      <point x="180" y="60"/>
      <point x="215" y="-12"/>
    </contour>
  </outline>
</glyph>
<glyph name="uni01AE" format="2">
  <advance width="560"/>
  <unicode hex="01AE"/>
  <anchor x="280" y="0" name="bottom"/>
  <anchor x="280" y="776" name="top"/>
  <outline>
    <contour>
      <point x="379" y="-187" type="curve" smooth="yes"/>
      <point x="398" y="-187"/>
      <point x="420" y="-185"/>
      <point x="435" y="-181" type="curve"/>
      <point x="426" y="-108" type="line"/>
      <point x="412" y="-111"/>
      <point x="399" y="-111"/>
      <point x="388" y="-111" type="curve" smooth="yes"/>
      <point x="339" y="-111"/>
      <point x="326" y="-77"/>
      <point x="326" y="-17" type="curve" smooth="yes"/>
      <point x="326" y="615" type="line"/>
      <point x="516" y="615" type="line"/>
      <point x="516" y="693" type="line"/>
      <point x="44" y="693" type="line"/>
      <point x="44" y="615" type="line"/>
      <point x="234" y="615" type="line"/>
      <point x="234" y="0" type="line" smooth="yes"/>
      <point x="234" y="-118"/>
      <point x="262" y="-187"/>
    </contour>
  </outline>
</glyph>
<glyph name="uhorn" format="2">
  <advance width="560"/>
  <unicode hex="01B0"/>
  <anchor x="280" y="0" name="bottom"/>
  <anchor x="280" y="582" name="top"/>
  <outline>
    <contour>
      <point x="256" y="-11" type="curve" smooth="yes"/>
      <point x="333" y="-11"/>
      <point x="393" y="4"/>
      <point x="428" y="15" type="curve"/>
      <point x="428" y="454" type="line"/>
      <point x="510" y="465"/>
      <point x="533" y="531"/>
      <point x="533" y="592" type="curve" smooth="yes"/>
      <point x="533" y="600"/>
      <point x="533" y="613"/>
      <point x="532" y="628" type="curve"/>
      <point x="440" y="628" type="line"/>
      <point x="441" y="620"/>
      <point x="442" y="603"/>
      <point x="442" y="590" type="curve" smooth="yes"/>
      <point x="442" y="544"/>
      <point x="433" y="520"/>
      <point x="400" y="520" type="curve" smooth="yes"/>
      <point x="336" y="520" type="line"/>
      <point x="336" y="81" type="line"/>
      <point x="328" y="77"/>
      <point x="295" y="71"/>
      <point x="265" y="71" type="curve" smooth="yes"/>
      <point x="195" y="71"/>
      <point x="168" y="120"/>
      <point x="168" y="248" type="curve" smooth="yes"/>
      <point x="168" y="520" type="line"/>
      <point x="76" y="520" type="line"/>
      <point x="76" y="227" type="line" smooth="yes"/>
      <point x="76" y="87"/>
      <point x="120" y="-11"/>
    </contour>
  </outline>
</glyph>
<glyph name="uni01B1" format="2">
  <advance width="560"/>
  <unicode hex="01B1"/>
  <anchor x="280" y="0" name="bottom"/>
  <anchor x="280" y="776" name="top"/>
  <outline>
    <contour>
      <point x="279" y="-16" type="curve" smooth="yes"/>
      <point x="441" y="-16"/>
      <point x="523" y="131"/>
      <point x="523" y="297" type="curve" smooth="yes"/>
      <point x="523" y="407"/>
      <point x="488" y="524"/>
      <point x="418" y="615" type="curve"/>
      <point x="540" y="615" type="line"/>
      <point x="540" y="693" type="line"/>
      <point x="317" y="693" type="line"/>
      <point x="317" y="626" type="line"/>
      <point x="389" y="549"/>
      <point x="430" y="417"/>
      <point x="430" y="298" type="curve" smooth="yes"/>
      <point x="430" y="172"/>
      <point x="383" y="64"/>
      <point x="279" y="64" type="curve" smooth="yes"/>
      <point x="175" y="64"/>
      <point x="128" y="172"/>
      <point x="128" y="298" type="curve" smooth="yes"/>
      <point x="128" y="417"/>
      <point x="169" y="549"/>
      <point x="241" y="626" type="curve"/>
      <point x="241" y="693" type="line"/>
      <point x="20" y="693" type="line"/>
      <point x="20" y="615" type="line"/>
      <point x="140" y="615" type="line"/>
      <point x="71" y="524"/>
      <point x="35" y="407"/>
      <point x="35" y="297" type="curve" smooth="yes"/>
      <point x="35" y="131"/>
      <point x="116" y="-16"/>
    </contour>
  </outline>
</glyph>
<glyph name="uni01B2" format="2">
  <advance width="560"/>
  <unicode hex="01B2"/>
  <anchor x="280" y="0" name="bottom"/>
  <anchor x="280" y="776" name="top"/>
  <outline>
    <contour>
      <point x="264" y="-15" type="curve"/>
      <point x="405" y="-15"/>
      <point x="512" y="86"/>
      <point x="512" y="356" type="curve" smooth="yes"/>
      <point x="512" y="552"/>
      <point x="458" y="697"/>
      <point x="293" y="697" type="curve" smooth="yes"/>
      <point x="274" y="697"/>
      <point x="243" y="696"/>
      <point x="236" y="693" type="curve"/>
      <point x="239" y="616" type="line"/>
      <point x="248" y="617"/>
      <point x="258" y="618"/>
      <point x="276" y="618" type="curve" smooth="yes"/>
      <point x="383" y="618"/>
      <point x="420" y="526"/>
      <point x="420" y="349" type="curve" smooth="yes"/>
      <point x="420" y="128"/>
      <point x="351" y="65"/>
      <point x="264" y="65" type="curve" smooth="yes"/>
      <point x="170" y="65"/>
      <point x="142" y="125"/>
      <point x="142" y="263" type="curve" smooth="yes"/>
      <point x="142" y="693" type="line"/>
      <point x="50" y="693" type="line"/>
      <point x="50" y="241" type="line" smooth="yes"/>
      <point x="50" y="57"/>
      <point x="129" y="-15"/>
    </contour>
  </outline>
</glyph>
<glyph name="uni01B4" format="2">
  <advance width="560"/>
  <unicode hex="01B4"/>
  <anchor x="280" y="0" name="bottom"/>
  <anchor x="280" y="582" name="top"/>
  <outline>
    <contour>
      <point x="102" y="-188" type="curve" smooth="yes"/>
      <point x="206" y="-188"/>
      <point x="261" y="-136"/>
      <point x="310" y="-16" type="curve" smooth="yes"/>
      <point x="360" y="103"/>
      <point x="398" y="237"/>
      <point x="435" y="394" type="curve" smooth="yes"/>
      <point x="444" y="435"/>
      <point x="457" y="455"/>
      <point x="489" y="455" type="curve" smooth="yes"/>
      <point x="507" y="455"/>
      <point x="521" y="452"/>
      <point x="531" y="446" type="curve"/>
      <point x="547" y="519" type="line"/>
      <point x="522" y="528"/>
      <point x="498" y="533"/>
      <point x="474" y="533" type="curve" smooth="yes"/>
      <point x="398" y="533"/>
      <point x="368" y="489"/>
      <point x="352" y="416" type="curve" smooth="yes"/>
      <point x="325" y="298"/>
      <point x="304" y="204"/>
      <point x="271" y="99" type="curve"/>
      <point x="211" y="235"/>
      <point x="161" y="401"/>
      <point x="136" y="520" type="curve"/>
      <point x="35" y="520" type="line"/>
      <point x="80" y="337"/>
      <point x="151" y="152"/>
      <point x="230" y="-7" type="curve"/>
      <point x="200" y="-80"/>
      <point x="166" y="-110"/>
      <point x="101" y="-110" type="curve" smooth="yes"/>
      <point x="78" y="-110"/>
      <point x="53" y="-104"/>
      <point x="38" y="-97" type="curve"/>
      <point x="21" y="-172" type="line"/>
      <point x="32" y="-178"/>
      <point x="74" y="-188"/>
    </contour>
  </outline>
</glyph>
<glyph name="uni01B5" format="2">
  <advance width="560"/>
  <unicode hex="01B5"/>
  <outline>
    <contour>
      <point x="60" y="0" type="line"/>
      <point x="510" y="0" type="line"/>
      <point x="510" y="78" type="line"/>
      <point x="166" y="78" type="line"/>
      <point x="204" y="151"/>
      <point x="254" y="239"/>
      <point x="308" y="326" type="curve"/>
      <point x="486" y="326" type="line"/>
      <point x="486" y="398" type="line"/>
      <point x="353" y="398" type="line"/>
      <point x="407" y="483"/>
      <point x="460" y="563"/>
      <point x="501" y="622" type="curve"/>
      <point x="501" y="693" type="line"/>
      <point x="77" y="693" type="line"/>
      <point x="77" y="615" type="line"/>
      <point x="394" y="615" type="line"/>
      <point x="349" y="551"/>
      <point x="300" y="477"/>
      <point x="251" y="398" type="curve"/>
      <point x="99" y="398" type="line"/>
      <point x="99" y="326" type="line"/>
      <point x="207" y="326" type="line"/>
      <point x="155" y="239"/>
      <point x="103" y="146"/>
      <point x="60" y="60" type="curve"/>
    </contour>
  </outline>
</glyph>
<glyph name="uni01B8" format="2">
  <advance width="560"/>
  <unicode hex="01B8"/>
  <anchor x="280" y="0" name="bottom"/>
  <anchor x="280" y="776" name="top"/>
  <outline>
    <contour>
      <point x="330" y="-15" type="curve" smooth="yes"/>
      <point x="412" y="-15"/>
      <point x="491" y="10"/>
      <point x="517" y="26" type="curve"/>
      <point x="488" y="102" type="line"/>
      <point x="463" y="86"/>
      <point x="394" y="65"/>
      <point x="332" y="65" type="curve" smooth="yes"/>
      <point x="234" y="65"/>
      <point x="167" y="104"/>
      <point x="167" y="195" type="curve" smooth="yes"/>
      <point x="167" y="302"/>
      <point x="258" y="333"/>
      <point x="360" y="333" type="curve" smooth="yes"/>
      <point x="379" y="333" type="line"/>
      <point x="379" y="391" type="line"/>
      <point x="321" y="458"/>
      <point x="244" y="561"/>
      <point x="208" y="615" type="curve"/>
      <point x="495" y="615" type="line"/>
      <point x="495" y="693" type="line"/>
      <point x="91" y="693" type="line"/>
      <point x="91" y="635" type="line"/>
      <point x="125" y="576"/>
      <point x="205" y="477"/>
      <point x="270" y="398" type="curve"/>
      <point x="169" y="383"/>
      <point x="75" y="326"/>
      <point x="75" y="193" type="curve" smooth="yes"/>
      <point x="75" y="48"/>
      <point x="178" y="-15"/>
    </contour>
  </outline>
</glyph>
